<?xml version="1.0" encoding="utf-8" standalone="no"?>
<!DOCTYPE svg PUBLIC "-//W3C//DTD SVG 1.1//EN"
  "http://www.w3.org/Graphics/SVG/1.1/DTD/svg11.dtd">
<svg xmlns:xlink="http://www.w3.org/1999/xlink" width="460.8pt" height="345.6pt" viewBox="0 0 460.8 345.6" xmlns="http://www.w3.org/2000/svg" version="1.1">
 <metadata>
  <rdf:RDF xmlns:dc="http://purl.org/dc/elements/1.1/" xmlns:cc="http://creativecommons.org/ns#" xmlns:rdf="http://www.w3.org/1999/02/22-rdf-syntax-ns#">
   <cc:Work>
    <dc:type rdf:resource="http://purl.org/dc/dcmitype/StillImage"/>
    <dc:date>2025-04-24T18:11:31.794868</dc:date>
    <dc:format>image/svg+xml</dc:format>
    <dc:creator>
     <cc:Agent>
      <dc:title>Matplotlib v3.10.0, https://matplotlib.org/</dc:title>
     </cc:Agent>
    </dc:creator>
   </cc:Work>
  </rdf:RDF>
 </metadata>
 <defs>
  <style type="text/css">*{stroke-linejoin: round; stroke-linecap: butt}</style>
 </defs>
 <g id="figure_1">
  <g id="patch_1">
   <path d="M 0 345.6 
L 460.8 345.6 
L 460.8 0 
L 0 0 
z
" style="fill: #ffffff"/>
  </g>
  <g id="axes_1">
   <g id="patch_2">
    <path d="M 48.476 303.64 
L 450 303.64 
L 450 10.8 
L 48.476 10.8 
z
" style="fill: #ffffff"/>
   </g>
   <g id="matplotlib.axis_1">
    <g id="xtick_1">
     <g id="line2d_1">
      <path d="M 65.506282 303.64 
L 65.506282 10.8 
" clip-path="url(#p9cd9797947)" style="fill: none; stroke: #b0b0b0; stroke-width: 0.8; stroke-linecap: square"/>
     </g>
     <g id="line2d_2">
      <defs>
       <path id="m6c6de74170" d="M 0 0 
L 0 3.5 
" style="stroke: #000000; stroke-width: 0.8"/>
      </defs>
      <g>
       <use xlink:href="#m6c6de74170" x="65.506282" y="303.64" style="stroke: #000000; stroke-width: 0.8"/>
      </g>
     </g>
     <g id="text_1">
      <!-- 0 -->
      <g transform="translate(62.325032 318.238437) scale(0.1 -0.1)">
       <defs>
        <path id="DejaVuSans-30" d="M 2034 4250 
Q 1547 4250 1301 3770 
Q 1056 3291 1056 2328 
Q 1056 1369 1301 889 
Q 1547 409 2034 409 
Q 2525 409 2770 889 
Q 3016 1369 3016 2328 
Q 3016 3291 2770 3770 
Q 2525 4250 2034 4250 
z
M 2034 4750 
Q 2819 4750 3233 4129 
Q 3647 3509 3647 2328 
Q 3647 1150 3233 529 
Q 2819 -91 2034 -91 
Q 1250 -91 836 529 
Q 422 1150 422 2328 
Q 422 3509 836 4129 
Q 1250 4750 2034 4750 
z
" transform="scale(0.015625)"/>
       </defs>
       <use xlink:href="#DejaVuSans-30"/>
      </g>
     </g>
    </g>
    <g id="xtick_2">
     <g id="line2d_3">
      <path d="M 126.54672 303.64 
L 126.54672 10.8 
" clip-path="url(#p9cd9797947)" style="fill: none; stroke: #b0b0b0; stroke-width: 0.8; stroke-linecap: square"/>
     </g>
     <g id="line2d_4">
      <g>
       <use xlink:href="#m6c6de74170" x="126.54672" y="303.64" style="stroke: #000000; stroke-width: 0.8"/>
      </g>
     </g>
     <g id="text_2">
      <!-- 50 -->
      <g transform="translate(120.18422 318.238437) scale(0.1 -0.1)">
       <defs>
        <path id="DejaVuSans-35" d="M 691 4666 
L 3169 4666 
L 3169 4134 
L 1269 4134 
L 1269 2991 
Q 1406 3038 1543 3061 
Q 1681 3084 1819 3084 
Q 2600 3084 3056 2656 
Q 3513 2228 3513 1497 
Q 3513 744 3044 326 
Q 2575 -91 1722 -91 
Q 1428 -91 1123 -41 
Q 819 9 494 109 
L 494 744 
Q 775 591 1075 516 
Q 1375 441 1709 441 
Q 2250 441 2565 725 
Q 2881 1009 2881 1497 
Q 2881 1984 2565 2268 
Q 2250 2553 1709 2553 
Q 1456 2553 1204 2497 
Q 953 2441 691 2322 
L 691 4666 
z
" transform="scale(0.015625)"/>
       </defs>
       <use xlink:href="#DejaVuSans-35"/>
       <use xlink:href="#DejaVuSans-30" transform="translate(63.623047 0)"/>
      </g>
     </g>
    </g>
    <g id="xtick_3">
     <g id="line2d_5">
      <path d="M 187.587158 303.64 
L 187.587158 10.8 
" clip-path="url(#p9cd9797947)" style="fill: none; stroke: #b0b0b0; stroke-width: 0.8; stroke-linecap: square"/>
     </g>
     <g id="line2d_6">
      <g>
       <use xlink:href="#m6c6de74170" x="187.587158" y="303.64" style="stroke: #000000; stroke-width: 0.8"/>
      </g>
     </g>
     <g id="text_3">
      <!-- 100 -->
      <g transform="translate(178.043408 318.238437) scale(0.1 -0.1)">
       <defs>
        <path id="DejaVuSans-31" d="M 794 531 
L 1825 531 
L 1825 4091 
L 703 3866 
L 703 4441 
L 1819 4666 
L 2450 4666 
L 2450 531 
L 3481 531 
L 3481 0 
L 794 0 
L 794 531 
z
" transform="scale(0.015625)"/>
       </defs>
       <use xlink:href="#DejaVuSans-31"/>
       <use xlink:href="#DejaVuSans-30" transform="translate(63.623047 0)"/>
       <use xlink:href="#DejaVuSans-30" transform="translate(127.246094 0)"/>
      </g>
     </g>
    </g>
    <g id="xtick_4">
     <g id="line2d_7">
      <path d="M 248.627596 303.64 
L 248.627596 10.8 
" clip-path="url(#p9cd9797947)" style="fill: none; stroke: #b0b0b0; stroke-width: 0.8; stroke-linecap: square"/>
     </g>
     <g id="line2d_8">
      <g>
       <use xlink:href="#m6c6de74170" x="248.627596" y="303.64" style="stroke: #000000; stroke-width: 0.8"/>
      </g>
     </g>
     <g id="text_4">
      <!-- 150 -->
      <g transform="translate(239.083846 318.238437) scale(0.1 -0.1)">
       <use xlink:href="#DejaVuSans-31"/>
       <use xlink:href="#DejaVuSans-35" transform="translate(63.623047 0)"/>
       <use xlink:href="#DejaVuSans-30" transform="translate(127.246094 0)"/>
      </g>
     </g>
    </g>
    <g id="xtick_5">
     <g id="line2d_9">
      <path d="M 309.668033 303.64 
L 309.668033 10.8 
" clip-path="url(#p9cd9797947)" style="fill: none; stroke: #b0b0b0; stroke-width: 0.8; stroke-linecap: square"/>
     </g>
     <g id="line2d_10">
      <g>
       <use xlink:href="#m6c6de74170" x="309.668033" y="303.64" style="stroke: #000000; stroke-width: 0.8"/>
      </g>
     </g>
     <g id="text_5">
      <!-- 200 -->
      <g transform="translate(300.124283 318.238437) scale(0.1 -0.1)">
       <defs>
        <path id="DejaVuSans-32" d="M 1228 531 
L 3431 531 
L 3431 0 
L 469 0 
L 469 531 
Q 828 903 1448 1529 
Q 2069 2156 2228 2338 
Q 2531 2678 2651 2914 
Q 2772 3150 2772 3378 
Q 2772 3750 2511 3984 
Q 2250 4219 1831 4219 
Q 1534 4219 1204 4116 
Q 875 4013 500 3803 
L 500 4441 
Q 881 4594 1212 4672 
Q 1544 4750 1819 4750 
Q 2544 4750 2975 4387 
Q 3406 4025 3406 3419 
Q 3406 3131 3298 2873 
Q 3191 2616 2906 2266 
Q 2828 2175 2409 1742 
Q 1991 1309 1228 531 
z
" transform="scale(0.015625)"/>
       </defs>
       <use xlink:href="#DejaVuSans-32"/>
       <use xlink:href="#DejaVuSans-30" transform="translate(63.623047 0)"/>
       <use xlink:href="#DejaVuSans-30" transform="translate(127.246094 0)"/>
      </g>
     </g>
    </g>
    <g id="xtick_6">
     <g id="line2d_11">
      <path d="M 370.708471 303.64 
L 370.708471 10.8 
" clip-path="url(#p9cd9797947)" style="fill: none; stroke: #b0b0b0; stroke-width: 0.8; stroke-linecap: square"/>
     </g>
     <g id="line2d_12">
      <g>
       <use xlink:href="#m6c6de74170" x="370.708471" y="303.64" style="stroke: #000000; stroke-width: 0.8"/>
      </g>
     </g>
     <g id="text_6">
      <!-- 250 -->
      <g transform="translate(361.164721 318.238437) scale(0.1 -0.1)">
       <use xlink:href="#DejaVuSans-32"/>
       <use xlink:href="#DejaVuSans-35" transform="translate(63.623047 0)"/>
       <use xlink:href="#DejaVuSans-30" transform="translate(127.246094 0)"/>
      </g>
     </g>
    </g>
    <g id="xtick_7">
     <g id="line2d_13">
      <path d="M 431.748909 303.64 
L 431.748909 10.8 
" clip-path="url(#p9cd9797947)" style="fill: none; stroke: #b0b0b0; stroke-width: 0.8; stroke-linecap: square"/>
     </g>
     <g id="line2d_14">
      <g>
       <use xlink:href="#m6c6de74170" x="431.748909" y="303.64" style="stroke: #000000; stroke-width: 0.8"/>
      </g>
     </g>
     <g id="text_7">
      <!-- 300 -->
      <g transform="translate(422.205159 318.238437) scale(0.1 -0.1)">
       <defs>
        <path id="DejaVuSans-33" d="M 2597 2516 
Q 3050 2419 3304 2112 
Q 3559 1806 3559 1356 
Q 3559 666 3084 287 
Q 2609 -91 1734 -91 
Q 1441 -91 1130 -33 
Q 819 25 488 141 
L 488 750 
Q 750 597 1062 519 
Q 1375 441 1716 441 
Q 2309 441 2620 675 
Q 2931 909 2931 1356 
Q 2931 1769 2642 2001 
Q 2353 2234 1838 2234 
L 1294 2234 
L 1294 2753 
L 1863 2753 
Q 2328 2753 2575 2939 
Q 2822 3125 2822 3475 
Q 2822 3834 2567 4026 
Q 2313 4219 1838 4219 
Q 1578 4219 1281 4162 
Q 984 4106 628 3988 
L 628 4550 
Q 988 4650 1302 4700 
Q 1616 4750 1894 4750 
Q 2613 4750 3031 4423 
Q 3450 4097 3450 3541 
Q 3450 3153 3228 2886 
Q 3006 2619 2597 2516 
z
" transform="scale(0.015625)"/>
       </defs>
       <use xlink:href="#DejaVuSans-33"/>
       <use xlink:href="#DejaVuSans-30" transform="translate(63.623047 0)"/>
       <use xlink:href="#DejaVuSans-30" transform="translate(127.246094 0)"/>
      </g>
     </g>
    </g>
    <g id="text_8">
     <!-- Pressure [atm] -->
     <g transform="translate(212.508312 331.916562) scale(0.1 -0.1)">
      <defs>
       <path id="DejaVuSans-50" d="M 1259 4147 
L 1259 2394 
L 2053 2394 
Q 2494 2394 2734 2622 
Q 2975 2850 2975 3272 
Q 2975 3691 2734 3919 
Q 2494 4147 2053 4147 
L 1259 4147 
z
M 628 4666 
L 2053 4666 
Q 2838 4666 3239 4311 
Q 3641 3956 3641 3272 
Q 3641 2581 3239 2228 
Q 2838 1875 2053 1875 
L 1259 1875 
L 1259 0 
L 628 0 
L 628 4666 
z
" transform="scale(0.015625)"/>
       <path id="DejaVuSans-72" d="M 2631 2963 
Q 2534 3019 2420 3045 
Q 2306 3072 2169 3072 
Q 1681 3072 1420 2755 
Q 1159 2438 1159 1844 
L 1159 0 
L 581 0 
L 581 3500 
L 1159 3500 
L 1159 2956 
Q 1341 3275 1631 3429 
Q 1922 3584 2338 3584 
Q 2397 3584 2469 3576 
Q 2541 3569 2628 3553 
L 2631 2963 
z
" transform="scale(0.015625)"/>
       <path id="DejaVuSans-65" d="M 3597 1894 
L 3597 1613 
L 953 1613 
Q 991 1019 1311 708 
Q 1631 397 2203 397 
Q 2534 397 2845 478 
Q 3156 559 3463 722 
L 3463 178 
Q 3153 47 2828 -22 
Q 2503 -91 2169 -91 
Q 1331 -91 842 396 
Q 353 884 353 1716 
Q 353 2575 817 3079 
Q 1281 3584 2069 3584 
Q 2775 3584 3186 3129 
Q 3597 2675 3597 1894 
z
M 3022 2063 
Q 3016 2534 2758 2815 
Q 2500 3097 2075 3097 
Q 1594 3097 1305 2825 
Q 1016 2553 972 2059 
L 3022 2063 
z
" transform="scale(0.015625)"/>
       <path id="DejaVuSans-73" d="M 2834 3397 
L 2834 2853 
Q 2591 2978 2328 3040 
Q 2066 3103 1784 3103 
Q 1356 3103 1142 2972 
Q 928 2841 928 2578 
Q 928 2378 1081 2264 
Q 1234 2150 1697 2047 
L 1894 2003 
Q 2506 1872 2764 1633 
Q 3022 1394 3022 966 
Q 3022 478 2636 193 
Q 2250 -91 1575 -91 
Q 1294 -91 989 -36 
Q 684 19 347 128 
L 347 722 
Q 666 556 975 473 
Q 1284 391 1588 391 
Q 1994 391 2212 530 
Q 2431 669 2431 922 
Q 2431 1156 2273 1281 
Q 2116 1406 1581 1522 
L 1381 1569 
Q 847 1681 609 1914 
Q 372 2147 372 2553 
Q 372 3047 722 3315 
Q 1072 3584 1716 3584 
Q 2034 3584 2315 3537 
Q 2597 3491 2834 3397 
z
" transform="scale(0.015625)"/>
       <path id="DejaVuSans-75" d="M 544 1381 
L 544 3500 
L 1119 3500 
L 1119 1403 
Q 1119 906 1312 657 
Q 1506 409 1894 409 
Q 2359 409 2629 706 
Q 2900 1003 2900 1516 
L 2900 3500 
L 3475 3500 
L 3475 0 
L 2900 0 
L 2900 538 
Q 2691 219 2414 64 
Q 2138 -91 1772 -91 
Q 1169 -91 856 284 
Q 544 659 544 1381 
z
M 1991 3584 
L 1991 3584 
z
" transform="scale(0.015625)"/>
       <path id="DejaVuSans-20" transform="scale(0.015625)"/>
       <path id="DejaVuSans-5b" d="M 550 4863 
L 1875 4863 
L 1875 4416 
L 1125 4416 
L 1125 -397 
L 1875 -397 
L 1875 -844 
L 550 -844 
L 550 4863 
z
" transform="scale(0.015625)"/>
       <path id="DejaVuSans-61" d="M 2194 1759 
Q 1497 1759 1228 1600 
Q 959 1441 959 1056 
Q 959 750 1161 570 
Q 1363 391 1709 391 
Q 2188 391 2477 730 
Q 2766 1069 2766 1631 
L 2766 1759 
L 2194 1759 
z
M 3341 1997 
L 3341 0 
L 2766 0 
L 2766 531 
Q 2569 213 2275 61 
Q 1981 -91 1556 -91 
Q 1019 -91 701 211 
Q 384 513 384 1019 
Q 384 1609 779 1909 
Q 1175 2209 1959 2209 
L 2766 2209 
L 2766 2266 
Q 2766 2663 2505 2880 
Q 2244 3097 1772 3097 
Q 1472 3097 1187 3025 
Q 903 2953 641 2809 
L 641 3341 
Q 956 3463 1253 3523 
Q 1550 3584 1831 3584 
Q 2591 3584 2966 3190 
Q 3341 2797 3341 1997 
z
" transform="scale(0.015625)"/>
       <path id="DejaVuSans-74" d="M 1172 4494 
L 1172 3500 
L 2356 3500 
L 2356 3053 
L 1172 3053 
L 1172 1153 
Q 1172 725 1289 603 
Q 1406 481 1766 481 
L 2356 481 
L 2356 0 
L 1766 0 
Q 1100 0 847 248 
Q 594 497 594 1153 
L 594 3053 
L 172 3053 
L 172 3500 
L 594 3500 
L 594 4494 
L 1172 4494 
z
" transform="scale(0.015625)"/>
       <path id="DejaVuSans-6d" d="M 3328 2828 
Q 3544 3216 3844 3400 
Q 4144 3584 4550 3584 
Q 5097 3584 5394 3201 
Q 5691 2819 5691 2113 
L 5691 0 
L 5113 0 
L 5113 2094 
Q 5113 2597 4934 2840 
Q 4756 3084 4391 3084 
Q 3944 3084 3684 2787 
Q 3425 2491 3425 1978 
L 3425 0 
L 2847 0 
L 2847 2094 
Q 2847 2600 2669 2842 
Q 2491 3084 2119 3084 
Q 1678 3084 1418 2786 
Q 1159 2488 1159 1978 
L 1159 0 
L 581 0 
L 581 3500 
L 1159 3500 
L 1159 2956 
Q 1356 3278 1631 3431 
Q 1906 3584 2284 3584 
Q 2666 3584 2933 3390 
Q 3200 3197 3328 2828 
z
" transform="scale(0.015625)"/>
       <path id="DejaVuSans-5d" d="M 1947 4863 
L 1947 -844 
L 622 -844 
L 622 -397 
L 1369 -397 
L 1369 4416 
L 622 4416 
L 622 4863 
L 1947 4863 
z
" transform="scale(0.015625)"/>
      </defs>
      <use xlink:href="#DejaVuSans-50"/>
      <use xlink:href="#DejaVuSans-72" transform="translate(58.552734 0)"/>
      <use xlink:href="#DejaVuSans-65" transform="translate(97.416016 0)"/>
      <use xlink:href="#DejaVuSans-73" transform="translate(158.939453 0)"/>
      <use xlink:href="#DejaVuSans-73" transform="translate(211.039062 0)"/>
      <use xlink:href="#DejaVuSans-75" transform="translate(263.138672 0)"/>
      <use xlink:href="#DejaVuSans-72" transform="translate(326.517578 0)"/>
      <use xlink:href="#DejaVuSans-65" transform="translate(365.380859 0)"/>
      <use xlink:href="#DejaVuSans-20" transform="translate(426.904297 0)"/>
      <use xlink:href="#DejaVuSans-5b" transform="translate(458.691406 0)"/>
      <use xlink:href="#DejaVuSans-61" transform="translate(497.705078 0)"/>
      <use xlink:href="#DejaVuSans-74" transform="translate(558.984375 0)"/>
      <use xlink:href="#DejaVuSans-6d" transform="translate(598.193359 0)"/>
      <use xlink:href="#DejaVuSans-5d" transform="translate(695.605469 0)"/>
     </g>
    </g>
   </g>
   <g id="matplotlib.axis_2">
    <g id="ytick_1">
     <g id="line2d_15">
      <path d="M 48.476 262.582732 
L 450 262.582732 
" clip-path="url(#p9cd9797947)" style="fill: none; stroke: #b0b0b0; stroke-width: 0.8; stroke-linecap: square"/>
     </g>
     <g id="line2d_16">
      <defs>
       <path id="m2c27a39010" d="M 0 0 
L -3.5 0 
" style="stroke: #000000; stroke-width: 0.8"/>
      </defs>
      <g>
       <use xlink:href="#m2c27a39010" x="48.476" y="262.582732" style="stroke: #000000; stroke-width: 0.8"/>
      </g>
     </g>
     <g id="text_9">
      <!-- 2 -->
      <g transform="translate(35.1135 266.381951) scale(0.1 -0.1)">
       <use xlink:href="#DejaVuSans-32"/>
      </g>
     </g>
    </g>
    <g id="ytick_2">
     <g id="line2d_17">
      <path d="M 48.476 214.508582 
L 450 214.508582 
" clip-path="url(#p9cd9797947)" style="fill: none; stroke: #b0b0b0; stroke-width: 0.8; stroke-linecap: square"/>
     </g>
     <g id="line2d_18">
      <g>
       <use xlink:href="#m2c27a39010" x="48.476" y="214.508582" style="stroke: #000000; stroke-width: 0.8"/>
      </g>
     </g>
     <g id="text_10">
      <!-- 4 -->
      <g transform="translate(35.1135 218.307801) scale(0.1 -0.1)">
       <defs>
        <path id="DejaVuSans-34" d="M 2419 4116 
L 825 1625 
L 2419 1625 
L 2419 4116 
z
M 2253 4666 
L 3047 4666 
L 3047 1625 
L 3713 1625 
L 3713 1100 
L 3047 1100 
L 3047 0 
L 2419 0 
L 2419 1100 
L 313 1100 
L 313 1709 
L 2253 4666 
z
" transform="scale(0.015625)"/>
       </defs>
       <use xlink:href="#DejaVuSans-34"/>
      </g>
     </g>
    </g>
    <g id="ytick_3">
     <g id="line2d_19">
      <path d="M 48.476 166.434431 
L 450 166.434431 
" clip-path="url(#p9cd9797947)" style="fill: none; stroke: #b0b0b0; stroke-width: 0.8; stroke-linecap: square"/>
     </g>
     <g id="line2d_20">
      <g>
       <use xlink:href="#m2c27a39010" x="48.476" y="166.434431" style="stroke: #000000; stroke-width: 0.8"/>
      </g>
     </g>
     <g id="text_11">
      <!-- 6 -->
      <g transform="translate(35.1135 170.23365) scale(0.1 -0.1)">
       <defs>
        <path id="DejaVuSans-36" d="M 2113 2584 
Q 1688 2584 1439 2293 
Q 1191 2003 1191 1497 
Q 1191 994 1439 701 
Q 1688 409 2113 409 
Q 2538 409 2786 701 
Q 3034 994 3034 1497 
Q 3034 2003 2786 2293 
Q 2538 2584 2113 2584 
z
M 3366 4563 
L 3366 3988 
Q 3128 4100 2886 4159 
Q 2644 4219 2406 4219 
Q 1781 4219 1451 3797 
Q 1122 3375 1075 2522 
Q 1259 2794 1537 2939 
Q 1816 3084 2150 3084 
Q 2853 3084 3261 2657 
Q 3669 2231 3669 1497 
Q 3669 778 3244 343 
Q 2819 -91 2113 -91 
Q 1303 -91 875 529 
Q 447 1150 447 2328 
Q 447 3434 972 4092 
Q 1497 4750 2381 4750 
Q 2619 4750 2861 4703 
Q 3103 4656 3366 4563 
z
" transform="scale(0.015625)"/>
       </defs>
       <use xlink:href="#DejaVuSans-36"/>
      </g>
     </g>
    </g>
    <g id="ytick_4">
     <g id="line2d_21">
      <path d="M 48.476 118.360281 
L 450 118.360281 
" clip-path="url(#p9cd9797947)" style="fill: none; stroke: #b0b0b0; stroke-width: 0.8; stroke-linecap: square"/>
     </g>
     <g id="line2d_22">
      <g>
       <use xlink:href="#m2c27a39010" x="48.476" y="118.360281" style="stroke: #000000; stroke-width: 0.8"/>
      </g>
     </g>
     <g id="text_12">
      <!-- 8 -->
      <g transform="translate(35.1135 122.1595) scale(0.1 -0.1)">
       <defs>
        <path id="DejaVuSans-38" d="M 2034 2216 
Q 1584 2216 1326 1975 
Q 1069 1734 1069 1313 
Q 1069 891 1326 650 
Q 1584 409 2034 409 
Q 2484 409 2743 651 
Q 3003 894 3003 1313 
Q 3003 1734 2745 1975 
Q 2488 2216 2034 2216 
z
M 1403 2484 
Q 997 2584 770 2862 
Q 544 3141 544 3541 
Q 544 4100 942 4425 
Q 1341 4750 2034 4750 
Q 2731 4750 3128 4425 
Q 3525 4100 3525 3541 
Q 3525 3141 3298 2862 
Q 3072 2584 2669 2484 
Q 3125 2378 3379 2068 
Q 3634 1759 3634 1313 
Q 3634 634 3220 271 
Q 2806 -91 2034 -91 
Q 1263 -91 848 271 
Q 434 634 434 1313 
Q 434 1759 690 2068 
Q 947 2378 1403 2484 
z
M 1172 3481 
Q 1172 3119 1398 2916 
Q 1625 2713 2034 2713 
Q 2441 2713 2670 2916 
Q 2900 3119 2900 3481 
Q 2900 3844 2670 4047 
Q 2441 4250 2034 4250 
Q 1625 4250 1398 4047 
Q 1172 3844 1172 3481 
z
" transform="scale(0.015625)"/>
       </defs>
       <use xlink:href="#DejaVuSans-38"/>
      </g>
     </g>
    </g>
    <g id="ytick_5">
     <g id="line2d_23">
      <path d="M 48.476 70.286131 
L 450 70.286131 
" clip-path="url(#p9cd9797947)" style="fill: none; stroke: #b0b0b0; stroke-width: 0.8; stroke-linecap: square"/>
     </g>
     <g id="line2d_24">
      <g>
       <use xlink:href="#m2c27a39010" x="48.476" y="70.286131" style="stroke: #000000; stroke-width: 0.8"/>
      </g>
     </g>
     <g id="text_13">
      <!-- 10 -->
      <g transform="translate(28.751 74.085349) scale(0.1 -0.1)">
       <use xlink:href="#DejaVuSans-31"/>
       <use xlink:href="#DejaVuSans-30" transform="translate(63.623047 0)"/>
      </g>
     </g>
    </g>
    <g id="ytick_6">
     <g id="line2d_25">
      <path d="M 48.476 22.21198 
L 450 22.21198 
" clip-path="url(#p9cd9797947)" style="fill: none; stroke: #b0b0b0; stroke-width: 0.8; stroke-linecap: square"/>
     </g>
     <g id="line2d_26">
      <g>
       <use xlink:href="#m2c27a39010" x="48.476" y="22.21198" style="stroke: #000000; stroke-width: 0.8"/>
      </g>
     </g>
     <g id="text_14">
      <!-- 12 -->
      <g transform="translate(28.751 26.011199) scale(0.1 -0.1)">
       <use xlink:href="#DejaVuSans-31"/>
       <use xlink:href="#DejaVuSans-32" transform="translate(63.623047 0)"/>
      </g>
     </g>
    </g>
    <g id="text_15">
     <!-- $C_p$ [kJ/kgK] -->
     <g transform="translate(21.651 183.97) rotate(-90) scale(0.1 -0.1)">
      <defs>
       <path id="DejaVuSans-Oblique-43" d="M 4447 4306 
L 4319 3641 
Q 4019 3944 3683 4091 
Q 3347 4238 2956 4238 
Q 2422 4238 2017 3981 
Q 1613 3725 1319 3200 
Q 1131 2863 1032 2486 
Q 934 2109 934 1728 
Q 934 1091 1264 756 
Q 1594 422 2222 422 
Q 2656 422 3056 561 
Q 3456 700 3834 978 
L 3688 231 
Q 3316 72 2936 -9 
Q 2556 -91 2175 -91 
Q 1278 -91 773 396 
Q 269 884 269 1753 
Q 269 2309 461 2846 
Q 653 3384 1013 3828 
Q 1394 4300 1883 4525 
Q 2372 4750 3022 4750 
Q 3422 4750 3780 4639 
Q 4138 4528 4447 4306 
z
" transform="scale(0.015625)"/>
       <path id="DejaVuSans-Oblique-70" d="M 3175 2156 
Q 3175 2616 2975 2859 
Q 2775 3103 2400 3103 
Q 2144 3103 1911 2972 
Q 1678 2841 1497 2591 
Q 1319 2344 1212 1994 
Q 1106 1644 1106 1300 
Q 1106 863 1306 627 
Q 1506 391 1875 391 
Q 2147 391 2380 519 
Q 2613 647 2778 891 
Q 2956 1147 3065 1494 
Q 3175 1841 3175 2156 
z
M 1394 2969 
Q 1625 3272 1939 3428 
Q 2253 3584 2638 3584 
Q 3175 3584 3472 3232 
Q 3769 2881 3769 2247 
Q 3769 1728 3584 1258 
Q 3400 788 3053 416 
Q 2822 169 2531 39 
Q 2241 -91 1919 -91 
Q 1547 -91 1294 64 
Q 1041 219 916 525 
L 556 -1331 
L -19 -1331 
L 922 3500 
L 1497 3500 
L 1394 2969 
z
" transform="scale(0.015625)"/>
       <path id="DejaVuSans-6b" d="M 581 4863 
L 1159 4863 
L 1159 1991 
L 2875 3500 
L 3609 3500 
L 1753 1863 
L 3688 0 
L 2938 0 
L 1159 1709 
L 1159 0 
L 581 0 
L 581 4863 
z
" transform="scale(0.015625)"/>
       <path id="DejaVuSans-4a" d="M 628 4666 
L 1259 4666 
L 1259 325 
Q 1259 -519 939 -900 
Q 619 -1281 -91 -1281 
L -331 -1281 
L -331 -750 
L -134 -750 
Q 284 -750 456 -515 
Q 628 -281 628 325 
L 628 4666 
z
" transform="scale(0.015625)"/>
       <path id="DejaVuSans-2f" d="M 1625 4666 
L 2156 4666 
L 531 -594 
L 0 -594 
L 1625 4666 
z
" transform="scale(0.015625)"/>
       <path id="DejaVuSans-67" d="M 2906 1791 
Q 2906 2416 2648 2759 
Q 2391 3103 1925 3103 
Q 1463 3103 1205 2759 
Q 947 2416 947 1791 
Q 947 1169 1205 825 
Q 1463 481 1925 481 
Q 2391 481 2648 825 
Q 2906 1169 2906 1791 
z
M 3481 434 
Q 3481 -459 3084 -895 
Q 2688 -1331 1869 -1331 
Q 1566 -1331 1297 -1286 
Q 1028 -1241 775 -1147 
L 775 -588 
Q 1028 -725 1275 -790 
Q 1522 -856 1778 -856 
Q 2344 -856 2625 -561 
Q 2906 -266 2906 331 
L 2906 616 
Q 2728 306 2450 153 
Q 2172 0 1784 0 
Q 1141 0 747 490 
Q 353 981 353 1791 
Q 353 2603 747 3093 
Q 1141 3584 1784 3584 
Q 2172 3584 2450 3431 
Q 2728 3278 2906 2969 
L 2906 3500 
L 3481 3500 
L 3481 434 
z
" transform="scale(0.015625)"/>
       <path id="DejaVuSans-4b" d="M 628 4666 
L 1259 4666 
L 1259 2694 
L 3353 4666 
L 4166 4666 
L 1850 2491 
L 4331 0 
L 3500 0 
L 1259 2247 
L 1259 0 
L 628 0 
L 628 4666 
z
" transform="scale(0.015625)"/>
      </defs>
      <use xlink:href="#DejaVuSans-Oblique-43" transform="translate(0 0.015625)"/>
      <use xlink:href="#DejaVuSans-Oblique-70" transform="translate(69.824219 -16.390625) scale(0.7)"/>
      <use xlink:href="#DejaVuSans-20" transform="translate(116.992188 0.015625)"/>
      <use xlink:href="#DejaVuSans-5b" transform="translate(148.779297 0.015625)"/>
      <use xlink:href="#DejaVuSans-6b" transform="translate(187.792969 0.015625)"/>
      <use xlink:href="#DejaVuSans-4a" transform="translate(245.703125 0.015625)"/>
      <use xlink:href="#DejaVuSans-2f" transform="translate(275.195312 0.015625)"/>
      <use xlink:href="#DejaVuSans-6b" transform="translate(308.886719 0.015625)"/>
      <use xlink:href="#DejaVuSans-67" transform="translate(366.796875 0.015625)"/>
      <use xlink:href="#DejaVuSans-4b" transform="translate(430.273438 0.015625)"/>
      <use xlink:href="#DejaVuSans-5d" transform="translate(495.849609 0.015625)"/>
     </g>
    </g>
   </g>
   <g id="line2d_27">
    <path d="M 66.727091 290.329091 
L 431.748909 290.329091 
L 431.748909 290.329091 
" clip-path="url(#p9cd9797947)" style="fill: none; stroke: #0000ff; stroke-width: 3; stroke-linecap: square"/>
   </g>
   <g id="line2d_28">
    <path d="M 66.727091 290.188743 
L 75.272752 288.937069 
L 82.597605 287.651582 
L 88.701649 286.381634 
L 94.805692 284.872816 
L 99.688927 283.44033 
L 104.572162 281.743091 
L 108.234589 280.24479 
L 111.897015 278.495699 
L 115.559441 276.42095 
L 118.001059 274.804932 
L 120.442676 272.951422 
L 122.884294 270.799174 
L 125.325911 268.262889 
L 127.767529 265.219739 
L 128.988337 263.454001 
L 130.209146 261.48575 
L 131.429955 259.27571 
L 132.650764 256.770759 
L 133.871573 253.904844 
L 135.092381 250.586216 
L 136.31319 246.688899 
L 137.533999 242.033009 
L 138.754808 236.352045 
L 139.975616 229.2312 
L 141.196425 219.983748 
L 142.417234 207.373957 
L 143.638043 188.899253 
L 144.858851 158.47532 
L 146.07966 95.46802 
L 147.300469 124.749226 
L 148.521278 146.121119 
L 149.742086 160.954978 
L 150.962895 171.985805 
L 152.183704 180.582205 
L 153.404513 187.513102 
L 154.625321 193.247324 
L 155.84613 198.088657 
L 157.066939 202.243582 
L 158.287748 205.857805 
L 159.508556 209.037412 
L 160.729365 211.861689 
L 163.170983 216.672809 
L 165.6126 220.635624 
L 168.054218 223.969619 
L 170.495835 226.823149 
L 172.937453 229.300066 
L 175.37907 231.475433 
L 177.820688 233.405059 
L 181.483114 235.928933 
L 185.14554 238.09879 
L 188.807967 239.989505 
L 192.470393 241.655344 
L 197.353628 243.59625 
L 202.236863 245.280228 
L 208.340907 247.101166 
L 214.44495 248.67288 
L 221.769803 250.301276 
L 229.094656 251.708233 
L 237.640317 253.129761 
L 247.406787 254.52676 
L 258.394066 255.872775 
L 270.602153 257.151112 
L 285.251858 258.453927 
L 302.343181 259.731829 
L 321.876121 260.953135 
L 343.850679 262.099909 
L 369.487663 263.212503 
L 400.007881 264.304519 
L 431.748909 265.24373 
L 431.748909 265.24373 
" clip-path="url(#p9cd9797947)" style="fill: none; stroke: #000000; stroke-width: 3; stroke-linecap: square"/>
   </g>
   <g id="line2d_29">
    <path d="M 66.727091 290.162313 
L 75.272752 288.900237 
L 82.597605 287.60782 
L 88.701649 286.331756 
L 94.805692 284.814245 
L 99.688927 283.370658 
L 104.572162 281.655663 
L 108.234589 280.137041 
L 111.897015 278.358543 
L 114.338632 276.9907 
L 116.78025 275.441095 
L 119.221867 273.667959 
L 121.663485 271.615198 
L 124.105102 269.20553 
L 126.54672 266.329173 
L 128.988337 262.824283 
L 130.209146 260.763066 
L 131.429955 258.441037 
L 132.650764 255.801728 
L 133.871573 252.770501 
L 135.092381 249.246411 
L 136.31319 245.089194 
L 137.533999 240.097493 
L 138.754808 233.97046 
L 139.975616 226.235412 
L 141.196425 216.099463 
L 142.417234 202.108927 
L 143.638043 181.232343 
L 144.858851 145.70046 
L 146.07966 65.770345 
L 147.300469 128.795328 
L 148.521278 151.174921 
L 149.742086 165.942198 
L 150.962895 176.624787 
L 152.183704 184.809536 
L 153.404513 191.334835 
L 154.625321 196.69209 
L 155.84613 201.191153 
L 157.066939 205.038329 
L 158.287748 208.376929 
L 159.508556 211.309946 
L 160.729365 213.9135 
L 163.170983 218.349474 
L 165.6126 222.00849 
L 168.054218 225.095024 
L 170.495835 227.74527 
L 172.937453 230.053835 
L 175.37907 232.088742 
L 177.820688 233.900322 
L 181.483114 236.279995 
L 185.14554 238.335935 
L 188.807967 240.135206 
L 192.470393 241.726775 
L 197.353628 243.588006 
L 202.236863 245.208961 
L 208.340907 246.96755 
L 214.44495 248.489694 
L 221.769803 250.070527 
L 230.315464 251.649335 
L 238.861126 253.004972 
L 248.627596 254.341034 
L 259.614874 255.631416 
L 273.043771 256.972652 
L 287.693476 258.209564 
L 304.784798 259.427059 
L 324.317739 260.59463 
L 347.513105 261.750413 
L 374.370898 262.858103 
L 406.111925 263.934812 
L 431.748909 264.667249 
L 431.748909 264.667249 
" clip-path="url(#p9cd9797947)" style="fill: none; stroke: #008000; stroke-width: 3; stroke-linecap: square"/>
   </g>
   <g id="line2d_30">
    <path d="M 66.727091 290.202806 
L 76.493561 289.091471 
L 85.039222 287.874398 
L 91.143266 286.811239 
L 97.24731 285.527316 
L 102.130545 284.288216 
L 107.01378 282.795646 
L 110.676206 281.456597 
L 114.338632 279.868702 
L 116.78025 278.633482 
L 119.221867 277.219791 
L 121.663485 275.583765 
L 124.105102 273.665389 
L 126.54672 271.380119 
L 128.988337 268.604575 
L 130.209146 266.977811 
L 131.429955 265.150662 
L 132.650764 263.081369 
L 133.871573 260.715259 
L 135.092381 257.979204 
L 136.31319 254.772885 
L 137.533999 250.95447 
L 138.754808 246.315943 
L 139.975616 240.537976 
L 141.196425 233.100875 
L 142.417234 223.090603 
L 143.638043 208.714924 
L 144.858851 185.830047 
L 146.07966 141.67307 
L 147.300469 37.353966 
L 148.521278 82.869894 
L 149.742086 110.57159 
L 150.962895 129.633812 
L 152.183704 143.750603 
L 153.404513 154.730844 
L 154.625321 163.577228 
L 155.84613 170.895698 
L 157.066939 177.076572 
L 158.287748 182.383974 
L 159.508556 187.003774 
L 160.729365 191.071022 
L 161.950174 194.68649 
L 164.391791 200.8526 
L 166.833409 205.938413 
L 169.275026 210.223221 
L 171.716644 213.895068 
L 174.158261 217.085741 
L 176.599879 219.890666 
L 179.041497 222.380836 
L 181.483114 224.61029 
L 183.924732 226.620974 
L 187.587158 229.297398 
L 191.249584 231.640232 
L 194.91201 233.712596 
L 198.574437 235.562144 
L 203.457672 237.743904 
L 208.340907 239.660089 
L 213.224142 241.359829 
L 219.328185 243.236186 
L 225.432229 244.887225 
L 232.757082 246.628249 
L 241.302743 248.393628 
L 249.848404 249.930449 
L 259.614874 251.463747 
L 270.602153 252.961801 
L 282.810241 254.402989 
L 297.459946 255.889039 
L 313.33046 257.265438 
L 331.642591 258.620564 
L 352.39634 259.924192 
L 375.591706 261.157974 
L 402.449499 262.362859 
L 431.748909 263.469634 
L 431.748909 263.469634 
" clip-path="url(#p9cd9797947)" style="fill: none; stroke: #bf00bf; stroke-width: 3; stroke-linecap: square"/>
   </g>
   <g id="line2d_31">
    <path d="M 66.727091 290.205751 
L 76.493561 289.12359 
L 85.039222 287.943506 
L 92.364075 286.688441 
L 98.468119 285.403797 
L 103.351354 284.163478 
L 108.234589 282.668058 
L 111.897015 281.324523 
L 115.559441 279.72811 
L 118.001059 278.483301 
L 120.442676 277.054858 
L 122.884294 275.395954 
L 125.325911 273.441631 
L 127.767529 271.098792 
L 130.209146 268.228546 
L 131.429955 266.532103 
L 132.650764 264.612957 
L 133.871573 262.420524 
L 135.092381 259.886873 
L 136.31319 256.91833 
L 137.533999 253.381554 
L 138.754808 249.0792 
L 139.975616 243.704556 
L 141.196425 236.749804 
L 142.417234 227.299107 
L 143.638043 213.485266 
L 144.858851 190.688099 
L 146.07966 142.400301 
L 147.300469 193.528366 
L 148.521278 199.929609 
L 149.742086 204.739985 
L 150.962895 208.56763 
L 152.183704 211.728949 
L 153.404513 214.409859 
L 154.625321 216.728835 
L 155.84613 218.765935 
L 158.287748 222.205563 
L 160.729365 225.02694 
L 163.170983 227.405047 
L 165.6126 229.450973 
L 168.054218 231.239458 
L 171.716644 233.550453 
L 175.37907 235.519426 
L 179.041497 237.226933 
L 182.703923 238.728722 
L 187.587158 240.478831 
L 192.470393 242.001224 
L 198.574437 243.655099 
L 204.67848 245.091891 
L 212.003333 246.592846 
L 220.548994 248.104562 
L 230.315464 249.589447 
L 241.302743 251.023123 
L 253.510831 252.391263 
L 268.160536 253.795379 
L 284.03105 255.094133 
L 302.343181 256.37512 
L 324.317739 257.680239 
L 349.954722 258.963943 
L 379.254133 260.197598 
L 413.436778 261.404804 
L 431.748909 261.9717 
L 431.748909 261.9717 
" clip-path="url(#p9cd9797947)" style="fill: none; stroke: #bfbf00; stroke-width: 3; stroke-linecap: square"/>
   </g>
   <g id="line2d_32">
    <defs>
     <path id="m814b08455a" d="M 0 3 
C 0.795609 3 1.55874 2.683901 2.12132 2.12132 
C 2.683901 1.55874 3 0.795609 3 0 
C 3 -0.795609 2.683901 -1.55874 2.12132 -2.12132 
C 1.55874 -2.683901 0.795609 -3 0 -3 
C -0.795609 -3 -1.55874 -2.683901 -2.12132 -2.12132 
C -2.683901 -1.55874 -3 -0.795609 -3 0 
C -3 0.795609 -2.683901 1.55874 -2.12132 2.12132 
C -1.55874 2.683901 -0.795609 3 0 3 
z
" style="stroke: #a52a2a"/>
    </defs>
    <g clip-path="url(#p9cd9797947)">
     <use xlink:href="#m814b08455a" x="67.9479" y="289.995334" style="fill: #a52a2a; stroke: #a52a2a"/>
     <use xlink:href="#m814b08455a" x="91.143266" y="285.756876" style="fill: #a52a2a; stroke: #a52a2a"/>
     <use xlink:href="#m814b08455a" x="115.559441" y="276.240598" style="fill: #a52a2a; stroke: #a52a2a"/>
     <use xlink:href="#m814b08455a" x="139.975616" y="226.236271" style="fill: #a52a2a; stroke: #a52a2a"/>
     <use xlink:href="#m814b08455a" x="146.388525" y="24.110909" style="fill: #a52a2a; stroke: #a52a2a"/>
     <use xlink:href="#m814b08455a" x="146.388525" y="101.584806" style="fill: #a52a2a; stroke: #a52a2a"/>
     <use xlink:href="#m814b08455a" x="161.950174" y="216.244059" style="fill: #a52a2a; stroke: #a52a2a"/>
     <use xlink:href="#m814b08455a" x="186.366349" y="238.961498" style="fill: #a52a2a; stroke: #a52a2a"/>
     <use xlink:href="#m814b08455a" x="210.782524" y="247.602827" style="fill: #a52a2a; stroke: #a52a2a"/>
     <use xlink:href="#m814b08455a" x="235.198699" y="252.448701" style="fill: #a52a2a; stroke: #a52a2a"/>
     <use xlink:href="#m814b08455a" x="259.614874" y="255.63121" style="fill: #a52a2a; stroke: #a52a2a"/>
     <use xlink:href="#m814b08455a" x="284.03105" y="257.91954" style="fill: #a52a2a; stroke: #a52a2a"/>
     <use xlink:href="#m814b08455a" x="308.447225" y="259.662228" style="fill: #a52a2a; stroke: #a52a2a"/>
     <use xlink:href="#m814b08455a" x="332.8634" y="261.046763" style="fill: #a52a2a; stroke: #a52a2a"/>
     <use xlink:href="#m814b08455a" x="357.279575" y="262.178909" style="fill: #a52a2a; stroke: #a52a2a"/>
     <use xlink:href="#m814b08455a" x="381.69575" y="263.12597" style="fill: #a52a2a; stroke: #a52a2a"/>
     <use xlink:href="#m814b08455a" x="406.111925" y="263.933616" style="fill: #a52a2a; stroke: #a52a2a"/>
     <use xlink:href="#m814b08455a" x="430.5281" y="264.635498" style="fill: #a52a2a; stroke: #a52a2a"/>
    </g>
   </g>
   <g id="patch_3">
    <path d="M 48.476 303.64 
L 48.476 10.8 
" style="fill: none; stroke: #000000; stroke-width: 0.8; stroke-linejoin: miter; stroke-linecap: square"/>
   </g>
   <g id="patch_4">
    <path d="M 450 303.64 
L 450 10.8 
" style="fill: none; stroke: #000000; stroke-width: 0.8; stroke-linejoin: miter; stroke-linecap: square"/>
   </g>
   <g id="patch_5">
    <path d="M 48.476 303.64 
L 450 303.64 
" style="fill: none; stroke: #000000; stroke-width: 0.8; stroke-linejoin: miter; stroke-linecap: square"/>
   </g>
   <g id="patch_6">
    <path d="M 48.476 10.8 
L 450 10.8 
" style="fill: none; stroke: #000000; stroke-width: 0.8; stroke-linejoin: miter; stroke-linecap: square"/>
   </g>
   <g id="legend_1">
    <g id="line2d_33">
     <path d="M 287.585 25.208281 
L 298.585 25.208281 
L 309.585 25.208281 
" style="fill: none; stroke: #0000ff; stroke-width: 3; stroke-linecap: square"/>
    </g>
    <g id="text_16">
     <!-- Ideal EoS -->
     <g transform="translate(318.385 29.058281) scale(0.11 -0.11)">
      <defs>
       <path id="DejaVuSans-49" d="M 628 4666 
L 1259 4666 
L 1259 0 
L 628 0 
L 628 4666 
z
" transform="scale(0.015625)"/>
       <path id="DejaVuSans-64" d="M 2906 2969 
L 2906 4863 
L 3481 4863 
L 3481 0 
L 2906 0 
L 2906 525 
Q 2725 213 2448 61 
Q 2172 -91 1784 -91 
Q 1150 -91 751 415 
Q 353 922 353 1747 
Q 353 2572 751 3078 
Q 1150 3584 1784 3584 
Q 2172 3584 2448 3432 
Q 2725 3281 2906 2969 
z
M 947 1747 
Q 947 1113 1208 752 
Q 1469 391 1925 391 
Q 2381 391 2643 752 
Q 2906 1113 2906 1747 
Q 2906 2381 2643 2742 
Q 2381 3103 1925 3103 
Q 1469 3103 1208 2742 
Q 947 2381 947 1747 
z
" transform="scale(0.015625)"/>
       <path id="DejaVuSans-6c" d="M 603 4863 
L 1178 4863 
L 1178 0 
L 603 0 
L 603 4863 
z
" transform="scale(0.015625)"/>
       <path id="DejaVuSans-45" d="M 628 4666 
L 3578 4666 
L 3578 4134 
L 1259 4134 
L 1259 2753 
L 3481 2753 
L 3481 2222 
L 1259 2222 
L 1259 531 
L 3634 531 
L 3634 0 
L 628 0 
L 628 4666 
z
" transform="scale(0.015625)"/>
       <path id="DejaVuSans-6f" d="M 1959 3097 
Q 1497 3097 1228 2736 
Q 959 2375 959 1747 
Q 959 1119 1226 758 
Q 1494 397 1959 397 
Q 2419 397 2687 759 
Q 2956 1122 2956 1747 
Q 2956 2369 2687 2733 
Q 2419 3097 1959 3097 
z
M 1959 3584 
Q 2709 3584 3137 3096 
Q 3566 2609 3566 1747 
Q 3566 888 3137 398 
Q 2709 -91 1959 -91 
Q 1206 -91 779 398 
Q 353 888 353 1747 
Q 353 2609 779 3096 
Q 1206 3584 1959 3584 
z
" transform="scale(0.015625)"/>
       <path id="DejaVuSans-53" d="M 3425 4513 
L 3425 3897 
Q 3066 4069 2747 4153 
Q 2428 4238 2131 4238 
Q 1616 4238 1336 4038 
Q 1056 3838 1056 3469 
Q 1056 3159 1242 3001 
Q 1428 2844 1947 2747 
L 2328 2669 
Q 3034 2534 3370 2195 
Q 3706 1856 3706 1288 
Q 3706 609 3251 259 
Q 2797 -91 1919 -91 
Q 1588 -91 1214 -16 
Q 841 59 441 206 
L 441 856 
Q 825 641 1194 531 
Q 1563 422 1919 422 
Q 2459 422 2753 634 
Q 3047 847 3047 1241 
Q 3047 1584 2836 1778 
Q 2625 1972 2144 2069 
L 1759 2144 
Q 1053 2284 737 2584 
Q 422 2884 422 3419 
Q 422 4038 858 4394 
Q 1294 4750 2059 4750 
Q 2388 4750 2728 4690 
Q 3069 4631 3425 4513 
z
" transform="scale(0.015625)"/>
      </defs>
      <use xlink:href="#DejaVuSans-49"/>
      <use xlink:href="#DejaVuSans-64" transform="translate(29.492188 0)"/>
      <use xlink:href="#DejaVuSans-65" transform="translate(92.96875 0)"/>
      <use xlink:href="#DejaVuSans-61" transform="translate(154.492188 0)"/>
      <use xlink:href="#DejaVuSans-6c" transform="translate(215.771484 0)"/>
      <use xlink:href="#DejaVuSans-20" transform="translate(243.554688 0)"/>
      <use xlink:href="#DejaVuSans-45" transform="translate(275.341797 0)"/>
      <use xlink:href="#DejaVuSans-6f" transform="translate(338.525391 0)"/>
      <use xlink:href="#DejaVuSans-53" transform="translate(399.707031 0)"/>
     </g>
    </g>
    <g id="line2d_34">
     <path d="M 287.585 41.354219 
L 298.585 41.354219 
L 309.585 41.354219 
" style="fill: none; stroke: #000000; stroke-width: 3; stroke-linecap: square"/>
    </g>
    <g id="text_17">
     <!-- Cantera Purefluid EOS -->
     <g transform="translate(318.385 45.204219) scale(0.11 -0.11)">
      <defs>
       <path id="DejaVuSans-43" d="M 4122 4306 
L 4122 3641 
Q 3803 3938 3442 4084 
Q 3081 4231 2675 4231 
Q 1875 4231 1450 3742 
Q 1025 3253 1025 2328 
Q 1025 1406 1450 917 
Q 1875 428 2675 428 
Q 3081 428 3442 575 
Q 3803 722 4122 1019 
L 4122 359 
Q 3791 134 3420 21 
Q 3050 -91 2638 -91 
Q 1578 -91 968 557 
Q 359 1206 359 2328 
Q 359 3453 968 4101 
Q 1578 4750 2638 4750 
Q 3056 4750 3426 4639 
Q 3797 4528 4122 4306 
z
" transform="scale(0.015625)"/>
       <path id="DejaVuSans-6e" d="M 3513 2113 
L 3513 0 
L 2938 0 
L 2938 2094 
Q 2938 2591 2744 2837 
Q 2550 3084 2163 3084 
Q 1697 3084 1428 2787 
Q 1159 2491 1159 1978 
L 1159 0 
L 581 0 
L 581 3500 
L 1159 3500 
L 1159 2956 
Q 1366 3272 1645 3428 
Q 1925 3584 2291 3584 
Q 2894 3584 3203 3211 
Q 3513 2838 3513 2113 
z
" transform="scale(0.015625)"/>
       <path id="DejaVuSans-66" d="M 2375 4863 
L 2375 4384 
L 1825 4384 
Q 1516 4384 1395 4259 
Q 1275 4134 1275 3809 
L 1275 3500 
L 2222 3500 
L 2222 3053 
L 1275 3053 
L 1275 0 
L 697 0 
L 697 3053 
L 147 3053 
L 147 3500 
L 697 3500 
L 697 3744 
Q 697 4328 969 4595 
Q 1241 4863 1831 4863 
L 2375 4863 
z
" transform="scale(0.015625)"/>
       <path id="DejaVuSans-69" d="M 603 3500 
L 1178 3500 
L 1178 0 
L 603 0 
L 603 3500 
z
M 603 4863 
L 1178 4863 
L 1178 4134 
L 603 4134 
L 603 4863 
z
" transform="scale(0.015625)"/>
       <path id="DejaVuSans-4f" d="M 2522 4238 
Q 1834 4238 1429 3725 
Q 1025 3213 1025 2328 
Q 1025 1447 1429 934 
Q 1834 422 2522 422 
Q 3209 422 3611 934 
Q 4013 1447 4013 2328 
Q 4013 3213 3611 3725 
Q 3209 4238 2522 4238 
z
M 2522 4750 
Q 3503 4750 4090 4092 
Q 4678 3434 4678 2328 
Q 4678 1225 4090 567 
Q 3503 -91 2522 -91 
Q 1538 -91 948 565 
Q 359 1222 359 2328 
Q 359 3434 948 4092 
Q 1538 4750 2522 4750 
z
" transform="scale(0.015625)"/>
      </defs>
      <use xlink:href="#DejaVuSans-43"/>
      <use xlink:href="#DejaVuSans-61" transform="translate(69.824219 0)"/>
      <use xlink:href="#DejaVuSans-6e" transform="translate(131.103516 0)"/>
      <use xlink:href="#DejaVuSans-74" transform="translate(194.482422 0)"/>
      <use xlink:href="#DejaVuSans-65" transform="translate(233.691406 0)"/>
      <use xlink:href="#DejaVuSans-72" transform="translate(295.214844 0)"/>
      <use xlink:href="#DejaVuSans-61" transform="translate(336.328125 0)"/>
      <use xlink:href="#DejaVuSans-20" transform="translate(397.607422 0)"/>
      <use xlink:href="#DejaVuSans-50" transform="translate(429.394531 0)"/>
      <use xlink:href="#DejaVuSans-75" transform="translate(487.947266 0)"/>
      <use xlink:href="#DejaVuSans-72" transform="translate(551.326172 0)"/>
      <use xlink:href="#DejaVuSans-65" transform="translate(590.189453 0)"/>
      <use xlink:href="#DejaVuSans-66" transform="translate(651.712891 0)"/>
      <use xlink:href="#DejaVuSans-6c" transform="translate(686.917969 0)"/>
      <use xlink:href="#DejaVuSans-75" transform="translate(714.701172 0)"/>
      <use xlink:href="#DejaVuSans-69" transform="translate(778.080078 0)"/>
      <use xlink:href="#DejaVuSans-64" transform="translate(805.863281 0)"/>
      <use xlink:href="#DejaVuSans-20" transform="translate(869.339844 0)"/>
      <use xlink:href="#DejaVuSans-45" transform="translate(901.126953 0)"/>
      <use xlink:href="#DejaVuSans-4f" transform="translate(964.310547 0)"/>
      <use xlink:href="#DejaVuSans-53" transform="translate(1043.021484 0)"/>
     </g>
    </g>
    <g id="line2d_35">
     <path d="M 287.585 57.500156 
L 298.585 57.500156 
L 309.585 57.500156 
" style="fill: none; stroke: #008000; stroke-width: 3; stroke-linecap: square"/>
    </g>
    <g id="text_18">
     <!-- CoolProp HEOS -->
     <g transform="translate(318.385 61.350156) scale(0.11 -0.11)">
      <defs>
       <path id="DejaVuSans-70" d="M 1159 525 
L 1159 -1331 
L 581 -1331 
L 581 3500 
L 1159 3500 
L 1159 2969 
Q 1341 3281 1617 3432 
Q 1894 3584 2278 3584 
Q 2916 3584 3314 3078 
Q 3713 2572 3713 1747 
Q 3713 922 3314 415 
Q 2916 -91 2278 -91 
Q 1894 -91 1617 61 
Q 1341 213 1159 525 
z
M 3116 1747 
Q 3116 2381 2855 2742 
Q 2594 3103 2138 3103 
Q 1681 3103 1420 2742 
Q 1159 2381 1159 1747 
Q 1159 1113 1420 752 
Q 1681 391 2138 391 
Q 2594 391 2855 752 
Q 3116 1113 3116 1747 
z
" transform="scale(0.015625)"/>
       <path id="DejaVuSans-48" d="M 628 4666 
L 1259 4666 
L 1259 2753 
L 3553 2753 
L 3553 4666 
L 4184 4666 
L 4184 0 
L 3553 0 
L 3553 2222 
L 1259 2222 
L 1259 0 
L 628 0 
L 628 4666 
z
" transform="scale(0.015625)"/>
      </defs>
      <use xlink:href="#DejaVuSans-43"/>
      <use xlink:href="#DejaVuSans-6f" transform="translate(69.824219 0)"/>
      <use xlink:href="#DejaVuSans-6f" transform="translate(131.005859 0)"/>
      <use xlink:href="#DejaVuSans-6c" transform="translate(192.1875 0)"/>
      <use xlink:href="#DejaVuSans-50" transform="translate(219.970703 0)"/>
      <use xlink:href="#DejaVuSans-72" transform="translate(278.523438 0)"/>
      <use xlink:href="#DejaVuSans-6f" transform="translate(317.386719 0)"/>
      <use xlink:href="#DejaVuSans-70" transform="translate(378.568359 0)"/>
      <use xlink:href="#DejaVuSans-20" transform="translate(442.044922 0)"/>
      <use xlink:href="#DejaVuSans-48" transform="translate(473.832031 0)"/>
      <use xlink:href="#DejaVuSans-45" transform="translate(549.027344 0)"/>
      <use xlink:href="#DejaVuSans-4f" transform="translate(612.210938 0)"/>
      <use xlink:href="#DejaVuSans-53" transform="translate(690.921875 0)"/>
     </g>
    </g>
    <g id="line2d_36">
     <path d="M 287.585 73.646094 
L 298.585 73.646094 
L 309.585 73.646094 
" style="fill: none; stroke: #bf00bf; stroke-width: 3; stroke-linecap: square"/>
    </g>
    <g id="text_19">
     <!-- CoolProp SRK EOS -->
     <g transform="translate(318.385 77.496094) scale(0.11 -0.11)">
      <defs>
       <path id="DejaVuSans-52" d="M 2841 2188 
Q 3044 2119 3236 1894 
Q 3428 1669 3622 1275 
L 4263 0 
L 3584 0 
L 2988 1197 
Q 2756 1666 2539 1819 
Q 2322 1972 1947 1972 
L 1259 1972 
L 1259 0 
L 628 0 
L 628 4666 
L 2053 4666 
Q 2853 4666 3247 4331 
Q 3641 3997 3641 3322 
Q 3641 2881 3436 2590 
Q 3231 2300 2841 2188 
z
M 1259 4147 
L 1259 2491 
L 2053 2491 
Q 2509 2491 2742 2702 
Q 2975 2913 2975 3322 
Q 2975 3731 2742 3939 
Q 2509 4147 2053 4147 
L 1259 4147 
z
" transform="scale(0.015625)"/>
      </defs>
      <use xlink:href="#DejaVuSans-43"/>
      <use xlink:href="#DejaVuSans-6f" transform="translate(69.824219 0)"/>
      <use xlink:href="#DejaVuSans-6f" transform="translate(131.005859 0)"/>
      <use xlink:href="#DejaVuSans-6c" transform="translate(192.1875 0)"/>
      <use xlink:href="#DejaVuSans-50" transform="translate(219.970703 0)"/>
      <use xlink:href="#DejaVuSans-72" transform="translate(278.523438 0)"/>
      <use xlink:href="#DejaVuSans-6f" transform="translate(317.386719 0)"/>
      <use xlink:href="#DejaVuSans-70" transform="translate(378.568359 0)"/>
      <use xlink:href="#DejaVuSans-20" transform="translate(442.044922 0)"/>
      <use xlink:href="#DejaVuSans-53" transform="translate(473.832031 0)"/>
      <use xlink:href="#DejaVuSans-52" transform="translate(537.308594 0)"/>
      <use xlink:href="#DejaVuSans-4b" transform="translate(606.791016 0)"/>
      <use xlink:href="#DejaVuSans-20" transform="translate(672.367188 0)"/>
      <use xlink:href="#DejaVuSans-45" transform="translate(704.154297 0)"/>
      <use xlink:href="#DejaVuSans-4f" transform="translate(767.337891 0)"/>
      <use xlink:href="#DejaVuSans-53" transform="translate(846.048828 0)"/>
     </g>
    </g>
    <g id="line2d_37">
     <path d="M 287.585 89.792031 
L 298.585 89.792031 
L 309.585 89.792031 
" style="fill: none; stroke: #bfbf00; stroke-width: 3; stroke-linecap: square"/>
    </g>
    <g id="text_20">
     <!-- CoolProp PR EOS -->
     <g transform="translate(318.385 93.642031) scale(0.11 -0.11)">
      <use xlink:href="#DejaVuSans-43"/>
      <use xlink:href="#DejaVuSans-6f" transform="translate(69.824219 0)"/>
      <use xlink:href="#DejaVuSans-6f" transform="translate(131.005859 0)"/>
      <use xlink:href="#DejaVuSans-6c" transform="translate(192.1875 0)"/>
      <use xlink:href="#DejaVuSans-50" transform="translate(219.970703 0)"/>
      <use xlink:href="#DejaVuSans-72" transform="translate(278.523438 0)"/>
      <use xlink:href="#DejaVuSans-6f" transform="translate(317.386719 0)"/>
      <use xlink:href="#DejaVuSans-70" transform="translate(378.568359 0)"/>
      <use xlink:href="#DejaVuSans-20" transform="translate(442.044922 0)"/>
      <use xlink:href="#DejaVuSans-50" transform="translate(473.832031 0)"/>
      <use xlink:href="#DejaVuSans-52" transform="translate(534.134766 0)"/>
      <use xlink:href="#DejaVuSans-20" transform="translate(603.617188 0)"/>
      <use xlink:href="#DejaVuSans-45" transform="translate(635.404297 0)"/>
      <use xlink:href="#DejaVuSans-4f" transform="translate(698.587891 0)"/>
      <use xlink:href="#DejaVuSans-53" transform="translate(777.298828 0)"/>
     </g>
    </g>
    <g id="line2d_38">
     <g>
      <use xlink:href="#m814b08455a" x="298.585" y="105.937969" style="fill: #a52a2a; stroke: #a52a2a"/>
     </g>
    </g>
    <g id="text_21">
     <!-- NIST Reference -->
     <g transform="translate(318.385 109.787969) scale(0.11 -0.11)">
      <defs>
       <path id="DejaVuSans-4e" d="M 628 4666 
L 1478 4666 
L 3547 763 
L 3547 4666 
L 4159 4666 
L 4159 0 
L 3309 0 
L 1241 3903 
L 1241 0 
L 628 0 
L 628 4666 
z
" transform="scale(0.015625)"/>
       <path id="DejaVuSans-54" d="M -19 4666 
L 3928 4666 
L 3928 4134 
L 2272 4134 
L 2272 0 
L 1638 0 
L 1638 4134 
L -19 4134 
L -19 4666 
z
" transform="scale(0.015625)"/>
       <path id="DejaVuSans-63" d="M 3122 3366 
L 3122 2828 
Q 2878 2963 2633 3030 
Q 2388 3097 2138 3097 
Q 1578 3097 1268 2742 
Q 959 2388 959 1747 
Q 959 1106 1268 751 
Q 1578 397 2138 397 
Q 2388 397 2633 464 
Q 2878 531 3122 666 
L 3122 134 
Q 2881 22 2623 -34 
Q 2366 -91 2075 -91 
Q 1284 -91 818 406 
Q 353 903 353 1747 
Q 353 2603 823 3093 
Q 1294 3584 2113 3584 
Q 2378 3584 2631 3529 
Q 2884 3475 3122 3366 
z
" transform="scale(0.015625)"/>
      </defs>
      <use xlink:href="#DejaVuSans-4e"/>
      <use xlink:href="#DejaVuSans-49" transform="translate(74.804688 0)"/>
      <use xlink:href="#DejaVuSans-53" transform="translate(104.296875 0)"/>
      <use xlink:href="#DejaVuSans-54" transform="translate(167.773438 0)"/>
      <use xlink:href="#DejaVuSans-20" transform="translate(228.857422 0)"/>
      <use xlink:href="#DejaVuSans-52" transform="translate(260.644531 0)"/>
      <use xlink:href="#DejaVuSans-65" transform="translate(325.626953 0)"/>
      <use xlink:href="#DejaVuSans-66" transform="translate(387.150391 0)"/>
      <use xlink:href="#DejaVuSans-65" transform="translate(422.355469 0)"/>
      <use xlink:href="#DejaVuSans-72" transform="translate(483.878906 0)"/>
      <use xlink:href="#DejaVuSans-65" transform="translate(522.742188 0)"/>
      <use xlink:href="#DejaVuSans-6e" transform="translate(584.265625 0)"/>
      <use xlink:href="#DejaVuSans-63" transform="translate(647.644531 0)"/>
      <use xlink:href="#DejaVuSans-65" transform="translate(702.625 0)"/>
     </g>
    </g>
   </g>
  </g>
 </g>
 <defs>
  <clipPath id="p9cd9797947">
   <rect x="48.476" y="10.8" width="401.524" height="292.84"/>
  </clipPath>
 </defs>
</svg>
