<?xml version="1.0" encoding="utf-8" standalone="no"?>
<!DOCTYPE svg PUBLIC "-//W3C//DTD SVG 1.1//EN"
  "http://www.w3.org/Graphics/SVG/1.1/DTD/svg11.dtd">
<svg xmlns:xlink="http://www.w3.org/1999/xlink" width="460.8pt" height="345.6pt" viewBox="0 0 460.8 345.6" xmlns="http://www.w3.org/2000/svg" version="1.1">
 <metadata>
  <rdf:RDF xmlns:dc="http://purl.org/dc/elements/1.1/" xmlns:cc="http://creativecommons.org/ns#" xmlns:rdf="http://www.w3.org/1999/02/22-rdf-syntax-ns#">
   <cc:Work>
    <dc:type rdf:resource="http://purl.org/dc/dcmitype/StillImage"/>
    <dc:date>2025-05-16T17:38:29.138661</dc:date>
    <dc:format>image/svg+xml</dc:format>
    <dc:creator>
     <cc:Agent>
      <dc:title>Matplotlib v3.10.0, https://matplotlib.org/</dc:title>
     </cc:Agent>
    </dc:creator>
   </cc:Work>
  </rdf:RDF>
 </metadata>
 <defs>
  <style type="text/css">*{stroke-linejoin: round; stroke-linecap: butt}</style>
 </defs>
 <g id="figure_1">
  <g id="patch_1">
   <path d="M 0 345.6 
L 460.8 345.6 
L 460.8 0 
L 0 0 
z
" style="fill: #ffffff"/>
  </g>
  <g id="axes_1">
   <g id="patch_2">
    <path d="M 50.69 303.64 
L 450 303.64 
L 450 10.8 
L 50.69 10.8 
z
" style="fill: #ffffff"/>
   </g>
   <g id="matplotlib.axis_1">
    <g id="xtick_1">
     <g id="line2d_1">
      <path d="M 61.432106 303.64 
L 61.432106 10.8 
" clip-path="url(#p2ef6510a88)" style="fill: none; stroke: #b0b0b0; stroke-width: 0.8; stroke-linecap: square"/>
     </g>
     <g id="line2d_2">
      <defs>
       <path id="m4e09aa8131" d="M 0 0 
L 0 3.5 
" style="stroke: #000000; stroke-width: 0.8"/>
      </defs>
      <g>
       <use xlink:href="#m4e09aa8131" x="61.432106" y="303.64" style="stroke: #000000; stroke-width: 0.8"/>
      </g>
     </g>
     <g id="text_1">
      <!-- 0 -->
      <g transform="translate(58.250856 318.238437) scale(0.1 -0.1)">
       <defs>
        <path id="DejaVuSans-30" d="M 2034 4250 
Q 1547 4250 1301 3770 
Q 1056 3291 1056 2328 
Q 1056 1369 1301 889 
Q 1547 409 2034 409 
Q 2525 409 2770 889 
Q 3016 1369 3016 2328 
Q 3016 3291 2770 3770 
Q 2525 4250 2034 4250 
z
M 2034 4750 
Q 2819 4750 3233 4129 
Q 3647 3509 3647 2328 
Q 3647 1150 3233 529 
Q 2819 -91 2034 -91 
Q 1250 -91 836 529 
Q 422 1150 422 2328 
Q 422 3509 836 4129 
Q 1250 4750 2034 4750 
z
" transform="scale(0.015625)"/>
       </defs>
       <use xlink:href="#DejaVuSans-30"/>
      </g>
     </g>
    </g>
    <g id="xtick_2">
     <g id="line2d_3">
      <path d="M 107.734286 303.64 
L 107.734286 10.8 
" clip-path="url(#p2ef6510a88)" style="fill: none; stroke: #b0b0b0; stroke-width: 0.8; stroke-linecap: square"/>
     </g>
     <g id="line2d_4">
      <g>
       <use xlink:href="#m4e09aa8131" x="107.734286" y="303.64" style="stroke: #000000; stroke-width: 0.8"/>
      </g>
     </g>
     <g id="text_2">
      <!-- 250 -->
      <g transform="translate(98.190536 318.238437) scale(0.1 -0.1)">
       <defs>
        <path id="DejaVuSans-32" d="M 1228 531 
L 3431 531 
L 3431 0 
L 469 0 
L 469 531 
Q 828 903 1448 1529 
Q 2069 2156 2228 2338 
Q 2531 2678 2651 2914 
Q 2772 3150 2772 3378 
Q 2772 3750 2511 3984 
Q 2250 4219 1831 4219 
Q 1534 4219 1204 4116 
Q 875 4013 500 3803 
L 500 4441 
Q 881 4594 1212 4672 
Q 1544 4750 1819 4750 
Q 2544 4750 2975 4387 
Q 3406 4025 3406 3419 
Q 3406 3131 3298 2873 
Q 3191 2616 2906 2266 
Q 2828 2175 2409 1742 
Q 1991 1309 1228 531 
z
" transform="scale(0.015625)"/>
        <path id="DejaVuSans-35" d="M 691 4666 
L 3169 4666 
L 3169 4134 
L 1269 4134 
L 1269 2991 
Q 1406 3038 1543 3061 
Q 1681 3084 1819 3084 
Q 2600 3084 3056 2656 
Q 3513 2228 3513 1497 
Q 3513 744 3044 326 
Q 2575 -91 1722 -91 
Q 1428 -91 1123 -41 
Q 819 9 494 109 
L 494 744 
Q 775 591 1075 516 
Q 1375 441 1709 441 
Q 2250 441 2565 725 
Q 2881 1009 2881 1497 
Q 2881 1984 2565 2268 
Q 2250 2553 1709 2553 
Q 1456 2553 1204 2497 
Q 953 2441 691 2322 
L 691 4666 
z
" transform="scale(0.015625)"/>
       </defs>
       <use xlink:href="#DejaVuSans-32"/>
       <use xlink:href="#DejaVuSans-35" transform="translate(63.623047 0)"/>
       <use xlink:href="#DejaVuSans-30" transform="translate(127.246094 0)"/>
      </g>
     </g>
    </g>
    <g id="xtick_3">
     <g id="line2d_5">
      <path d="M 154.036466 303.64 
L 154.036466 10.8 
" clip-path="url(#p2ef6510a88)" style="fill: none; stroke: #b0b0b0; stroke-width: 0.8; stroke-linecap: square"/>
     </g>
     <g id="line2d_6">
      <g>
       <use xlink:href="#m4e09aa8131" x="154.036466" y="303.64" style="stroke: #000000; stroke-width: 0.8"/>
      </g>
     </g>
     <g id="text_3">
      <!-- 500 -->
      <g transform="translate(144.492716 318.238437) scale(0.1 -0.1)">
       <use xlink:href="#DejaVuSans-35"/>
       <use xlink:href="#DejaVuSans-30" transform="translate(63.623047 0)"/>
       <use xlink:href="#DejaVuSans-30" transform="translate(127.246094 0)"/>
      </g>
     </g>
    </g>
    <g id="xtick_4">
     <g id="line2d_7">
      <path d="M 200.338646 303.64 
L 200.338646 10.8 
" clip-path="url(#p2ef6510a88)" style="fill: none; stroke: #b0b0b0; stroke-width: 0.8; stroke-linecap: square"/>
     </g>
     <g id="line2d_8">
      <g>
       <use xlink:href="#m4e09aa8131" x="200.338646" y="303.64" style="stroke: #000000; stroke-width: 0.8"/>
      </g>
     </g>
     <g id="text_4">
      <!-- 750 -->
      <g transform="translate(190.794896 318.238437) scale(0.1 -0.1)">
       <defs>
        <path id="DejaVuSans-37" d="M 525 4666 
L 3525 4666 
L 3525 4397 
L 1831 0 
L 1172 0 
L 2766 4134 
L 525 4134 
L 525 4666 
z
" transform="scale(0.015625)"/>
       </defs>
       <use xlink:href="#DejaVuSans-37"/>
       <use xlink:href="#DejaVuSans-35" transform="translate(63.623047 0)"/>
       <use xlink:href="#DejaVuSans-30" transform="translate(127.246094 0)"/>
      </g>
     </g>
    </g>
    <g id="xtick_5">
     <g id="line2d_9">
      <path d="M 246.640826 303.64 
L 246.640826 10.8 
" clip-path="url(#p2ef6510a88)" style="fill: none; stroke: #b0b0b0; stroke-width: 0.8; stroke-linecap: square"/>
     </g>
     <g id="line2d_10">
      <g>
       <use xlink:href="#m4e09aa8131" x="246.640826" y="303.64" style="stroke: #000000; stroke-width: 0.8"/>
      </g>
     </g>
     <g id="text_5">
      <!-- 1000 -->
      <g transform="translate(233.915826 318.238437) scale(0.1 -0.1)">
       <defs>
        <path id="DejaVuSans-31" d="M 794 531 
L 1825 531 
L 1825 4091 
L 703 3866 
L 703 4441 
L 1819 4666 
L 2450 4666 
L 2450 531 
L 3481 531 
L 3481 0 
L 794 0 
L 794 531 
z
" transform="scale(0.015625)"/>
       </defs>
       <use xlink:href="#DejaVuSans-31"/>
       <use xlink:href="#DejaVuSans-30" transform="translate(63.623047 0)"/>
       <use xlink:href="#DejaVuSans-30" transform="translate(127.246094 0)"/>
       <use xlink:href="#DejaVuSans-30" transform="translate(190.869141 0)"/>
      </g>
     </g>
    </g>
    <g id="xtick_6">
     <g id="line2d_11">
      <path d="M 292.943006 303.64 
L 292.943006 10.8 
" clip-path="url(#p2ef6510a88)" style="fill: none; stroke: #b0b0b0; stroke-width: 0.8; stroke-linecap: square"/>
     </g>
     <g id="line2d_12">
      <g>
       <use xlink:href="#m4e09aa8131" x="292.943006" y="303.64" style="stroke: #000000; stroke-width: 0.8"/>
      </g>
     </g>
     <g id="text_6">
      <!-- 1250 -->
      <g transform="translate(280.218006 318.238437) scale(0.1 -0.1)">
       <use xlink:href="#DejaVuSans-31"/>
       <use xlink:href="#DejaVuSans-32" transform="translate(63.623047 0)"/>
       <use xlink:href="#DejaVuSans-35" transform="translate(127.246094 0)"/>
       <use xlink:href="#DejaVuSans-30" transform="translate(190.869141 0)"/>
      </g>
     </g>
    </g>
    <g id="xtick_7">
     <g id="line2d_13">
      <path d="M 339.245186 303.64 
L 339.245186 10.8 
" clip-path="url(#p2ef6510a88)" style="fill: none; stroke: #b0b0b0; stroke-width: 0.8; stroke-linecap: square"/>
     </g>
     <g id="line2d_14">
      <g>
       <use xlink:href="#m4e09aa8131" x="339.245186" y="303.64" style="stroke: #000000; stroke-width: 0.8"/>
      </g>
     </g>
     <g id="text_7">
      <!-- 1500 -->
      <g transform="translate(326.520186 318.238437) scale(0.1 -0.1)">
       <use xlink:href="#DejaVuSans-31"/>
       <use xlink:href="#DejaVuSans-35" transform="translate(63.623047 0)"/>
       <use xlink:href="#DejaVuSans-30" transform="translate(127.246094 0)"/>
       <use xlink:href="#DejaVuSans-30" transform="translate(190.869141 0)"/>
      </g>
     </g>
    </g>
    <g id="xtick_8">
     <g id="line2d_15">
      <path d="M 385.547365 303.64 
L 385.547365 10.8 
" clip-path="url(#p2ef6510a88)" style="fill: none; stroke: #b0b0b0; stroke-width: 0.8; stroke-linecap: square"/>
     </g>
     <g id="line2d_16">
      <g>
       <use xlink:href="#m4e09aa8131" x="385.547365" y="303.64" style="stroke: #000000; stroke-width: 0.8"/>
      </g>
     </g>
     <g id="text_8">
      <!-- 1750 -->
      <g transform="translate(372.822365 318.238437) scale(0.1 -0.1)">
       <use xlink:href="#DejaVuSans-31"/>
       <use xlink:href="#DejaVuSans-37" transform="translate(63.623047 0)"/>
       <use xlink:href="#DejaVuSans-35" transform="translate(127.246094 0)"/>
       <use xlink:href="#DejaVuSans-30" transform="translate(190.869141 0)"/>
      </g>
     </g>
    </g>
    <g id="xtick_9">
     <g id="line2d_17">
      <path d="M 431.849545 303.64 
L 431.849545 10.8 
" clip-path="url(#p2ef6510a88)" style="fill: none; stroke: #b0b0b0; stroke-width: 0.8; stroke-linecap: square"/>
     </g>
     <g id="line2d_18">
      <g>
       <use xlink:href="#m4e09aa8131" x="431.849545" y="303.64" style="stroke: #000000; stroke-width: 0.8"/>
      </g>
     </g>
     <g id="text_9">
      <!-- 2000 -->
      <g transform="translate(419.124545 318.238437) scale(0.1 -0.1)">
       <use xlink:href="#DejaVuSans-32"/>
       <use xlink:href="#DejaVuSans-30" transform="translate(63.623047 0)"/>
       <use xlink:href="#DejaVuSans-30" transform="translate(127.246094 0)"/>
       <use xlink:href="#DejaVuSans-30" transform="translate(190.869141 0)"/>
      </g>
     </g>
    </g>
    <g id="text_10">
     <!-- Temperature [K] -->
     <g transform="translate(209.905937 331.916562) scale(0.1 -0.1)">
      <defs>
       <path id="DejaVuSans-54" d="M -19 4666 
L 3928 4666 
L 3928 4134 
L 2272 4134 
L 2272 0 
L 1638 0 
L 1638 4134 
L -19 4134 
L -19 4666 
z
" transform="scale(0.015625)"/>
       <path id="DejaVuSans-65" d="M 3597 1894 
L 3597 1613 
L 953 1613 
Q 991 1019 1311 708 
Q 1631 397 2203 397 
Q 2534 397 2845 478 
Q 3156 559 3463 722 
L 3463 178 
Q 3153 47 2828 -22 
Q 2503 -91 2169 -91 
Q 1331 -91 842 396 
Q 353 884 353 1716 
Q 353 2575 817 3079 
Q 1281 3584 2069 3584 
Q 2775 3584 3186 3129 
Q 3597 2675 3597 1894 
z
M 3022 2063 
Q 3016 2534 2758 2815 
Q 2500 3097 2075 3097 
Q 1594 3097 1305 2825 
Q 1016 2553 972 2059 
L 3022 2063 
z
" transform="scale(0.015625)"/>
       <path id="DejaVuSans-6d" d="M 3328 2828 
Q 3544 3216 3844 3400 
Q 4144 3584 4550 3584 
Q 5097 3584 5394 3201 
Q 5691 2819 5691 2113 
L 5691 0 
L 5113 0 
L 5113 2094 
Q 5113 2597 4934 2840 
Q 4756 3084 4391 3084 
Q 3944 3084 3684 2787 
Q 3425 2491 3425 1978 
L 3425 0 
L 2847 0 
L 2847 2094 
Q 2847 2600 2669 2842 
Q 2491 3084 2119 3084 
Q 1678 3084 1418 2786 
Q 1159 2488 1159 1978 
L 1159 0 
L 581 0 
L 581 3500 
L 1159 3500 
L 1159 2956 
Q 1356 3278 1631 3431 
Q 1906 3584 2284 3584 
Q 2666 3584 2933 3390 
Q 3200 3197 3328 2828 
z
" transform="scale(0.015625)"/>
       <path id="DejaVuSans-70" d="M 1159 525 
L 1159 -1331 
L 581 -1331 
L 581 3500 
L 1159 3500 
L 1159 2969 
Q 1341 3281 1617 3432 
Q 1894 3584 2278 3584 
Q 2916 3584 3314 3078 
Q 3713 2572 3713 1747 
Q 3713 922 3314 415 
Q 2916 -91 2278 -91 
Q 1894 -91 1617 61 
Q 1341 213 1159 525 
z
M 3116 1747 
Q 3116 2381 2855 2742 
Q 2594 3103 2138 3103 
Q 1681 3103 1420 2742 
Q 1159 2381 1159 1747 
Q 1159 1113 1420 752 
Q 1681 391 2138 391 
Q 2594 391 2855 752 
Q 3116 1113 3116 1747 
z
" transform="scale(0.015625)"/>
       <path id="DejaVuSans-72" d="M 2631 2963 
Q 2534 3019 2420 3045 
Q 2306 3072 2169 3072 
Q 1681 3072 1420 2755 
Q 1159 2438 1159 1844 
L 1159 0 
L 581 0 
L 581 3500 
L 1159 3500 
L 1159 2956 
Q 1341 3275 1631 3429 
Q 1922 3584 2338 3584 
Q 2397 3584 2469 3576 
Q 2541 3569 2628 3553 
L 2631 2963 
z
" transform="scale(0.015625)"/>
       <path id="DejaVuSans-61" d="M 2194 1759 
Q 1497 1759 1228 1600 
Q 959 1441 959 1056 
Q 959 750 1161 570 
Q 1363 391 1709 391 
Q 2188 391 2477 730 
Q 2766 1069 2766 1631 
L 2766 1759 
L 2194 1759 
z
M 3341 1997 
L 3341 0 
L 2766 0 
L 2766 531 
Q 2569 213 2275 61 
Q 1981 -91 1556 -91 
Q 1019 -91 701 211 
Q 384 513 384 1019 
Q 384 1609 779 1909 
Q 1175 2209 1959 2209 
L 2766 2209 
L 2766 2266 
Q 2766 2663 2505 2880 
Q 2244 3097 1772 3097 
Q 1472 3097 1187 3025 
Q 903 2953 641 2809 
L 641 3341 
Q 956 3463 1253 3523 
Q 1550 3584 1831 3584 
Q 2591 3584 2966 3190 
Q 3341 2797 3341 1997 
z
" transform="scale(0.015625)"/>
       <path id="DejaVuSans-74" d="M 1172 4494 
L 1172 3500 
L 2356 3500 
L 2356 3053 
L 1172 3053 
L 1172 1153 
Q 1172 725 1289 603 
Q 1406 481 1766 481 
L 2356 481 
L 2356 0 
L 1766 0 
Q 1100 0 847 248 
Q 594 497 594 1153 
L 594 3053 
L 172 3053 
L 172 3500 
L 594 3500 
L 594 4494 
L 1172 4494 
z
" transform="scale(0.015625)"/>
       <path id="DejaVuSans-75" d="M 544 1381 
L 544 3500 
L 1119 3500 
L 1119 1403 
Q 1119 906 1312 657 
Q 1506 409 1894 409 
Q 2359 409 2629 706 
Q 2900 1003 2900 1516 
L 2900 3500 
L 3475 3500 
L 3475 0 
L 2900 0 
L 2900 538 
Q 2691 219 2414 64 
Q 2138 -91 1772 -91 
Q 1169 -91 856 284 
Q 544 659 544 1381 
z
M 1991 3584 
L 1991 3584 
z
" transform="scale(0.015625)"/>
       <path id="DejaVuSans-20" transform="scale(0.015625)"/>
       <path id="DejaVuSans-5b" d="M 550 4863 
L 1875 4863 
L 1875 4416 
L 1125 4416 
L 1125 -397 
L 1875 -397 
L 1875 -844 
L 550 -844 
L 550 4863 
z
" transform="scale(0.015625)"/>
       <path id="DejaVuSans-4b" d="M 628 4666 
L 1259 4666 
L 1259 2694 
L 3353 4666 
L 4166 4666 
L 1850 2491 
L 4331 0 
L 3500 0 
L 1259 2247 
L 1259 0 
L 628 0 
L 628 4666 
z
" transform="scale(0.015625)"/>
       <path id="DejaVuSans-5d" d="M 1947 4863 
L 1947 -844 
L 622 -844 
L 622 -397 
L 1369 -397 
L 1369 4416 
L 622 4416 
L 622 4863 
L 1947 4863 
z
" transform="scale(0.015625)"/>
      </defs>
      <use xlink:href="#DejaVuSans-54"/>
      <use xlink:href="#DejaVuSans-65" transform="translate(44.083984 0)"/>
      <use xlink:href="#DejaVuSans-6d" transform="translate(105.607422 0)"/>
      <use xlink:href="#DejaVuSans-70" transform="translate(203.019531 0)"/>
      <use xlink:href="#DejaVuSans-65" transform="translate(266.496094 0)"/>
      <use xlink:href="#DejaVuSans-72" transform="translate(328.019531 0)"/>
      <use xlink:href="#DejaVuSans-61" transform="translate(369.132812 0)"/>
      <use xlink:href="#DejaVuSans-74" transform="translate(430.412109 0)"/>
      <use xlink:href="#DejaVuSans-75" transform="translate(469.621094 0)"/>
      <use xlink:href="#DejaVuSans-72" transform="translate(533 0)"/>
      <use xlink:href="#DejaVuSans-65" transform="translate(571.863281 0)"/>
      <use xlink:href="#DejaVuSans-20" transform="translate(633.386719 0)"/>
      <use xlink:href="#DejaVuSans-5b" transform="translate(665.173828 0)"/>
      <use xlink:href="#DejaVuSans-4b" transform="translate(704.1875 0)"/>
      <use xlink:href="#DejaVuSans-5d" transform="translate(769.763672 0)"/>
     </g>
    </g>
   </g>
   <g id="matplotlib.axis_2">
    <g id="ytick_1">
     <g id="line2d_19">
      <path d="M 50.69 275.452912 
L 450 275.452912 
" clip-path="url(#p2ef6510a88)" style="fill: none; stroke: #b0b0b0; stroke-width: 0.8; stroke-linecap: square"/>
     </g>
     <g id="line2d_20">
      <defs>
       <path id="m03acf6d355" d="M 0 0 
L -3.5 0 
" style="stroke: #000000; stroke-width: 0.8"/>
      </defs>
      <g>
       <use xlink:href="#m03acf6d355" x="50.69" y="275.452912" style="stroke: #000000; stroke-width: 0.8"/>
      </g>
     </g>
     <g id="text_11">
      <!-- 0.4 -->
      <g transform="translate(27.786875 279.25213) scale(0.1 -0.1)">
       <defs>
        <path id="DejaVuSans-2e" d="M 684 794 
L 1344 794 
L 1344 0 
L 684 0 
L 684 794 
z
" transform="scale(0.015625)"/>
        <path id="DejaVuSans-34" d="M 2419 4116 
L 825 1625 
L 2419 1625 
L 2419 4116 
z
M 2253 4666 
L 3047 4666 
L 3047 1625 
L 3713 1625 
L 3713 1100 
L 3047 1100 
L 3047 0 
L 2419 0 
L 2419 1100 
L 313 1100 
L 313 1709 
L 2253 4666 
z
" transform="scale(0.015625)"/>
       </defs>
       <use xlink:href="#DejaVuSans-30"/>
       <use xlink:href="#DejaVuSans-2e" transform="translate(63.623047 0)"/>
       <use xlink:href="#DejaVuSans-34" transform="translate(95.410156 0)"/>
      </g>
     </g>
    </g>
    <g id="ytick_2">
     <g id="line2d_21">
      <path d="M 50.69 237.258032 
L 450 237.258032 
" clip-path="url(#p2ef6510a88)" style="fill: none; stroke: #b0b0b0; stroke-width: 0.8; stroke-linecap: square"/>
     </g>
     <g id="line2d_22">
      <g>
       <use xlink:href="#m03acf6d355" x="50.69" y="237.258032" style="stroke: #000000; stroke-width: 0.8"/>
      </g>
     </g>
     <g id="text_12">
      <!-- 0.6 -->
      <g transform="translate(27.786875 241.057251) scale(0.1 -0.1)">
       <defs>
        <path id="DejaVuSans-36" d="M 2113 2584 
Q 1688 2584 1439 2293 
Q 1191 2003 1191 1497 
Q 1191 994 1439 701 
Q 1688 409 2113 409 
Q 2538 409 2786 701 
Q 3034 994 3034 1497 
Q 3034 2003 2786 2293 
Q 2538 2584 2113 2584 
z
M 3366 4563 
L 3366 3988 
Q 3128 4100 2886 4159 
Q 2644 4219 2406 4219 
Q 1781 4219 1451 3797 
Q 1122 3375 1075 2522 
Q 1259 2794 1537 2939 
Q 1816 3084 2150 3084 
Q 2853 3084 3261 2657 
Q 3669 2231 3669 1497 
Q 3669 778 3244 343 
Q 2819 -91 2113 -91 
Q 1303 -91 875 529 
Q 447 1150 447 2328 
Q 447 3434 972 4092 
Q 1497 4750 2381 4750 
Q 2619 4750 2861 4703 
Q 3103 4656 3366 4563 
z
" transform="scale(0.015625)"/>
       </defs>
       <use xlink:href="#DejaVuSans-30"/>
       <use xlink:href="#DejaVuSans-2e" transform="translate(63.623047 0)"/>
       <use xlink:href="#DejaVuSans-36" transform="translate(95.410156 0)"/>
      </g>
     </g>
    </g>
    <g id="ytick_3">
     <g id="line2d_23">
      <path d="M 50.69 199.063152 
L 450 199.063152 
" clip-path="url(#p2ef6510a88)" style="fill: none; stroke: #b0b0b0; stroke-width: 0.8; stroke-linecap: square"/>
     </g>
     <g id="line2d_24">
      <g>
       <use xlink:href="#m03acf6d355" x="50.69" y="199.063152" style="stroke: #000000; stroke-width: 0.8"/>
      </g>
     </g>
     <g id="text_13">
      <!-- 0.8 -->
      <g transform="translate(27.786875 202.862371) scale(0.1 -0.1)">
       <defs>
        <path id="DejaVuSans-38" d="M 2034 2216 
Q 1584 2216 1326 1975 
Q 1069 1734 1069 1313 
Q 1069 891 1326 650 
Q 1584 409 2034 409 
Q 2484 409 2743 651 
Q 3003 894 3003 1313 
Q 3003 1734 2745 1975 
Q 2488 2216 2034 2216 
z
M 1403 2484 
Q 997 2584 770 2862 
Q 544 3141 544 3541 
Q 544 4100 942 4425 
Q 1341 4750 2034 4750 
Q 2731 4750 3128 4425 
Q 3525 4100 3525 3541 
Q 3525 3141 3298 2862 
Q 3072 2584 2669 2484 
Q 3125 2378 3379 2068 
Q 3634 1759 3634 1313 
Q 3634 634 3220 271 
Q 2806 -91 2034 -91 
Q 1263 -91 848 271 
Q 434 634 434 1313 
Q 434 1759 690 2068 
Q 947 2378 1403 2484 
z
M 1172 3481 
Q 1172 3119 1398 2916 
Q 1625 2713 2034 2713 
Q 2441 2713 2670 2916 
Q 2900 3119 2900 3481 
Q 2900 3844 2670 4047 
Q 2441 4250 2034 4250 
Q 1625 4250 1398 4047 
Q 1172 3844 1172 3481 
z
" transform="scale(0.015625)"/>
       </defs>
       <use xlink:href="#DejaVuSans-30"/>
       <use xlink:href="#DejaVuSans-2e" transform="translate(63.623047 0)"/>
       <use xlink:href="#DejaVuSans-38" transform="translate(95.410156 0)"/>
      </g>
     </g>
    </g>
    <g id="ytick_4">
     <g id="line2d_25">
      <path d="M 50.69 160.868273 
L 450 160.868273 
" clip-path="url(#p2ef6510a88)" style="fill: none; stroke: #b0b0b0; stroke-width: 0.8; stroke-linecap: square"/>
     </g>
     <g id="line2d_26">
      <g>
       <use xlink:href="#m03acf6d355" x="50.69" y="160.868273" style="stroke: #000000; stroke-width: 0.8"/>
      </g>
     </g>
     <g id="text_14">
      <!-- 1.0 -->
      <g transform="translate(27.786875 164.667491) scale(0.1 -0.1)">
       <use xlink:href="#DejaVuSans-31"/>
       <use xlink:href="#DejaVuSans-2e" transform="translate(63.623047 0)"/>
       <use xlink:href="#DejaVuSans-30" transform="translate(95.410156 0)"/>
      </g>
     </g>
    </g>
    <g id="ytick_5">
     <g id="line2d_27">
      <path d="M 50.69 122.673393 
L 450 122.673393 
" clip-path="url(#p2ef6510a88)" style="fill: none; stroke: #b0b0b0; stroke-width: 0.8; stroke-linecap: square"/>
     </g>
     <g id="line2d_28">
      <g>
       <use xlink:href="#m03acf6d355" x="50.69" y="122.673393" style="stroke: #000000; stroke-width: 0.8"/>
      </g>
     </g>
     <g id="text_15">
      <!-- 1.2 -->
      <g transform="translate(27.786875 126.472612) scale(0.1 -0.1)">
       <use xlink:href="#DejaVuSans-31"/>
       <use xlink:href="#DejaVuSans-2e" transform="translate(63.623047 0)"/>
       <use xlink:href="#DejaVuSans-32" transform="translate(95.410156 0)"/>
      </g>
     </g>
    </g>
    <g id="ytick_6">
     <g id="line2d_29">
      <path d="M 50.69 84.478513 
L 450 84.478513 
" clip-path="url(#p2ef6510a88)" style="fill: none; stroke: #b0b0b0; stroke-width: 0.8; stroke-linecap: square"/>
     </g>
     <g id="line2d_30">
      <g>
       <use xlink:href="#m03acf6d355" x="50.69" y="84.478513" style="stroke: #000000; stroke-width: 0.8"/>
      </g>
     </g>
     <g id="text_16">
      <!-- 1.4 -->
      <g transform="translate(27.786875 88.277732) scale(0.1 -0.1)">
       <use xlink:href="#DejaVuSans-31"/>
       <use xlink:href="#DejaVuSans-2e" transform="translate(63.623047 0)"/>
       <use xlink:href="#DejaVuSans-34" transform="translate(95.410156 0)"/>
      </g>
     </g>
    </g>
    <g id="ytick_7">
     <g id="line2d_31">
      <path d="M 50.69 46.283633 
L 450 46.283633 
" clip-path="url(#p2ef6510a88)" style="fill: none; stroke: #b0b0b0; stroke-width: 0.8; stroke-linecap: square"/>
     </g>
     <g id="line2d_32">
      <g>
       <use xlink:href="#m03acf6d355" x="50.69" y="46.283633" style="stroke: #000000; stroke-width: 0.8"/>
      </g>
     </g>
     <g id="text_17">
      <!-- 1.6 -->
      <g transform="translate(27.786875 50.082852) scale(0.1 -0.1)">
       <use xlink:href="#DejaVuSans-31"/>
       <use xlink:href="#DejaVuSans-2e" transform="translate(63.623047 0)"/>
       <use xlink:href="#DejaVuSans-36" transform="translate(95.410156 0)"/>
      </g>
     </g>
    </g>
    <g id="text_18">
     <!-- $C_v$ [kJ/kgK] -->
     <g transform="translate(21.686875 183.82) rotate(-90) scale(0.1 -0.1)">
      <defs>
       <path id="DejaVuSans-Oblique-43" d="M 4447 4306 
L 4319 3641 
Q 4019 3944 3683 4091 
Q 3347 4238 2956 4238 
Q 2422 4238 2017 3981 
Q 1613 3725 1319 3200 
Q 1131 2863 1032 2486 
Q 934 2109 934 1728 
Q 934 1091 1264 756 
Q 1594 422 2222 422 
Q 2656 422 3056 561 
Q 3456 700 3834 978 
L 3688 231 
Q 3316 72 2936 -9 
Q 2556 -91 2175 -91 
Q 1278 -91 773 396 
Q 269 884 269 1753 
Q 269 2309 461 2846 
Q 653 3384 1013 3828 
Q 1394 4300 1883 4525 
Q 2372 4750 3022 4750 
Q 3422 4750 3780 4639 
Q 4138 4528 4447 4306 
z
" transform="scale(0.015625)"/>
       <path id="DejaVuSans-Oblique-76" d="M 459 3500 
L 1069 3500 
L 1581 525 
L 3256 3500 
L 3866 3500 
L 1875 0 
L 1100 0 
L 459 3500 
z
" transform="scale(0.015625)"/>
       <path id="DejaVuSans-6b" d="M 581 4863 
L 1159 4863 
L 1159 1991 
L 2875 3500 
L 3609 3500 
L 1753 1863 
L 3688 0 
L 2938 0 
L 1159 1709 
L 1159 0 
L 581 0 
L 581 4863 
z
" transform="scale(0.015625)"/>
       <path id="DejaVuSans-4a" d="M 628 4666 
L 1259 4666 
L 1259 325 
Q 1259 -519 939 -900 
Q 619 -1281 -91 -1281 
L -331 -1281 
L -331 -750 
L -134 -750 
Q 284 -750 456 -515 
Q 628 -281 628 325 
L 628 4666 
z
" transform="scale(0.015625)"/>
       <path id="DejaVuSans-2f" d="M 1625 4666 
L 2156 4666 
L 531 -594 
L 0 -594 
L 1625 4666 
z
" transform="scale(0.015625)"/>
       <path id="DejaVuSans-67" d="M 2906 1791 
Q 2906 2416 2648 2759 
Q 2391 3103 1925 3103 
Q 1463 3103 1205 2759 
Q 947 2416 947 1791 
Q 947 1169 1205 825 
Q 1463 481 1925 481 
Q 2391 481 2648 825 
Q 2906 1169 2906 1791 
z
M 3481 434 
Q 3481 -459 3084 -895 
Q 2688 -1331 1869 -1331 
Q 1566 -1331 1297 -1286 
Q 1028 -1241 775 -1147 
L 775 -588 
Q 1028 -725 1275 -790 
Q 1522 -856 1778 -856 
Q 2344 -856 2625 -561 
Q 2906 -266 2906 331 
L 2906 616 
Q 2728 306 2450 153 
Q 2172 0 1784 0 
Q 1141 0 747 490 
Q 353 981 353 1791 
Q 353 2603 747 3093 
Q 1141 3584 1784 3584 
Q 2172 3584 2450 3431 
Q 2728 3278 2906 2969 
L 2906 3500 
L 3481 3500 
L 3481 434 
z
" transform="scale(0.015625)"/>
      </defs>
      <use xlink:href="#DejaVuSans-Oblique-43" transform="translate(0 0.015625)"/>
      <use xlink:href="#DejaVuSans-Oblique-76" transform="translate(69.824219 -16.390625) scale(0.7)"/>
      <use xlink:href="#DejaVuSans-20" transform="translate(113.984375 0.015625)"/>
      <use xlink:href="#DejaVuSans-5b" transform="translate(145.771484 0.015625)"/>
      <use xlink:href="#DejaVuSans-6b" transform="translate(184.785156 0.015625)"/>
      <use xlink:href="#DejaVuSans-4a" transform="translate(242.695312 0.015625)"/>
      <use xlink:href="#DejaVuSans-2f" transform="translate(272.1875 0.015625)"/>
      <use xlink:href="#DejaVuSans-6b" transform="translate(305.878906 0.015625)"/>
      <use xlink:href="#DejaVuSans-67" transform="translate(363.789062 0.015625)"/>
      <use xlink:href="#DejaVuSans-4b" transform="translate(427.265625 0.015625)"/>
      <use xlink:href="#DejaVuSans-5d" transform="translate(492.841797 0.015625)"/>
     </g>
    </g>
   </g>
   <g id="line2d_33">
    <path d="M 68.840455 290.329091 
L 74.396716 281.427653 
L 79.952978 272.955592 
L 85.509239 264.898821 
L 91.065501 257.243352 
L 96.621763 249.975297 
L 102.178024 243.080872 
L 107.734286 236.546391 
L 113.290547 230.358269 
L 118.846809 224.503023 
L 124.403071 218.96727 
L 129.959332 213.737728 
L 135.515594 208.801217 
L 141.071855 204.144654 
L 146.628117 199.755062 
L 152.184378 195.61956 
L 157.74064 191.725371 
L 163.296902 188.059818 
L 168.853163 184.610324 
L 174.409425 181.364414 
L 181.817774 177.331844 
L 189.226122 173.610158 
L 196.634471 170.17062 
L 204.04282 166.984812 
L 211.451169 164.024636 
L 220.711605 160.599419 
L 229.972041 157.42981 
L 241.084564 153.889423 
L 248.492913 151.711012 
L 259.605436 148.909622 
L 270.717959 146.331348 
L 281.830482 143.961423 
L 294.795093 141.44088 
L 307.759703 139.162875 
L 320.724314 137.106696 
L 335.541011 135.003134 
L 350.357709 133.135681 
L 365.174406 131.478128 
L 381.843191 129.833793 
L 400.364063 128.242644 
L 420.737022 126.732559 
L 431.849545 125.998095 
L 431.849545 125.998095 
" clip-path="url(#p2ef6510a88)" style="fill: none; stroke: #0000ff; stroke-width: 3; stroke-linecap: square"/>
   </g>
   <g id="line2d_34">
    <path d="M 68.840455 24.110909 
L 70.692542 82.100504 
L 72.544629 119.57911 
L 74.396716 145.499374 
L 76.248803 164.298303 
L 78.100891 178.389055 
L 79.952978 189.17453 
L 81.805065 197.518226 
L 83.657152 203.983424 
L 85.509239 208.960742 
L 87.361327 212.737482 
L 89.213414 215.535588 
L 91.065501 217.532622 
L 92.917588 218.873686 
L 94.769675 219.67862 
L 96.621763 220.046758 
L 98.47385 220.060398 
L 100.325937 219.787561 
L 102.178024 219.284294 
L 104.030111 218.596632 
L 107.734286 216.812078 
L 111.43846 214.660017 
L 116.994722 211.057113 
L 141.071855 194.857179 
L 148.480204 190.254144 
L 155.888553 185.895423 
L 163.296902 181.779367 
L 170.70525 177.899371 
L 178.113599 174.247218 
L 185.521948 170.814185 
L 192.930297 167.591278 
L 200.338646 164.569221 
L 209.599082 161.059477 
L 218.859518 157.829302 
L 228.119954 154.859064 
L 237.38039 152.129154 
L 246.640826 149.620366 
L 255.901262 147.314225 
L 267.013785 144.789781 
L 278.126308 142.50391 
L 289.238831 140.431043 
L 302.203442 138.251327 
L 315.168052 136.297919 
L 329.98475 134.306596 
L 344.801447 132.538089 
L 361.470232 130.777006 
L 379.991104 129.061707 
L 400.364063 127.421523 
L 422.589109 125.877138 
L 431.849545 125.298327 
L 431.849545 125.298327 
" clip-path="url(#p2ef6510a88)" style="fill: none; stroke: #bf00bf; stroke-width: 3; stroke-linecap: square"/>
   </g>
   <g id="line2d_35">
    <path d="M 68.840455 75.240784 
L 70.692542 121.525589 
L 72.544629 150.717121 
L 74.396716 170.697617 
L 76.248803 185.126757 
L 78.100891 195.917625 
L 79.952978 204.151979 
L 81.805065 210.482527 
L 83.657152 215.330497 
L 85.509239 218.988269 
L 87.361327 221.673569 
L 89.213414 223.557996 
L 91.065501 224.781962 
L 92.917588 225.462683 
L 94.769675 225.698732 
L 96.621763 225.572997 
L 98.47385 225.154889 
L 100.325937 224.50222 
L 102.178024 223.662855 
L 105.882199 221.574612 
L 109.586373 219.127126 
L 115.142635 215.11072 
L 131.811419 202.767984 
L 139.219768 197.609982 
L 146.628117 192.736847 
L 154.036466 188.149525 
L 161.444814 183.837492 
L 168.853163 179.787249 
L 176.261512 175.985379 
L 183.669861 172.419293 
L 191.07821 169.077134 
L 198.486558 165.947488 
L 205.894907 163.019156 
L 215.155343 159.624927 
L 224.415779 156.506387 
L 233.676215 153.642372 
L 242.936651 151.012316 
L 252.197087 148.59652 
L 263.30961 145.954246 
L 274.422134 143.56389 
L 285.534657 141.398285 
L 298.499267 139.123325 
L 311.463878 137.086732 
L 324.428488 135.258605 
L 339.245186 133.391537 
L 355.91397 131.535325 
L 372.582755 129.900019 
L 391.103627 128.302662 
L 411.476586 126.770615 
L 431.849545 125.436175 
L 431.849545 125.436175 
" clip-path="url(#p2ef6510a88)" style="fill: none; stroke: #bfbf00; stroke-width: 3; stroke-linecap: square"/>
   </g>
   <g id="line2d_36">
    <path d="M 102.178024 140.56943 
L 104.030111 154.753294 
L 105.882199 164.548189 
L 107.734286 171.24326 
L 109.586373 175.675932 
L 111.43846 178.369066 
L 113.290547 179.593856 
L 115.142635 179.345151 
L 116.994722 177.101491 
L 118.846809 170.632964 
L 120.698896 159.145894 
L 124.403071 177.930286 
L 126.255158 183.82367 
L 128.107245 187.627743 
L 129.959332 190.110306 
L 131.811419 191.705931 
L 133.663506 192.678821 
L 135.515594 193.199761 
L 137.367681 193.384522 
L 139.219768 193.314538 
L 141.071855 193.048806 
L 142.923942 192.631104 
L 146.628117 191.464728 
L 150.332291 190.000626 
L 155.888553 187.486493 
L 165.148989 182.949538 
L 178.113599 176.615907 
L 187.374035 172.359452 
L 194.782384 169.167495 
L 202.190733 166.174644 
L 209.599082 163.378688 
L 218.859518 160.148032 
L 228.119954 157.189658 
L 237.38039 154.477307 
L 246.640826 151.98366 
L 257.753349 149.242363 
L 268.865872 146.73426 
L 281.830482 144.051664 
L 296.64718 141.244755 
L 311.463878 138.658626 
L 328.132662 135.96756 
L 339.245186 134.282811 
L 339.245186 134.282811 
" clip-path="url(#p2ef6510a88)" style="fill: none; stroke: #000000; stroke-width: 3; stroke-linecap: square"/>
   </g>
   <g id="line2d_37">
    <path d="M 102.178024 164.545769 
L 104.030111 167.289595 
L 105.882199 169.715385 
L 107.734286 171.794671 
L 109.586373 173.459094 
L 111.43846 174.567051 
L 113.290547 174.969757 
L 115.142635 174.194079 
L 116.994722 170.760234 
L 118.846809 162.029249 
L 120.698896 150.439 
L 122.550983 166.87091 
L 124.403071 178.758821 
L 126.255158 185.029794 
L 128.107245 188.619272 
L 129.959332 190.823866 
L 131.811419 192.187733 
L 133.663506 192.987222 
L 135.515594 193.385534 
L 137.367681 193.487838 
L 139.219768 193.365975 
L 141.071855 193.071201 
L 144.77603 192.104965 
L 148.480204 190.796458 
L 154.036466 188.456085 
L 161.444814 184.988919 
L 183.669861 174.380356 
L 192.930297 170.270849 
L 202.190733 166.424574 
L 211.451169 162.850629 
L 220.711605 159.544577 
L 229.972041 156.494779 
L 239.232477 153.685893 
L 248.492913 151.100922 
L 257.753349 148.722452 
L 268.865872 146.116863 
L 279.978395 143.756074 
L 291.090918 141.614247 
L 304.055529 139.361052 
L 317.020139 137.340972 
L 331.836837 135.280859 
L 346.653534 133.450512 
L 363.322319 131.627081 
L 381.843191 129.850229 
L 400.364063 128.295034 
L 420.737022 126.799411 
L 431.849545 126.065533 
L 431.849545 126.065533 
" clip-path="url(#p2ef6510a88)" style="fill: none; stroke: #008000; stroke-width: 3; stroke-linecap: square"/>
   </g>
   <g id="line2d_38">
    <defs>
     <path id="m5cb532fbbf" d="M 0 3 
C 0.795609 3 1.55874 2.683901 2.12132 2.12132 
C 2.683901 1.55874 3 0.795609 3 0 
C 3 -0.795609 2.683901 -1.55874 2.12132 -2.12132 
C 1.55874 -2.683901 0.795609 -3 0 -3 
C -0.795609 -3 -1.55874 -2.683901 -2.12132 -2.12132 
C -2.683901 -1.55874 -3 -0.795609 -3 0 
C -3 0.795609 -2.683901 1.55874 -2.12132 2.12132 
C -1.55874 2.683901 -0.795609 3 0 3 
z
" style="stroke: #a52a2a"/>
    </defs>
    <g clip-path="url(#p2ef6510a88)">
     <use xlink:href="#m5cb532fbbf" x="101.546462" y="163.541914" style="fill: #a52a2a; stroke: #a52a2a"/>
     <use xlink:href="#m5cb532fbbf" x="109.586373" y="173.459215" style="fill: #a52a2a; stroke: #a52a2a"/>
     <use xlink:href="#m5cb532fbbf" x="116.994722" y="170.760746" style="fill: #a52a2a; stroke: #a52a2a"/>
     <use xlink:href="#m5cb532fbbf" x="120.698896" y="150.44107" style="fill: #a52a2a; stroke: #a52a2a"/>
     <use xlink:href="#m5cb532fbbf" x="124.403071" y="178.758754" style="fill: #a52a2a; stroke: #a52a2a"/>
     <use xlink:href="#m5cb532fbbf" x="137.367681" y="193.488609" style="fill: #a52a2a; stroke: #a52a2a"/>
     <use xlink:href="#m5cb532fbbf" x="174.409425" y="178.71865" style="fill: #a52a2a; stroke: #a52a2a"/>
     <use xlink:href="#m5cb532fbbf" x="211.451169" y="162.850587" style="fill: #a52a2a; stroke: #a52a2a"/>
     <use xlink:href="#m5cb532fbbf" x="248.492913" y="151.109481" style="fill: #a52a2a; stroke: #a52a2a"/>
     <use xlink:href="#m5cb532fbbf" x="285.534657" y="142.668412" style="fill: #a52a2a; stroke: #a52a2a"/>
     <use xlink:href="#m5cb532fbbf" x="322.576401" y="136.538134" style="fill: #a52a2a; stroke: #a52a2a"/>
     <use xlink:href="#m5cb532fbbf" x="359.618145" y="132.012041" style="fill: #a52a2a; stroke: #a52a2a"/>
     <use xlink:href="#m5cb532fbbf" x="396.659889" y="128.593599" style="fill: #a52a2a; stroke: #a52a2a"/>
     <use xlink:href="#m5cb532fbbf" x="431.849545" y="126.072737" style="fill: #a52a2a; stroke: #a52a2a"/>
    </g>
   </g>
   <g id="patch_3">
    <path d="M 50.69 303.64 
L 50.69 10.8 
" style="fill: none; stroke: #000000; stroke-width: 0.8; stroke-linejoin: miter; stroke-linecap: square"/>
   </g>
   <g id="patch_4">
    <path d="M 450 303.64 
L 450 10.8 
" style="fill: none; stroke: #000000; stroke-width: 0.8; stroke-linejoin: miter; stroke-linecap: square"/>
   </g>
   <g id="patch_5">
    <path d="M 50.69 303.64 
L 450 303.64 
" style="fill: none; stroke: #000000; stroke-width: 0.8; stroke-linejoin: miter; stroke-linecap: square"/>
   </g>
   <g id="patch_6">
    <path d="M 50.69 10.8 
L 450 10.8 
" style="fill: none; stroke: #000000; stroke-width: 0.8; stroke-linejoin: miter; stroke-linecap: square"/>
   </g>
   <g id="legend_1">
    <g id="line2d_39">
     <path d="M 287.585 25.208281 
L 298.585 25.208281 
L 309.585 25.208281 
" style="fill: none; stroke: #0000ff; stroke-width: 3; stroke-linecap: square"/>
    </g>
    <g id="text_19">
     <!-- GRI Mech -->
     <g transform="translate(318.385 29.058281) scale(0.11 -0.11)">
      <defs>
       <path id="DejaVuSans-47" d="M 3809 666 
L 3809 1919 
L 2778 1919 
L 2778 2438 
L 4434 2438 
L 4434 434 
Q 4069 175 3628 42 
Q 3188 -91 2688 -91 
Q 1594 -91 976 548 
Q 359 1188 359 2328 
Q 359 3472 976 4111 
Q 1594 4750 2688 4750 
Q 3144 4750 3555 4637 
Q 3966 4525 4313 4306 
L 4313 3634 
Q 3963 3931 3569 4081 
Q 3175 4231 2741 4231 
Q 1884 4231 1454 3753 
Q 1025 3275 1025 2328 
Q 1025 1384 1454 906 
Q 1884 428 2741 428 
Q 3075 428 3337 486 
Q 3600 544 3809 666 
z
" transform="scale(0.015625)"/>
       <path id="DejaVuSans-52" d="M 2841 2188 
Q 3044 2119 3236 1894 
Q 3428 1669 3622 1275 
L 4263 0 
L 3584 0 
L 2988 1197 
Q 2756 1666 2539 1819 
Q 2322 1972 1947 1972 
L 1259 1972 
L 1259 0 
L 628 0 
L 628 4666 
L 2053 4666 
Q 2853 4666 3247 4331 
Q 3641 3997 3641 3322 
Q 3641 2881 3436 2590 
Q 3231 2300 2841 2188 
z
M 1259 4147 
L 1259 2491 
L 2053 2491 
Q 2509 2491 2742 2702 
Q 2975 2913 2975 3322 
Q 2975 3731 2742 3939 
Q 2509 4147 2053 4147 
L 1259 4147 
z
" transform="scale(0.015625)"/>
       <path id="DejaVuSans-49" d="M 628 4666 
L 1259 4666 
L 1259 0 
L 628 0 
L 628 4666 
z
" transform="scale(0.015625)"/>
       <path id="DejaVuSans-4d" d="M 628 4666 
L 1569 4666 
L 2759 1491 
L 3956 4666 
L 4897 4666 
L 4897 0 
L 4281 0 
L 4281 4097 
L 3078 897 
L 2444 897 
L 1241 4097 
L 1241 0 
L 628 0 
L 628 4666 
z
" transform="scale(0.015625)"/>
       <path id="DejaVuSans-63" d="M 3122 3366 
L 3122 2828 
Q 2878 2963 2633 3030 
Q 2388 3097 2138 3097 
Q 1578 3097 1268 2742 
Q 959 2388 959 1747 
Q 959 1106 1268 751 
Q 1578 397 2138 397 
Q 2388 397 2633 464 
Q 2878 531 3122 666 
L 3122 134 
Q 2881 22 2623 -34 
Q 2366 -91 2075 -91 
Q 1284 -91 818 406 
Q 353 903 353 1747 
Q 353 2603 823 3093 
Q 1294 3584 2113 3584 
Q 2378 3584 2631 3529 
Q 2884 3475 3122 3366 
z
" transform="scale(0.015625)"/>
       <path id="DejaVuSans-68" d="M 3513 2113 
L 3513 0 
L 2938 0 
L 2938 2094 
Q 2938 2591 2744 2837 
Q 2550 3084 2163 3084 
Q 1697 3084 1428 2787 
Q 1159 2491 1159 1978 
L 1159 0 
L 581 0 
L 581 4863 
L 1159 4863 
L 1159 2956 
Q 1366 3272 1645 3428 
Q 1925 3584 2291 3584 
Q 2894 3584 3203 3211 
Q 3513 2838 3513 2113 
z
" transform="scale(0.015625)"/>
      </defs>
      <use xlink:href="#DejaVuSans-47"/>
      <use xlink:href="#DejaVuSans-52" transform="translate(77.490234 0)"/>
      <use xlink:href="#DejaVuSans-49" transform="translate(146.972656 0)"/>
      <use xlink:href="#DejaVuSans-20" transform="translate(176.464844 0)"/>
      <use xlink:href="#DejaVuSans-4d" transform="translate(208.251953 0)"/>
      <use xlink:href="#DejaVuSans-65" transform="translate(294.53125 0)"/>
      <use xlink:href="#DejaVuSans-63" transform="translate(356.054688 0)"/>
      <use xlink:href="#DejaVuSans-68" transform="translate(411.035156 0)"/>
     </g>
    </g>
    <g id="line2d_40">
     <path d="M 287.585 41.354219 
L 298.585 41.354219 
L 309.585 41.354219 
" style="fill: none; stroke: #bf00bf; stroke-width: 3; stroke-linecap: square"/>
    </g>
    <g id="text_20">
     <!-- CoolProp SRK EOS -->
     <g transform="translate(318.385 45.204219) scale(0.11 -0.11)">
      <defs>
       <path id="DejaVuSans-43" d="M 4122 4306 
L 4122 3641 
Q 3803 3938 3442 4084 
Q 3081 4231 2675 4231 
Q 1875 4231 1450 3742 
Q 1025 3253 1025 2328 
Q 1025 1406 1450 917 
Q 1875 428 2675 428 
Q 3081 428 3442 575 
Q 3803 722 4122 1019 
L 4122 359 
Q 3791 134 3420 21 
Q 3050 -91 2638 -91 
Q 1578 -91 968 557 
Q 359 1206 359 2328 
Q 359 3453 968 4101 
Q 1578 4750 2638 4750 
Q 3056 4750 3426 4639 
Q 3797 4528 4122 4306 
z
" transform="scale(0.015625)"/>
       <path id="DejaVuSans-6f" d="M 1959 3097 
Q 1497 3097 1228 2736 
Q 959 2375 959 1747 
Q 959 1119 1226 758 
Q 1494 397 1959 397 
Q 2419 397 2687 759 
Q 2956 1122 2956 1747 
Q 2956 2369 2687 2733 
Q 2419 3097 1959 3097 
z
M 1959 3584 
Q 2709 3584 3137 3096 
Q 3566 2609 3566 1747 
Q 3566 888 3137 398 
Q 2709 -91 1959 -91 
Q 1206 -91 779 398 
Q 353 888 353 1747 
Q 353 2609 779 3096 
Q 1206 3584 1959 3584 
z
" transform="scale(0.015625)"/>
       <path id="DejaVuSans-6c" d="M 603 4863 
L 1178 4863 
L 1178 0 
L 603 0 
L 603 4863 
z
" transform="scale(0.015625)"/>
       <path id="DejaVuSans-50" d="M 1259 4147 
L 1259 2394 
L 2053 2394 
Q 2494 2394 2734 2622 
Q 2975 2850 2975 3272 
Q 2975 3691 2734 3919 
Q 2494 4147 2053 4147 
L 1259 4147 
z
M 628 4666 
L 2053 4666 
Q 2838 4666 3239 4311 
Q 3641 3956 3641 3272 
Q 3641 2581 3239 2228 
Q 2838 1875 2053 1875 
L 1259 1875 
L 1259 0 
L 628 0 
L 628 4666 
z
" transform="scale(0.015625)"/>
       <path id="DejaVuSans-53" d="M 3425 4513 
L 3425 3897 
Q 3066 4069 2747 4153 
Q 2428 4238 2131 4238 
Q 1616 4238 1336 4038 
Q 1056 3838 1056 3469 
Q 1056 3159 1242 3001 
Q 1428 2844 1947 2747 
L 2328 2669 
Q 3034 2534 3370 2195 
Q 3706 1856 3706 1288 
Q 3706 609 3251 259 
Q 2797 -91 1919 -91 
Q 1588 -91 1214 -16 
Q 841 59 441 206 
L 441 856 
Q 825 641 1194 531 
Q 1563 422 1919 422 
Q 2459 422 2753 634 
Q 3047 847 3047 1241 
Q 3047 1584 2836 1778 
Q 2625 1972 2144 2069 
L 1759 2144 
Q 1053 2284 737 2584 
Q 422 2884 422 3419 
Q 422 4038 858 4394 
Q 1294 4750 2059 4750 
Q 2388 4750 2728 4690 
Q 3069 4631 3425 4513 
z
" transform="scale(0.015625)"/>
       <path id="DejaVuSans-45" d="M 628 4666 
L 3578 4666 
L 3578 4134 
L 1259 4134 
L 1259 2753 
L 3481 2753 
L 3481 2222 
L 1259 2222 
L 1259 531 
L 3634 531 
L 3634 0 
L 628 0 
L 628 4666 
z
" transform="scale(0.015625)"/>
       <path id="DejaVuSans-4f" d="M 2522 4238 
Q 1834 4238 1429 3725 
Q 1025 3213 1025 2328 
Q 1025 1447 1429 934 
Q 1834 422 2522 422 
Q 3209 422 3611 934 
Q 4013 1447 4013 2328 
Q 4013 3213 3611 3725 
Q 3209 4238 2522 4238 
z
M 2522 4750 
Q 3503 4750 4090 4092 
Q 4678 3434 4678 2328 
Q 4678 1225 4090 567 
Q 3503 -91 2522 -91 
Q 1538 -91 948 565 
Q 359 1222 359 2328 
Q 359 3434 948 4092 
Q 1538 4750 2522 4750 
z
" transform="scale(0.015625)"/>
      </defs>
      <use xlink:href="#DejaVuSans-43"/>
      <use xlink:href="#DejaVuSans-6f" transform="translate(69.824219 0)"/>
      <use xlink:href="#DejaVuSans-6f" transform="translate(131.005859 0)"/>
      <use xlink:href="#DejaVuSans-6c" transform="translate(192.1875 0)"/>
      <use xlink:href="#DejaVuSans-50" transform="translate(219.970703 0)"/>
      <use xlink:href="#DejaVuSans-72" transform="translate(278.523438 0)"/>
      <use xlink:href="#DejaVuSans-6f" transform="translate(317.386719 0)"/>
      <use xlink:href="#DejaVuSans-70" transform="translate(378.568359 0)"/>
      <use xlink:href="#DejaVuSans-20" transform="translate(442.044922 0)"/>
      <use xlink:href="#DejaVuSans-53" transform="translate(473.832031 0)"/>
      <use xlink:href="#DejaVuSans-52" transform="translate(537.308594 0)"/>
      <use xlink:href="#DejaVuSans-4b" transform="translate(606.791016 0)"/>
      <use xlink:href="#DejaVuSans-20" transform="translate(672.367188 0)"/>
      <use xlink:href="#DejaVuSans-45" transform="translate(704.154297 0)"/>
      <use xlink:href="#DejaVuSans-4f" transform="translate(767.337891 0)"/>
      <use xlink:href="#DejaVuSans-53" transform="translate(846.048828 0)"/>
     </g>
    </g>
    <g id="line2d_41">
     <path d="M 287.585 57.500156 
L 298.585 57.500156 
L 309.585 57.500156 
" style="fill: none; stroke: #bfbf00; stroke-width: 3; stroke-linecap: square"/>
    </g>
    <g id="text_21">
     <!-- CoolProp PR EOS -->
     <g transform="translate(318.385 61.350156) scale(0.11 -0.11)">
      <use xlink:href="#DejaVuSans-43"/>
      <use xlink:href="#DejaVuSans-6f" transform="translate(69.824219 0)"/>
      <use xlink:href="#DejaVuSans-6f" transform="translate(131.005859 0)"/>
      <use xlink:href="#DejaVuSans-6c" transform="translate(192.1875 0)"/>
      <use xlink:href="#DejaVuSans-50" transform="translate(219.970703 0)"/>
      <use xlink:href="#DejaVuSans-72" transform="translate(278.523438 0)"/>
      <use xlink:href="#DejaVuSans-6f" transform="translate(317.386719 0)"/>
      <use xlink:href="#DejaVuSans-70" transform="translate(378.568359 0)"/>
      <use xlink:href="#DejaVuSans-20" transform="translate(442.044922 0)"/>
      <use xlink:href="#DejaVuSans-50" transform="translate(473.832031 0)"/>
      <use xlink:href="#DejaVuSans-52" transform="translate(534.134766 0)"/>
      <use xlink:href="#DejaVuSans-20" transform="translate(603.617188 0)"/>
      <use xlink:href="#DejaVuSans-45" transform="translate(635.404297 0)"/>
      <use xlink:href="#DejaVuSans-4f" transform="translate(698.587891 0)"/>
      <use xlink:href="#DejaVuSans-53" transform="translate(777.298828 0)"/>
     </g>
    </g>
    <g id="line2d_42">
     <path d="M 287.585 73.646094 
L 298.585 73.646094 
L 309.585 73.646094 
" style="fill: none; stroke: #000000; stroke-width: 3; stroke-linecap: square"/>
    </g>
    <g id="text_22">
     <!-- Cantera Purefluid EOS -->
     <g transform="translate(318.385 77.496094) scale(0.11 -0.11)">
      <defs>
       <path id="DejaVuSans-6e" d="M 3513 2113 
L 3513 0 
L 2938 0 
L 2938 2094 
Q 2938 2591 2744 2837 
Q 2550 3084 2163 3084 
Q 1697 3084 1428 2787 
Q 1159 2491 1159 1978 
L 1159 0 
L 581 0 
L 581 3500 
L 1159 3500 
L 1159 2956 
Q 1366 3272 1645 3428 
Q 1925 3584 2291 3584 
Q 2894 3584 3203 3211 
Q 3513 2838 3513 2113 
z
" transform="scale(0.015625)"/>
       <path id="DejaVuSans-66" d="M 2375 4863 
L 2375 4384 
L 1825 4384 
Q 1516 4384 1395 4259 
Q 1275 4134 1275 3809 
L 1275 3500 
L 2222 3500 
L 2222 3053 
L 1275 3053 
L 1275 0 
L 697 0 
L 697 3053 
L 147 3053 
L 147 3500 
L 697 3500 
L 697 3744 
Q 697 4328 969 4595 
Q 1241 4863 1831 4863 
L 2375 4863 
z
" transform="scale(0.015625)"/>
       <path id="DejaVuSans-69" d="M 603 3500 
L 1178 3500 
L 1178 0 
L 603 0 
L 603 3500 
z
M 603 4863 
L 1178 4863 
L 1178 4134 
L 603 4134 
L 603 4863 
z
" transform="scale(0.015625)"/>
       <path id="DejaVuSans-64" d="M 2906 2969 
L 2906 4863 
L 3481 4863 
L 3481 0 
L 2906 0 
L 2906 525 
Q 2725 213 2448 61 
Q 2172 -91 1784 -91 
Q 1150 -91 751 415 
Q 353 922 353 1747 
Q 353 2572 751 3078 
Q 1150 3584 1784 3584 
Q 2172 3584 2448 3432 
Q 2725 3281 2906 2969 
z
M 947 1747 
Q 947 1113 1208 752 
Q 1469 391 1925 391 
Q 2381 391 2643 752 
Q 2906 1113 2906 1747 
Q 2906 2381 2643 2742 
Q 2381 3103 1925 3103 
Q 1469 3103 1208 2742 
Q 947 2381 947 1747 
z
" transform="scale(0.015625)"/>
      </defs>
      <use xlink:href="#DejaVuSans-43"/>
      <use xlink:href="#DejaVuSans-61" transform="translate(69.824219 0)"/>
      <use xlink:href="#DejaVuSans-6e" transform="translate(131.103516 0)"/>
      <use xlink:href="#DejaVuSans-74" transform="translate(194.482422 0)"/>
      <use xlink:href="#DejaVuSans-65" transform="translate(233.691406 0)"/>
      <use xlink:href="#DejaVuSans-72" transform="translate(295.214844 0)"/>
      <use xlink:href="#DejaVuSans-61" transform="translate(336.328125 0)"/>
      <use xlink:href="#DejaVuSans-20" transform="translate(397.607422 0)"/>
      <use xlink:href="#DejaVuSans-50" transform="translate(429.394531 0)"/>
      <use xlink:href="#DejaVuSans-75" transform="translate(487.947266 0)"/>
      <use xlink:href="#DejaVuSans-72" transform="translate(551.326172 0)"/>
      <use xlink:href="#DejaVuSans-65" transform="translate(590.189453 0)"/>
      <use xlink:href="#DejaVuSans-66" transform="translate(651.712891 0)"/>
      <use xlink:href="#DejaVuSans-6c" transform="translate(686.917969 0)"/>
      <use xlink:href="#DejaVuSans-75" transform="translate(714.701172 0)"/>
      <use xlink:href="#DejaVuSans-69" transform="translate(778.080078 0)"/>
      <use xlink:href="#DejaVuSans-64" transform="translate(805.863281 0)"/>
      <use xlink:href="#DejaVuSans-20" transform="translate(869.339844 0)"/>
      <use xlink:href="#DejaVuSans-45" transform="translate(901.126953 0)"/>
      <use xlink:href="#DejaVuSans-4f" transform="translate(964.310547 0)"/>
      <use xlink:href="#DejaVuSans-53" transform="translate(1043.021484 0)"/>
     </g>
    </g>
    <g id="line2d_43">
     <path d="M 287.585 89.792031 
L 298.585 89.792031 
L 309.585 89.792031 
" style="fill: none; stroke: #008000; stroke-width: 3; stroke-linecap: square"/>
    </g>
    <g id="text_23">
     <!-- CoolProp HEOS -->
     <g transform="translate(318.385 93.642031) scale(0.11 -0.11)">
      <defs>
       <path id="DejaVuSans-48" d="M 628 4666 
L 1259 4666 
L 1259 2753 
L 3553 2753 
L 3553 4666 
L 4184 4666 
L 4184 0 
L 3553 0 
L 3553 2222 
L 1259 2222 
L 1259 0 
L 628 0 
L 628 4666 
z
" transform="scale(0.015625)"/>
      </defs>
      <use xlink:href="#DejaVuSans-43"/>
      <use xlink:href="#DejaVuSans-6f" transform="translate(69.824219 0)"/>
      <use xlink:href="#DejaVuSans-6f" transform="translate(131.005859 0)"/>
      <use xlink:href="#DejaVuSans-6c" transform="translate(192.1875 0)"/>
      <use xlink:href="#DejaVuSans-50" transform="translate(219.970703 0)"/>
      <use xlink:href="#DejaVuSans-72" transform="translate(278.523438 0)"/>
      <use xlink:href="#DejaVuSans-6f" transform="translate(317.386719 0)"/>
      <use xlink:href="#DejaVuSans-70" transform="translate(378.568359 0)"/>
      <use xlink:href="#DejaVuSans-20" transform="translate(442.044922 0)"/>
      <use xlink:href="#DejaVuSans-48" transform="translate(473.832031 0)"/>
      <use xlink:href="#DejaVuSans-45" transform="translate(549.027344 0)"/>
      <use xlink:href="#DejaVuSans-4f" transform="translate(612.210938 0)"/>
      <use xlink:href="#DejaVuSans-53" transform="translate(690.921875 0)"/>
     </g>
    </g>
    <g id="line2d_44">
     <g>
      <use xlink:href="#m5cb532fbbf" x="298.585" y="105.937969" style="fill: #a52a2a; stroke: #a52a2a"/>
     </g>
    </g>
    <g id="text_24">
     <!-- NIST Reference -->
     <g transform="translate(318.385 109.787969) scale(0.11 -0.11)">
      <defs>
       <path id="DejaVuSans-4e" d="M 628 4666 
L 1478 4666 
L 3547 763 
L 3547 4666 
L 4159 4666 
L 4159 0 
L 3309 0 
L 1241 3903 
L 1241 0 
L 628 0 
L 628 4666 
z
" transform="scale(0.015625)"/>
      </defs>
      <use xlink:href="#DejaVuSans-4e"/>
      <use xlink:href="#DejaVuSans-49" transform="translate(74.804688 0)"/>
      <use xlink:href="#DejaVuSans-53" transform="translate(104.296875 0)"/>
      <use xlink:href="#DejaVuSans-54" transform="translate(167.773438 0)"/>
      <use xlink:href="#DejaVuSans-20" transform="translate(228.857422 0)"/>
      <use xlink:href="#DejaVuSans-52" transform="translate(260.644531 0)"/>
      <use xlink:href="#DejaVuSans-65" transform="translate(325.626953 0)"/>
      <use xlink:href="#DejaVuSans-66" transform="translate(387.150391 0)"/>
      <use xlink:href="#DejaVuSans-65" transform="translate(422.355469 0)"/>
      <use xlink:href="#DejaVuSans-72" transform="translate(483.878906 0)"/>
      <use xlink:href="#DejaVuSans-65" transform="translate(522.742188 0)"/>
      <use xlink:href="#DejaVuSans-6e" transform="translate(584.265625 0)"/>
      <use xlink:href="#DejaVuSans-63" transform="translate(647.644531 0)"/>
      <use xlink:href="#DejaVuSans-65" transform="translate(702.625 0)"/>
     </g>
    </g>
   </g>
  </g>
 </g>
 <defs>
  <clipPath id="p2ef6510a88">
   <rect x="50.69" y="10.8" width="399.31" height="292.84"/>
  </clipPath>
 </defs>
</svg>
