<?xml version="1.0" encoding="utf-8" standalone="no"?>
<!DOCTYPE svg PUBLIC "-//W3C//DTD SVG 1.1//EN"
  "http://www.w3.org/Graphics/SVG/1.1/DTD/svg11.dtd">
<svg xmlns:xlink="http://www.w3.org/1999/xlink" width="460.8pt" height="345.6pt" viewBox="0 0 460.8 345.6" xmlns="http://www.w3.org/2000/svg" version="1.1">
 <metadata>
  <rdf:RDF xmlns:dc="http://purl.org/dc/elements/1.1/" xmlns:cc="http://creativecommons.org/ns#" xmlns:rdf="http://www.w3.org/1999/02/22-rdf-syntax-ns#">
   <cc:Work>
    <dc:type rdf:resource="http://purl.org/dc/dcmitype/StillImage"/>
    <dc:date>2025-05-16T17:18:45.760984</dc:date>
    <dc:format>image/svg+xml</dc:format>
    <dc:creator>
     <cc:Agent>
      <dc:title>Matplotlib v3.10.0, https://matplotlib.org/</dc:title>
     </cc:Agent>
    </dc:creator>
   </cc:Work>
  </rdf:RDF>
 </metadata>
 <defs>
  <style type="text/css">*{stroke-linejoin: round; stroke-linecap: butt}</style>
 </defs>
 <g id="figure_1">
  <g id="patch_1">
   <path d="M 0 345.6 
L 460.8 345.6 
L 460.8 0 
L 0 0 
z
" style="fill: #ffffff"/>
  </g>
  <g id="axes_1">
   <g id="patch_2">
    <path d="M 57.6 307.584 
L 414.72 307.584 
L 414.72 41.472 
L 57.6 41.472 
z
" style="fill: #ffffff"/>
   </g>
   <g id="matplotlib.axis_1">
    <g id="xtick_1">
     <g id="line2d_1">
      <defs>
       <path id="m0f56e73843" d="M 0 0 
L 0 3.5 
" style="stroke: #000000; stroke-width: 0.8"/>
      </defs>
      <g>
       <use xlink:href="#m0f56e73843" x="70.423923" y="307.584" style="stroke: #000000; stroke-width: 0.8"/>
      </g>
     </g>
     <g id="text_1">
      <!-- 0 -->
      <g transform="translate(67.242673 322.182437) scale(0.1 -0.1)">
       <defs>
        <path id="DejaVuSans-30" d="M 2034 4250 
Q 1547 4250 1301 3770 
Q 1056 3291 1056 2328 
Q 1056 1369 1301 889 
Q 1547 409 2034 409 
Q 2525 409 2770 889 
Q 3016 1369 3016 2328 
Q 3016 3291 2770 3770 
Q 2525 4250 2034 4250 
z
M 2034 4750 
Q 2819 4750 3233 4129 
Q 3647 3509 3647 2328 
Q 3647 1150 3233 529 
Q 2819 -91 2034 -91 
Q 1250 -91 836 529 
Q 422 1150 422 2328 
Q 422 3509 836 4129 
Q 1250 4750 2034 4750 
z
" transform="scale(0.015625)"/>
       </defs>
       <use xlink:href="#DejaVuSans-30"/>
      </g>
     </g>
    </g>
    <g id="xtick_2">
     <g id="line2d_2">
      <g>
       <use xlink:href="#m0f56e73843" x="121.398372" y="307.584" style="stroke: #000000; stroke-width: 0.8"/>
      </g>
     </g>
     <g id="text_2">
      <!-- 200 -->
      <g transform="translate(111.854622 322.182437) scale(0.1 -0.1)">
       <defs>
        <path id="DejaVuSans-32" d="M 1228 531 
L 3431 531 
L 3431 0 
L 469 0 
L 469 531 
Q 828 903 1448 1529 
Q 2069 2156 2228 2338 
Q 2531 2678 2651 2914 
Q 2772 3150 2772 3378 
Q 2772 3750 2511 3984 
Q 2250 4219 1831 4219 
Q 1534 4219 1204 4116 
Q 875 4013 500 3803 
L 500 4441 
Q 881 4594 1212 4672 
Q 1544 4750 1819 4750 
Q 2544 4750 2975 4387 
Q 3406 4025 3406 3419 
Q 3406 3131 3298 2873 
Q 3191 2616 2906 2266 
Q 2828 2175 2409 1742 
Q 1991 1309 1228 531 
z
" transform="scale(0.015625)"/>
       </defs>
       <use xlink:href="#DejaVuSans-32"/>
       <use xlink:href="#DejaVuSans-30" transform="translate(63.623047 0)"/>
       <use xlink:href="#DejaVuSans-30" transform="translate(127.246094 0)"/>
      </g>
     </g>
    </g>
    <g id="xtick_3">
     <g id="line2d_3">
      <g>
       <use xlink:href="#m0f56e73843" x="172.372821" y="307.584" style="stroke: #000000; stroke-width: 0.8"/>
      </g>
     </g>
     <g id="text_3">
      <!-- 400 -->
      <g transform="translate(162.829071 322.182437) scale(0.1 -0.1)">
       <defs>
        <path id="DejaVuSans-34" d="M 2419 4116 
L 825 1625 
L 2419 1625 
L 2419 4116 
z
M 2253 4666 
L 3047 4666 
L 3047 1625 
L 3713 1625 
L 3713 1100 
L 3047 1100 
L 3047 0 
L 2419 0 
L 2419 1100 
L 313 1100 
L 313 1709 
L 2253 4666 
z
" transform="scale(0.015625)"/>
       </defs>
       <use xlink:href="#DejaVuSans-34"/>
       <use xlink:href="#DejaVuSans-30" transform="translate(63.623047 0)"/>
       <use xlink:href="#DejaVuSans-30" transform="translate(127.246094 0)"/>
      </g>
     </g>
    </g>
    <g id="xtick_4">
     <g id="line2d_4">
      <g>
       <use xlink:href="#m0f56e73843" x="223.34727" y="307.584" style="stroke: #000000; stroke-width: 0.8"/>
      </g>
     </g>
     <g id="text_4">
      <!-- 600 -->
      <g transform="translate(213.80352 322.182437) scale(0.1 -0.1)">
       <defs>
        <path id="DejaVuSans-36" d="M 2113 2584 
Q 1688 2584 1439 2293 
Q 1191 2003 1191 1497 
Q 1191 994 1439 701 
Q 1688 409 2113 409 
Q 2538 409 2786 701 
Q 3034 994 3034 1497 
Q 3034 2003 2786 2293 
Q 2538 2584 2113 2584 
z
M 3366 4563 
L 3366 3988 
Q 3128 4100 2886 4159 
Q 2644 4219 2406 4219 
Q 1781 4219 1451 3797 
Q 1122 3375 1075 2522 
Q 1259 2794 1537 2939 
Q 1816 3084 2150 3084 
Q 2853 3084 3261 2657 
Q 3669 2231 3669 1497 
Q 3669 778 3244 343 
Q 2819 -91 2113 -91 
Q 1303 -91 875 529 
Q 447 1150 447 2328 
Q 447 3434 972 4092 
Q 1497 4750 2381 4750 
Q 2619 4750 2861 4703 
Q 3103 4656 3366 4563 
z
" transform="scale(0.015625)"/>
       </defs>
       <use xlink:href="#DejaVuSans-36"/>
       <use xlink:href="#DejaVuSans-30" transform="translate(63.623047 0)"/>
       <use xlink:href="#DejaVuSans-30" transform="translate(127.246094 0)"/>
      </g>
     </g>
    </g>
    <g id="xtick_5">
     <g id="line2d_5">
      <g>
       <use xlink:href="#m0f56e73843" x="274.321719" y="307.584" style="stroke: #000000; stroke-width: 0.8"/>
      </g>
     </g>
     <g id="text_5">
      <!-- 800 -->
      <g transform="translate(264.777969 322.182437) scale(0.1 -0.1)">
       <defs>
        <path id="DejaVuSans-38" d="M 2034 2216 
Q 1584 2216 1326 1975 
Q 1069 1734 1069 1313 
Q 1069 891 1326 650 
Q 1584 409 2034 409 
Q 2484 409 2743 651 
Q 3003 894 3003 1313 
Q 3003 1734 2745 1975 
Q 2488 2216 2034 2216 
z
M 1403 2484 
Q 997 2584 770 2862 
Q 544 3141 544 3541 
Q 544 4100 942 4425 
Q 1341 4750 2034 4750 
Q 2731 4750 3128 4425 
Q 3525 4100 3525 3541 
Q 3525 3141 3298 2862 
Q 3072 2584 2669 2484 
Q 3125 2378 3379 2068 
Q 3634 1759 3634 1313 
Q 3634 634 3220 271 
Q 2806 -91 2034 -91 
Q 1263 -91 848 271 
Q 434 634 434 1313 
Q 434 1759 690 2068 
Q 947 2378 1403 2484 
z
M 1172 3481 
Q 1172 3119 1398 2916 
Q 1625 2713 2034 2713 
Q 2441 2713 2670 2916 
Q 2900 3119 2900 3481 
Q 2900 3844 2670 4047 
Q 2441 4250 2034 4250 
Q 1625 4250 1398 4047 
Q 1172 3844 1172 3481 
z
" transform="scale(0.015625)"/>
       </defs>
       <use xlink:href="#DejaVuSans-38"/>
       <use xlink:href="#DejaVuSans-30" transform="translate(63.623047 0)"/>
       <use xlink:href="#DejaVuSans-30" transform="translate(127.246094 0)"/>
      </g>
     </g>
    </g>
    <g id="xtick_6">
     <g id="line2d_6">
      <g>
       <use xlink:href="#m0f56e73843" x="325.296169" y="307.584" style="stroke: #000000; stroke-width: 0.8"/>
      </g>
     </g>
     <g id="text_6">
      <!-- 1000 -->
      <g transform="translate(312.571169 322.182437) scale(0.1 -0.1)">
       <defs>
        <path id="DejaVuSans-31" d="M 794 531 
L 1825 531 
L 1825 4091 
L 703 3866 
L 703 4441 
L 1819 4666 
L 2450 4666 
L 2450 531 
L 3481 531 
L 3481 0 
L 794 0 
L 794 531 
z
" transform="scale(0.015625)"/>
       </defs>
       <use xlink:href="#DejaVuSans-31"/>
       <use xlink:href="#DejaVuSans-30" transform="translate(63.623047 0)"/>
       <use xlink:href="#DejaVuSans-30" transform="translate(127.246094 0)"/>
       <use xlink:href="#DejaVuSans-30" transform="translate(190.869141 0)"/>
      </g>
     </g>
    </g>
    <g id="xtick_7">
     <g id="line2d_7">
      <g>
       <use xlink:href="#m0f56e73843" x="376.270618" y="307.584" style="stroke: #000000; stroke-width: 0.8"/>
      </g>
     </g>
     <g id="text_7">
      <!-- 1200 -->
      <g transform="translate(363.545618 322.182437) scale(0.1 -0.1)">
       <use xlink:href="#DejaVuSans-31"/>
       <use xlink:href="#DejaVuSans-32" transform="translate(63.623047 0)"/>
       <use xlink:href="#DejaVuSans-30" transform="translate(127.246094 0)"/>
       <use xlink:href="#DejaVuSans-30" transform="translate(190.869141 0)"/>
      </g>
     </g>
    </g>
    <g id="text_8">
     <!-- Density [kg/m$^3$] -->
     <g transform="translate(196.61 337.362125) scale(0.1 -0.1)">
      <defs>
       <path id="DejaVuSans-44" d="M 1259 4147 
L 1259 519 
L 2022 519 
Q 2988 519 3436 956 
Q 3884 1394 3884 2338 
Q 3884 3275 3436 3711 
Q 2988 4147 2022 4147 
L 1259 4147 
z
M 628 4666 
L 1925 4666 
Q 3281 4666 3915 4102 
Q 4550 3538 4550 2338 
Q 4550 1131 3912 565 
Q 3275 0 1925 0 
L 628 0 
L 628 4666 
z
" transform="scale(0.015625)"/>
       <path id="DejaVuSans-65" d="M 3597 1894 
L 3597 1613 
L 953 1613 
Q 991 1019 1311 708 
Q 1631 397 2203 397 
Q 2534 397 2845 478 
Q 3156 559 3463 722 
L 3463 178 
Q 3153 47 2828 -22 
Q 2503 -91 2169 -91 
Q 1331 -91 842 396 
Q 353 884 353 1716 
Q 353 2575 817 3079 
Q 1281 3584 2069 3584 
Q 2775 3584 3186 3129 
Q 3597 2675 3597 1894 
z
M 3022 2063 
Q 3016 2534 2758 2815 
Q 2500 3097 2075 3097 
Q 1594 3097 1305 2825 
Q 1016 2553 972 2059 
L 3022 2063 
z
" transform="scale(0.015625)"/>
       <path id="DejaVuSans-6e" d="M 3513 2113 
L 3513 0 
L 2938 0 
L 2938 2094 
Q 2938 2591 2744 2837 
Q 2550 3084 2163 3084 
Q 1697 3084 1428 2787 
Q 1159 2491 1159 1978 
L 1159 0 
L 581 0 
L 581 3500 
L 1159 3500 
L 1159 2956 
Q 1366 3272 1645 3428 
Q 1925 3584 2291 3584 
Q 2894 3584 3203 3211 
Q 3513 2838 3513 2113 
z
" transform="scale(0.015625)"/>
       <path id="DejaVuSans-73" d="M 2834 3397 
L 2834 2853 
Q 2591 2978 2328 3040 
Q 2066 3103 1784 3103 
Q 1356 3103 1142 2972 
Q 928 2841 928 2578 
Q 928 2378 1081 2264 
Q 1234 2150 1697 2047 
L 1894 2003 
Q 2506 1872 2764 1633 
Q 3022 1394 3022 966 
Q 3022 478 2636 193 
Q 2250 -91 1575 -91 
Q 1294 -91 989 -36 
Q 684 19 347 128 
L 347 722 
Q 666 556 975 473 
Q 1284 391 1588 391 
Q 1994 391 2212 530 
Q 2431 669 2431 922 
Q 2431 1156 2273 1281 
Q 2116 1406 1581 1522 
L 1381 1569 
Q 847 1681 609 1914 
Q 372 2147 372 2553 
Q 372 3047 722 3315 
Q 1072 3584 1716 3584 
Q 2034 3584 2315 3537 
Q 2597 3491 2834 3397 
z
" transform="scale(0.015625)"/>
       <path id="DejaVuSans-69" d="M 603 3500 
L 1178 3500 
L 1178 0 
L 603 0 
L 603 3500 
z
M 603 4863 
L 1178 4863 
L 1178 4134 
L 603 4134 
L 603 4863 
z
" transform="scale(0.015625)"/>
       <path id="DejaVuSans-74" d="M 1172 4494 
L 1172 3500 
L 2356 3500 
L 2356 3053 
L 1172 3053 
L 1172 1153 
Q 1172 725 1289 603 
Q 1406 481 1766 481 
L 2356 481 
L 2356 0 
L 1766 0 
Q 1100 0 847 248 
Q 594 497 594 1153 
L 594 3053 
L 172 3053 
L 172 3500 
L 594 3500 
L 594 4494 
L 1172 4494 
z
" transform="scale(0.015625)"/>
       <path id="DejaVuSans-79" d="M 2059 -325 
Q 1816 -950 1584 -1140 
Q 1353 -1331 966 -1331 
L 506 -1331 
L 506 -850 
L 844 -850 
Q 1081 -850 1212 -737 
Q 1344 -625 1503 -206 
L 1606 56 
L 191 3500 
L 800 3500 
L 1894 763 
L 2988 3500 
L 3597 3500 
L 2059 -325 
z
" transform="scale(0.015625)"/>
       <path id="DejaVuSans-20" transform="scale(0.015625)"/>
       <path id="DejaVuSans-5b" d="M 550 4863 
L 1875 4863 
L 1875 4416 
L 1125 4416 
L 1125 -397 
L 1875 -397 
L 1875 -844 
L 550 -844 
L 550 4863 
z
" transform="scale(0.015625)"/>
       <path id="DejaVuSans-6b" d="M 581 4863 
L 1159 4863 
L 1159 1991 
L 2875 3500 
L 3609 3500 
L 1753 1863 
L 3688 0 
L 2938 0 
L 1159 1709 
L 1159 0 
L 581 0 
L 581 4863 
z
" transform="scale(0.015625)"/>
       <path id="DejaVuSans-67" d="M 2906 1791 
Q 2906 2416 2648 2759 
Q 2391 3103 1925 3103 
Q 1463 3103 1205 2759 
Q 947 2416 947 1791 
Q 947 1169 1205 825 
Q 1463 481 1925 481 
Q 2391 481 2648 825 
Q 2906 1169 2906 1791 
z
M 3481 434 
Q 3481 -459 3084 -895 
Q 2688 -1331 1869 -1331 
Q 1566 -1331 1297 -1286 
Q 1028 -1241 775 -1147 
L 775 -588 
Q 1028 -725 1275 -790 
Q 1522 -856 1778 -856 
Q 2344 -856 2625 -561 
Q 2906 -266 2906 331 
L 2906 616 
Q 2728 306 2450 153 
Q 2172 0 1784 0 
Q 1141 0 747 490 
Q 353 981 353 1791 
Q 353 2603 747 3093 
Q 1141 3584 1784 3584 
Q 2172 3584 2450 3431 
Q 2728 3278 2906 2969 
L 2906 3500 
L 3481 3500 
L 3481 434 
z
" transform="scale(0.015625)"/>
       <path id="DejaVuSans-2f" d="M 1625 4666 
L 2156 4666 
L 531 -594 
L 0 -594 
L 1625 4666 
z
" transform="scale(0.015625)"/>
       <path id="DejaVuSans-6d" d="M 3328 2828 
Q 3544 3216 3844 3400 
Q 4144 3584 4550 3584 
Q 5097 3584 5394 3201 
Q 5691 2819 5691 2113 
L 5691 0 
L 5113 0 
L 5113 2094 
Q 5113 2597 4934 2840 
Q 4756 3084 4391 3084 
Q 3944 3084 3684 2787 
Q 3425 2491 3425 1978 
L 3425 0 
L 2847 0 
L 2847 2094 
Q 2847 2600 2669 2842 
Q 2491 3084 2119 3084 
Q 1678 3084 1418 2786 
Q 1159 2488 1159 1978 
L 1159 0 
L 581 0 
L 581 3500 
L 1159 3500 
L 1159 2956 
Q 1356 3278 1631 3431 
Q 1906 3584 2284 3584 
Q 2666 3584 2933 3390 
Q 3200 3197 3328 2828 
z
" transform="scale(0.015625)"/>
       <path id="DejaVuSans-33" d="M 2597 2516 
Q 3050 2419 3304 2112 
Q 3559 1806 3559 1356 
Q 3559 666 3084 287 
Q 2609 -91 1734 -91 
Q 1441 -91 1130 -33 
Q 819 25 488 141 
L 488 750 
Q 750 597 1062 519 
Q 1375 441 1716 441 
Q 2309 441 2620 675 
Q 2931 909 2931 1356 
Q 2931 1769 2642 2001 
Q 2353 2234 1838 2234 
L 1294 2234 
L 1294 2753 
L 1863 2753 
Q 2328 2753 2575 2939 
Q 2822 3125 2822 3475 
Q 2822 3834 2567 4026 
Q 2313 4219 1838 4219 
Q 1578 4219 1281 4162 
Q 984 4106 628 3988 
L 628 4550 
Q 988 4650 1302 4700 
Q 1616 4750 1894 4750 
Q 2613 4750 3031 4423 
Q 3450 4097 3450 3541 
Q 3450 3153 3228 2886 
Q 3006 2619 2597 2516 
z
" transform="scale(0.015625)"/>
       <path id="DejaVuSans-5d" d="M 1947 4863 
L 1947 -844 
L 622 -844 
L 622 -397 
L 1369 -397 
L 1369 4416 
L 622 4416 
L 622 4863 
L 1947 4863 
z
" transform="scale(0.015625)"/>
      </defs>
      <use xlink:href="#DejaVuSans-44" transform="translate(0 0.765625)"/>
      <use xlink:href="#DejaVuSans-65" transform="translate(77.001953 0.765625)"/>
      <use xlink:href="#DejaVuSans-6e" transform="translate(138.525391 0.765625)"/>
      <use xlink:href="#DejaVuSans-73" transform="translate(201.904297 0.765625)"/>
      <use xlink:href="#DejaVuSans-69" transform="translate(254.003906 0.765625)"/>
      <use xlink:href="#DejaVuSans-74" transform="translate(281.787109 0.765625)"/>
      <use xlink:href="#DejaVuSans-79" transform="translate(320.996094 0.765625)"/>
      <use xlink:href="#DejaVuSans-20" transform="translate(380.175781 0.765625)"/>
      <use xlink:href="#DejaVuSans-5b" transform="translate(411.962891 0.765625)"/>
      <use xlink:href="#DejaVuSans-6b" transform="translate(450.976562 0.765625)"/>
      <use xlink:href="#DejaVuSans-67" transform="translate(508.886719 0.765625)"/>
      <use xlink:href="#DejaVuSans-2f" transform="translate(572.363281 0.765625)"/>
      <use xlink:href="#DejaVuSans-6d" transform="translate(606.054688 0.765625)"/>
      <use xlink:href="#DejaVuSans-33" transform="translate(704.423828 39.046875) scale(0.7)"/>
      <use xlink:href="#DejaVuSans-5d" transform="translate(751.694336 0.765625)"/>
     </g>
    </g>
   </g>
   <g id="matplotlib.axis_2">
    <g id="ytick_1">
     <g id="line2d_8">
      <defs>
       <path id="m2963711126" d="M 0 0 
L -3.5 0 
" style="stroke: #000000; stroke-width: 0.8"/>
      </defs>
      <g>
       <use xlink:href="#m2963711126" x="57.6" y="279.466808" style="stroke: #000000; stroke-width: 0.8"/>
      </g>
     </g>
     <g id="text_9">
      <!-- 260 -->
      <g transform="translate(31.5125 283.266027) scale(0.1 -0.1)">
       <use xlink:href="#DejaVuSans-32"/>
       <use xlink:href="#DejaVuSans-36" transform="translate(63.623047 0)"/>
       <use xlink:href="#DejaVuSans-30" transform="translate(127.246094 0)"/>
      </g>
     </g>
    </g>
    <g id="ytick_2">
     <g id="line2d_9">
      <g>
       <use xlink:href="#m2963711126" x="57.6" y="247.424424" style="stroke: #000000; stroke-width: 0.8"/>
      </g>
     </g>
     <g id="text_10">
      <!-- 280 -->
      <g transform="translate(31.5125 251.223643) scale(0.1 -0.1)">
       <use xlink:href="#DejaVuSans-32"/>
       <use xlink:href="#DejaVuSans-38" transform="translate(63.623047 0)"/>
       <use xlink:href="#DejaVuSans-30" transform="translate(127.246094 0)"/>
      </g>
     </g>
    </g>
    <g id="ytick_3">
     <g id="line2d_10">
      <g>
       <use xlink:href="#m2963711126" x="57.6" y="215.38204" style="stroke: #000000; stroke-width: 0.8"/>
      </g>
     </g>
     <g id="text_11">
      <!-- 300 -->
      <g transform="translate(31.5125 219.181258) scale(0.1 -0.1)">
       <use xlink:href="#DejaVuSans-33"/>
       <use xlink:href="#DejaVuSans-30" transform="translate(63.623047 0)"/>
       <use xlink:href="#DejaVuSans-30" transform="translate(127.246094 0)"/>
      </g>
     </g>
    </g>
    <g id="ytick_4">
     <g id="line2d_11">
      <g>
       <use xlink:href="#m2963711126" x="57.6" y="183.339656" style="stroke: #000000; stroke-width: 0.8"/>
      </g>
     </g>
     <g id="text_12">
      <!-- 320 -->
      <g transform="translate(31.5125 187.138874) scale(0.1 -0.1)">
       <use xlink:href="#DejaVuSans-33"/>
       <use xlink:href="#DejaVuSans-32" transform="translate(63.623047 0)"/>
       <use xlink:href="#DejaVuSans-30" transform="translate(127.246094 0)"/>
      </g>
     </g>
    </g>
    <g id="ytick_5">
     <g id="line2d_12">
      <g>
       <use xlink:href="#m2963711126" x="57.6" y="151.297272" style="stroke: #000000; stroke-width: 0.8"/>
      </g>
     </g>
     <g id="text_13">
      <!-- 340 -->
      <g transform="translate(31.5125 155.09649) scale(0.1 -0.1)">
       <use xlink:href="#DejaVuSans-33"/>
       <use xlink:href="#DejaVuSans-34" transform="translate(63.623047 0)"/>
       <use xlink:href="#DejaVuSans-30" transform="translate(127.246094 0)"/>
      </g>
     </g>
    </g>
    <g id="ytick_6">
     <g id="line2d_13">
      <g>
       <use xlink:href="#m2963711126" x="57.6" y="119.254887" style="stroke: #000000; stroke-width: 0.8"/>
      </g>
     </g>
     <g id="text_14">
      <!-- 360 -->
      <g transform="translate(31.5125 123.054106) scale(0.1 -0.1)">
       <use xlink:href="#DejaVuSans-33"/>
       <use xlink:href="#DejaVuSans-36" transform="translate(63.623047 0)"/>
       <use xlink:href="#DejaVuSans-30" transform="translate(127.246094 0)"/>
      </g>
     </g>
    </g>
    <g id="ytick_7">
     <g id="line2d_14">
      <g>
       <use xlink:href="#m2963711126" x="57.6" y="87.212503" style="stroke: #000000; stroke-width: 0.8"/>
      </g>
     </g>
     <g id="text_15">
      <!-- 380 -->
      <g transform="translate(31.5125 91.011722) scale(0.1 -0.1)">
       <use xlink:href="#DejaVuSans-33"/>
       <use xlink:href="#DejaVuSans-38" transform="translate(63.623047 0)"/>
       <use xlink:href="#DejaVuSans-30" transform="translate(127.246094 0)"/>
      </g>
     </g>
    </g>
    <g id="ytick_8">
     <g id="line2d_15">
      <g>
       <use xlink:href="#m2963711126" x="57.6" y="55.170119" style="stroke: #000000; stroke-width: 0.8"/>
      </g>
     </g>
     <g id="text_16">
      <!-- 400 -->
      <g transform="translate(31.5125 58.969338) scale(0.1 -0.1)">
       <use xlink:href="#DejaVuSans-34"/>
       <use xlink:href="#DejaVuSans-30" transform="translate(63.623047 0)"/>
       <use xlink:href="#DejaVuSans-30" transform="translate(127.246094 0)"/>
      </g>
     </g>
    </g>
    <g id="text_17">
     <!-- Temperature [K] -->
     <g transform="translate(25.432812 214.967062) rotate(-90) scale(0.1 -0.1)">
      <defs>
       <path id="DejaVuSans-54" d="M -19 4666 
L 3928 4666 
L 3928 4134 
L 2272 4134 
L 2272 0 
L 1638 0 
L 1638 4134 
L -19 4134 
L -19 4666 
z
" transform="scale(0.015625)"/>
       <path id="DejaVuSans-70" d="M 1159 525 
L 1159 -1331 
L 581 -1331 
L 581 3500 
L 1159 3500 
L 1159 2969 
Q 1341 3281 1617 3432 
Q 1894 3584 2278 3584 
Q 2916 3584 3314 3078 
Q 3713 2572 3713 1747 
Q 3713 922 3314 415 
Q 2916 -91 2278 -91 
Q 1894 -91 1617 61 
Q 1341 213 1159 525 
z
M 3116 1747 
Q 3116 2381 2855 2742 
Q 2594 3103 2138 3103 
Q 1681 3103 1420 2742 
Q 1159 2381 1159 1747 
Q 1159 1113 1420 752 
Q 1681 391 2138 391 
Q 2594 391 2855 752 
Q 3116 1113 3116 1747 
z
" transform="scale(0.015625)"/>
       <path id="DejaVuSans-72" d="M 2631 2963 
Q 2534 3019 2420 3045 
Q 2306 3072 2169 3072 
Q 1681 3072 1420 2755 
Q 1159 2438 1159 1844 
L 1159 0 
L 581 0 
L 581 3500 
L 1159 3500 
L 1159 2956 
Q 1341 3275 1631 3429 
Q 1922 3584 2338 3584 
Q 2397 3584 2469 3576 
Q 2541 3569 2628 3553 
L 2631 2963 
z
" transform="scale(0.015625)"/>
       <path id="DejaVuSans-61" d="M 2194 1759 
Q 1497 1759 1228 1600 
Q 959 1441 959 1056 
Q 959 750 1161 570 
Q 1363 391 1709 391 
Q 2188 391 2477 730 
Q 2766 1069 2766 1631 
L 2766 1759 
L 2194 1759 
z
M 3341 1997 
L 3341 0 
L 2766 0 
L 2766 531 
Q 2569 213 2275 61 
Q 1981 -91 1556 -91 
Q 1019 -91 701 211 
Q 384 513 384 1019 
Q 384 1609 779 1909 
Q 1175 2209 1959 2209 
L 2766 2209 
L 2766 2266 
Q 2766 2663 2505 2880 
Q 2244 3097 1772 3097 
Q 1472 3097 1187 3025 
Q 903 2953 641 2809 
L 641 3341 
Q 956 3463 1253 3523 
Q 1550 3584 1831 3584 
Q 2591 3584 2966 3190 
Q 3341 2797 3341 1997 
z
" transform="scale(0.015625)"/>
       <path id="DejaVuSans-75" d="M 544 1381 
L 544 3500 
L 1119 3500 
L 1119 1403 
Q 1119 906 1312 657 
Q 1506 409 1894 409 
Q 2359 409 2629 706 
Q 2900 1003 2900 1516 
L 2900 3500 
L 3475 3500 
L 3475 0 
L 2900 0 
L 2900 538 
Q 2691 219 2414 64 
Q 2138 -91 1772 -91 
Q 1169 -91 856 284 
Q 544 659 544 1381 
z
M 1991 3584 
L 1991 3584 
z
" transform="scale(0.015625)"/>
       <path id="DejaVuSans-4b" d="M 628 4666 
L 1259 4666 
L 1259 2694 
L 3353 4666 
L 4166 4666 
L 1850 2491 
L 4331 0 
L 3500 0 
L 1259 2247 
L 1259 0 
L 628 0 
L 628 4666 
z
" transform="scale(0.015625)"/>
      </defs>
      <use xlink:href="#DejaVuSans-54"/>
      <use xlink:href="#DejaVuSans-65" transform="translate(44.083984 0)"/>
      <use xlink:href="#DejaVuSans-6d" transform="translate(105.607422 0)"/>
      <use xlink:href="#DejaVuSans-70" transform="translate(203.019531 0)"/>
      <use xlink:href="#DejaVuSans-65" transform="translate(266.496094 0)"/>
      <use xlink:href="#DejaVuSans-72" transform="translate(328.019531 0)"/>
      <use xlink:href="#DejaVuSans-61" transform="translate(369.132812 0)"/>
      <use xlink:href="#DejaVuSans-74" transform="translate(430.412109 0)"/>
      <use xlink:href="#DejaVuSans-75" transform="translate(469.621094 0)"/>
      <use xlink:href="#DejaVuSans-72" transform="translate(533 0)"/>
      <use xlink:href="#DejaVuSans-65" transform="translate(571.863281 0)"/>
      <use xlink:href="#DejaVuSans-20" transform="translate(633.386719 0)"/>
      <use xlink:href="#DejaVuSans-5b" transform="translate(665.173828 0)"/>
      <use xlink:href="#DejaVuSans-4b" transform="translate(704.1875 0)"/>
      <use xlink:href="#DejaVuSans-5d" transform="translate(769.763672 0)"/>
     </g>
    </g>
   </g>
   <g id="line2d_16">
    <path d="M 75.891645 295.488 
L 75.808257 289.284923 
L 75.727374 283.081846 
L 75.648885 276.878769 
L 75.572686 270.675692 
L 75.498677 264.472615 
L 75.426766 258.269538 
L 75.356864 252.066462 
L 75.288888 245.863385 
L 75.222761 239.660308 
L 75.158407 233.457231 
L 75.095756 227.254154 
L 75.034742 221.051077 
L 74.975301 214.848 
L 74.917373 208.644923 
L 74.860901 202.441846 
L 74.805831 196.238769 
L 74.752111 190.035692 
L 74.699692 183.832615 
L 74.648528 177.629538 
L 74.598574 171.426462 
L 74.549787 165.223385 
L 74.502128 159.020308 
L 74.455557 152.817231 
L 74.410037 146.614154 
L 74.365534 140.411077 
L 74.322014 134.208 
L 74.279444 128.004923 
L 74.237794 121.801846 
L 74.197034 115.598769 
L 74.157137 109.395692 
L 74.118074 103.192615 
L 74.07982 96.989538 
L 74.04235 90.786462 
L 74.005641 84.583385 
L 73.969669 78.380308 
L 73.934412 72.177231 
L 73.89985 65.974154 
L 73.865961 59.771077 
L 73.832727 53.568 
" clip-path="url(#pf462cf0812)" style="fill: none; stroke-dasharray: 5.55,2.4; stroke-dashoffset: 0; stroke: #440154; stroke-width: 1.5"/>
   </g>
   <g id="line2d_17">
    <path d="M 79.041374 295.488 
L 78.909949 289.284923 
L 78.782473 283.081846 
L 78.65877 276.878769 
L 78.538675 270.675692 
L 78.422033 264.472615 
L 78.308696 258.269538 
L 78.198527 252.066462 
L 78.091394 245.863385 
L 77.987173 239.660308 
L 77.885748 233.457231 
L 77.787006 227.254154 
L 77.690844 221.051077 
L 77.597162 214.848 
L 77.505864 208.644923 
L 77.416861 202.441846 
L 77.330067 196.238769 
L 77.245401 190.035692 
L 77.162786 183.832615 
L 77.082148 177.629538 
L 77.003417 171.426462 
L 76.926527 165.223385 
L 76.851413 159.020308 
L 76.778014 152.817231 
L 76.706273 146.614154 
L 76.636133 140.411077 
L 76.567543 134.208 
L 76.50045 128.004923 
L 76.434808 121.801846 
L 76.370568 115.598769 
L 76.307687 109.395692 
L 76.246121 103.192615 
L 76.185831 96.989538 
L 76.126777 90.786462 
L 76.068921 84.583385 
L 76.012227 78.380308 
L 75.95666 72.177231 
L 75.902188 65.974154 
L 75.848777 59.771077 
L 75.796398 53.568 
" clip-path="url(#pf462cf0812)" style="fill: none; stroke-dasharray: 5.55,2.4; stroke-dashoffset: 0; stroke: #482878; stroke-width: 1.5"/>
   </g>
   <g id="line2d_18">
    <path d="M 84.005531 295.488 
L 83.798398 289.284923 
L 83.597488 283.081846 
L 83.402525 276.878769 
L 83.213248 270.675692 
L 83.029413 264.472615 
L 82.850788 258.269538 
L 82.677155 252.066462 
L 82.508306 245.863385 
L 82.344048 239.660308 
L 82.184196 233.457231 
L 82.028574 227.254154 
L 81.877017 221.051077 
L 81.729368 214.848 
L 81.585477 208.644923 
L 81.445203 202.441846 
L 81.30841 196.238769 
L 81.174972 190.035692 
L 81.044766 183.832615 
L 80.917676 177.629538 
L 80.793592 171.426462 
L 80.672408 165.223385 
L 80.554023 159.020308 
L 80.438343 152.817231 
L 80.325274 146.614154 
L 80.214731 140.411077 
L 80.106628 134.208 
L 80.000886 128.004923 
L 79.897429 121.801846 
L 79.796184 115.598769 
L 79.697079 109.395692 
L 79.600049 103.192615 
L 79.505028 96.989538 
L 79.411955 90.786462 
L 79.32077 84.583385 
L 79.231417 78.380308 
L 79.143841 72.177231 
L 79.057989 65.974154 
L 78.973811 59.771077 
L 78.891259 53.568 
" clip-path="url(#pf462cf0812)" style="fill: none; stroke-dasharray: 5.55,2.4; stroke-dashoffset: 0; stroke: #3e4989; stroke-width: 1.5"/>
   </g>
   <g id="line2d_19">
    <path d="M 91.829333 295.488 
L 91.502879 289.284923 
L 91.186233 283.081846 
L 90.87896 276.878769 
L 90.580649 270.675692 
L 90.290914 264.472615 
L 90.009391 258.269538 
L 89.735734 252.066462 
L 89.46962 245.863385 
L 89.210739 239.660308 
L 88.958803 233.457231 
L 88.713533 227.254154 
L 88.474671 221.051077 
L 88.241966 214.848 
L 88.015186 208.644923 
L 87.794106 202.441846 
L 87.578513 196.238769 
L 87.368207 190.035692 
L 87.162994 183.832615 
L 86.962693 177.629538 
L 86.767129 171.426462 
L 86.576136 165.223385 
L 86.389555 159.020308 
L 86.207236 152.817231 
L 86.029033 146.614154 
L 85.85481 140.411077 
L 85.684434 134.208 
L 85.517779 128.004923 
L 85.354724 121.801846 
L 85.195155 115.598769 
L 85.038961 109.395692 
L 84.886035 103.192615 
L 84.736277 96.989538 
L 84.589588 90.786462 
L 84.445876 84.583385 
L 84.30505 78.380308 
L 84.167025 72.177231 
L 84.031717 65.974154 
L 83.899048 59.771077 
L 83.768941 53.568 
" clip-path="url(#pf462cf0812)" style="fill: none; stroke-dasharray: 5.55,2.4; stroke-dashoffset: 0; stroke: #31688e; stroke-width: 1.5"/>
   </g>
   <g id="line2d_20">
    <path d="M 104.160103 295.488 
L 103.645593 289.284923 
L 103.146541 283.081846 
L 102.66226 276.878769 
L 102.192105 270.675692 
L 101.735466 264.472615 
L 101.291768 258.269538 
L 100.860469 252.066462 
L 100.441057 245.863385 
L 100.033047 239.660308 
L 99.635979 233.457231 
L 99.249421 227.254154 
L 98.872959 221.051077 
L 98.506204 214.848 
L 98.148784 208.644923 
L 97.800349 202.441846 
L 97.460562 196.238769 
L 97.129107 190.035692 
L 96.805681 183.832615 
L 96.489994 177.629538 
L 96.181774 171.426462 
L 95.880757 165.223385 
L 95.586695 159.020308 
L 95.299349 152.817231 
L 95.018491 146.614154 
L 94.743905 140.411077 
L 94.475382 134.208 
L 94.212724 128.004923 
L 93.955741 121.801846 
L 93.704251 115.598769 
L 93.458079 109.395692 
L 93.21706 103.192615 
L 92.981031 96.989538 
L 92.749841 90.786462 
L 92.523342 84.583385 
L 92.301393 78.380308 
L 92.083857 72.177231 
L 91.870604 65.974154 
L 91.66151 59.771077 
L 91.456454 53.568 
" clip-path="url(#pf462cf0812)" style="fill: none; stroke-dasharray: 5.55,2.4; stroke-dashoffset: 0; stroke: #26828e; stroke-width: 1.5"/>
   </g>
   <g id="line2d_21">
    <path d="M 123.59412 295.488 
L 122.783222 289.284923 
L 121.996687 283.081846 
L 121.233432 276.878769 
L 120.492439 270.675692 
L 119.772749 264.472615 
L 119.073456 258.269538 
L 118.393704 252.066462 
L 117.732685 245.863385 
L 117.089637 239.660308 
L 116.463836 233.457231 
L 115.854597 227.254154 
L 115.261271 221.051077 
L 114.683243 214.848 
L 114.119929 208.644923 
L 113.570774 202.441846 
L 113.035251 196.238769 
L 112.512859 190.035692 
L 112.003119 183.832615 
L 111.505579 177.629538 
L 111.019805 171.426462 
L 110.545386 165.223385 
L 110.081926 159.020308 
L 109.629052 152.817231 
L 109.186404 146.614154 
L 108.75364 140.411077 
L 108.330432 134.208 
L 107.916468 128.004923 
L 107.511448 121.801846 
L 107.115084 115.598769 
L 106.727104 109.395692 
L 106.347242 103.192615 
L 105.975248 96.989538 
L 105.610879 90.786462 
L 105.253903 84.583385 
L 104.904097 78.380308 
L 104.561248 72.177231 
L 104.22515 65.974154 
L 103.895605 59.771077 
L 103.572425 53.568 
" clip-path="url(#pf462cf0812)" style="fill: none; stroke-dasharray: 5.55,2.4; stroke-dashoffset: 0; stroke: #1f9e89; stroke-width: 1.5"/>
   </g>
   <g id="line2d_22">
    <path d="M 154.223269 295.488 
L 152.945247 289.284923 
L 151.705621 283.081846 
L 150.502687 276.878769 
L 149.334839 270.675692 
L 148.200565 264.472615 
L 147.098437 258.269538 
L 146.027108 252.066462 
L 144.985305 245.863385 
L 143.971823 239.660308 
L 142.985524 233.457231 
L 142.025327 227.254154 
L 141.090211 221.051077 
L 140.179206 214.848 
L 139.29139 208.644923 
L 138.425889 202.441846 
L 137.581873 196.238769 
L 136.758552 190.035692 
L 135.955173 183.832615 
L 135.171021 177.629538 
L 134.405413 171.426462 
L 133.657699 165.223385 
L 132.92726 159.020308 
L 132.213504 152.817231 
L 131.515864 146.614154 
L 130.833803 140.411077 
L 130.166803 134.208 
L 129.514371 128.004923 
L 128.876035 121.801846 
L 128.251344 115.598769 
L 127.639863 109.395692 
L 127.041179 103.192615 
L 126.454894 96.989538 
L 125.880627 90.786462 
L 125.318012 84.583385 
L 124.766698 78.380308 
L 124.226348 72.177231 
L 123.696638 65.974154 
L 123.177256 59.771077 
L 122.667904 53.568 
" clip-path="url(#pf462cf0812)" style="fill: none; stroke-dasharray: 5.55,2.4; stroke-dashoffset: 0; stroke: #35b779; stroke-width: 1.5"/>
   </g>
   <g id="line2d_23">
    <path d="M 202.496603 295.488 
L 200.482365 289.284923 
L 198.528642 283.081846 
L 196.632747 276.878769 
L 194.792151 270.675692 
L 193.004469 264.472615 
L 191.267451 258.269538 
L 189.578974 252.066462 
L 187.937031 245.863385 
L 186.339724 239.660308 
L 184.785258 233.457231 
L 183.271932 227.254154 
L 181.798135 221.051077 
L 180.362336 214.848 
L 178.963086 208.644923 
L 177.599007 202.441846 
L 176.268789 196.238769 
L 174.971186 190.035692 
L 173.705013 183.832615 
L 172.469143 177.629538 
L 171.2625 171.426462 
L 170.08406 165.223385 
L 168.932845 159.020308 
L 167.807923 152.817231 
L 166.708403 146.614154 
L 165.633434 140.411077 
L 164.582203 134.208 
L 163.553932 128.004923 
L 162.547877 121.801846 
L 161.563327 115.598769 
L 160.599598 109.395692 
L 159.656037 103.192615 
L 158.732017 96.989538 
L 157.826939 90.786462 
L 156.940225 84.583385 
L 156.071321 78.380308 
L 155.219698 72.177231 
L 154.384843 65.974154 
L 153.566268 59.771077 
L 152.763499 53.568 
" clip-path="url(#pf462cf0812)" style="fill: none; stroke-dasharray: 5.55,2.4; stroke-dashoffset: 0; stroke: #6ece58; stroke-width: 1.5"/>
   </g>
   <g id="line2d_24">
    <path d="M 278.578207 295.488 
L 275.403649 289.284923 
L 272.324467 283.081846 
L 269.336426 276.878769 
L 266.435539 270.675692 
L 263.618047 264.472615 
L 260.880405 258.269538 
L 258.219266 252.066462 
L 255.631467 245.863385 
L 253.114018 239.660308 
L 250.664089 233.457231 
L 248.278999 227.254154 
L 245.956207 221.051077 
L 243.693305 214.848 
L 241.488005 208.644923 
L 239.338136 202.441846 
L 237.241634 196.238769 
L 235.196536 190.035692 
L 233.200974 183.832615 
L 231.25317 177.629538 
L 229.35143 171.426462 
L 227.49414 165.223385 
L 225.679758 159.020308 
L 223.906814 152.817231 
L 222.173906 146.614154 
L 220.479691 140.411077 
L 218.82289 134.208 
L 217.202275 128.004923 
L 215.616674 121.801846 
L 214.064964 115.598769 
L 212.546071 109.395692 
L 211.058963 103.192615 
L 209.602655 96.989538 
L 208.176198 90.786462 
L 206.778684 84.583385 
L 205.409242 78.380308 
L 204.067033 72.177231 
L 202.751254 65.974154 
L 201.46113 59.771077 
L 200.19592 53.568 
" clip-path="url(#pf462cf0812)" style="fill: none; stroke-dasharray: 5.55,2.4; stroke-dashoffset: 0; stroke: #b5de2b; stroke-width: 1.5"/>
   </g>
   <g id="line2d_25">
    <path d="M 398.487273 295.488 
L 393.483984 289.284923 
L 388.631012 283.081846 
L 383.921684 276.878769 
L 379.349716 270.675692 
L 374.909183 264.472615 
L 370.594499 258.269538 
L 366.400388 252.066462 
L 362.321866 245.863385 
L 358.354219 239.660308 
L 354.492987 233.457231 
L 350.733945 227.254154 
L 347.073089 221.051077 
L 343.506623 214.848 
L 340.030941 208.644923 
L 336.642621 202.441846 
L 333.338411 196.238769 
L 330.115216 190.035692 
L 326.970094 183.832615 
L 323.900241 177.629538 
L 320.902988 171.426462 
L 317.975789 165.223385 
L 315.116216 159.020308 
L 312.321954 152.817231 
L 309.590788 146.614154 
L 306.920608 140.411077 
L 304.309391 134.208 
L 301.755207 128.004923 
L 299.256206 121.801846 
L 296.810621 115.598769 
L 294.416756 109.395692 
L 292.072988 103.192615 
L 289.777761 96.989538 
L 287.529581 90.786462 
L 285.327017 84.583385 
L 283.168696 78.380308 
L 281.053296 72.177231 
L 278.97955 65.974154 
L 276.946241 59.771077 
L 274.952196 53.568 
" clip-path="url(#pf462cf0812)" style="fill: none; stroke-dasharray: 5.55,2.4; stroke-dashoffset: 0; stroke: #fde725; stroke-width: 1.5"/>
   </g>
   <g id="line2d_26">
    <path d="M 76.485523 295.488 
L 76.357313 289.284923 
L 76.236103 283.081846 
L 76.121191 276.878769 
L 76.011981 270.675692 
L 75.90796 264.472615 
L 75.808684 258.269538 
L 75.713767 252.066462 
L 75.622868 245.863385 
L 75.535688 239.660308 
L 75.451958 233.457231 
L 75.371441 227.254154 
L 75.293922 221.051077 
L 75.219209 214.848 
L 75.147126 208.644923 
L 75.077515 202.441846 
L 75.010232 196.238769 
L 74.945144 190.035692 
L 74.882129 183.832615 
L 74.821078 177.629538 
L 74.761886 171.426462 
L 74.704459 165.223385 
L 74.648709 159.020308 
L 74.594555 152.817231 
L 74.541922 146.614154 
L 74.490738 140.411077 
L 74.440938 134.208 
L 74.392461 128.004923 
L 74.345248 121.801846 
L 74.299247 115.598769 
L 74.254406 109.395692 
L 74.210678 103.192615 
L 74.168018 96.989538 
L 74.126384 90.786462 
L 74.085736 84.583385 
L 74.046036 78.380308 
L 74.00725 72.177231 
L 73.969342 65.974154 
L 73.932283 59.771077 
L 73.89604 53.568 
" clip-path="url(#pf462cf0812)" style="fill: none; stroke: #440154; stroke-width: 1.5; stroke-linecap: square"/>
   </g>
   <g id="line2d_27">
    <path d="M 80.748028 295.488 
L 80.467512 289.284923 
L 80.209584 283.081846 
L 79.970837 276.878769 
L 79.748598 270.675692 
L 79.540733 264.472615 
L 79.345512 258.269538 
L 79.161512 252.066462 
L 78.987546 245.863385 
L 78.822614 239.660308 
L 78.665862 233.457231 
L 78.516556 227.254154 
L 78.374061 221.051077 
L 78.23782 214.848 
L 78.107343 208.644923 
L 77.9822 202.441846 
L 77.862003 196.238769 
L 77.74641 190.035692 
L 77.635112 183.832615 
L 77.52783 177.629538 
L 77.424312 171.426462 
L 77.324329 165.223385 
L 77.227674 159.020308 
L 77.134156 152.817231 
L 77.0436 146.614154 
L 76.955847 140.411077 
L 76.870748 134.208 
L 76.788168 128.004923 
L 76.70798 121.801846 
L 76.630067 115.598769 
L 76.554322 109.395692 
L 76.480642 103.192615 
L 76.408935 96.989538 
L 76.339111 90.786462 
L 76.271088 84.583385 
L 76.20479 78.380308 
L 76.140144 72.177231 
L 76.077082 65.974154 
L 76.015541 59.771077 
L 75.95546 53.568 
" clip-path="url(#pf462cf0812)" style="fill: none; stroke: #482878; stroke-width: 1.5; stroke-linecap: square"/>
   </g>
   <g id="line2d_28">
    <path d="M 337.795101 295.488 
L 333.11236 289.284923 
L 328.173041 283.081846 
L 87.530675 276.878769 
L 86.92436 270.675692 
L 86.389691 264.472615 
L 85.910852 258.269538 
L 85.476949 252.066462 
L 85.080115 245.863385 
L 84.714456 239.660308 
L 84.375429 233.457231 
L 84.05945 227.254154 
L 83.763635 221.051077 
L 83.485625 214.848 
L 83.223463 208.644923 
L 82.975507 202.441846 
L 82.740361 196.238769 
L 82.51683 190.035692 
L 82.30388 183.832615 
L 82.100614 177.629538 
L 81.906244 171.426462 
L 81.720077 165.223385 
L 81.541496 159.020308 
L 81.369956 152.817231 
L 81.204966 146.614154 
L 81.046087 140.411077 
L 80.89292 134.208 
L 80.745108 128.004923 
L 80.602323 121.801846 
L 80.464268 115.598769 
L 80.330672 109.395692 
L 80.201285 103.192615 
L 80.075879 96.989538 
L 79.954243 90.786462 
L 79.836182 84.583385 
L 79.721518 78.380308 
L 79.610082 72.177231 
L 79.501721 65.974154 
L 79.39629 59.771077 
L 79.293655 53.568 
" clip-path="url(#pf462cf0812)" style="fill: none; stroke: #3e4989; stroke-width: 1.5; stroke-linecap: square"/>
   </g>
   <g id="line2d_29">
    <path d="M 339.282875 295.488 
L 334.768229 289.284923 
L 330.035206 283.081846 
L 325.040957 276.878769 
L 319.727858 270.675692 
L 314.014881 264.472615 
L 307.781147 258.269538 
L 300.831451 252.066462 
L 98.440827 245.863385 
L 97.130101 239.660308 
L 96.036888 233.457231 
L 95.096821 227.254154 
L 94.271244 221.051077 
L 93.534901 214.848 
L 92.870276 208.644923 
L 92.264677 202.441846 
L 91.708579 196.238769 
L 91.194636 190.035692 
L 90.717053 183.832615 
L 90.271171 177.629538 
L 89.853185 171.426462 
L 89.459946 165.223385 
L 89.088815 159.020308 
L 88.737558 152.817231 
L 88.404265 146.614154 
L 88.087293 140.411077 
L 87.785213 134.208 
L 87.496776 128.004923 
L 87.220888 121.801846 
L 86.956577 115.598769 
L 86.702982 109.395692 
L 86.459335 103.192615 
L 86.224947 96.989538 
L 85.999198 90.786462 
L 85.781527 84.583385 
L 85.571428 78.380308 
L 85.36844 72.177231 
L 85.172142 65.974154 
L 84.98215 59.771077 
L 84.79811 53.568 
" clip-path="url(#pf462cf0812)" style="fill: none; stroke: #31688e; stroke-width: 1.5; stroke-linecap: square"/>
   </g>
   <g id="line2d_30">
    <path d="M 341.482422 295.488 
L 337.194197 289.284923 
L 332.731958 283.081846 
L 328.067564 276.878769 
L 323.165309 270.675692 
L 317.978556 264.472615 
L 312.444155 258.269538 
L 306.472841 252.066462 
L 299.931314 245.863385 
L 292.604782 239.660308 
L 284.106169 233.457231 
L 273.604482 227.254154 
L 258.49133 221.051077 
L 121.569256 214.848 
L 117.200619 208.644923 
L 114.17017 202.441846 
L 111.833057 196.238769 
L 109.926982 190.035692 
L 108.316975 183.832615 
L 106.923706 177.629538 
L 105.696321 171.426462 
L 104.600161 165.223385 
L 103.610495 159.020308 
L 102.709033 152.817231 
L 101.881855 146.614154 
L 101.118107 140.411077 
L 100.409161 134.208 
L 99.748037 128.004923 
L 99.129011 121.801846 
L 98.547322 115.598769 
L 97.998975 109.395692 
L 97.480579 103.192615 
L 96.989232 96.989538 
L 96.522434 90.786462 
L 96.078012 84.583385 
L 95.654068 78.380308 
L 95.248933 72.177231 
L 94.861133 65.974154 
L 94.48936 59.771077 
L 94.132445 53.568 
" clip-path="url(#pf462cf0812)" style="fill: none; stroke: #26828e; stroke-width: 1.5; stroke-linecap: square"/>
   </g>
   <g id="line2d_31">
    <path d="M 344.650943 295.488 
L 340.650685 289.284923 
L 336.522974 283.081846 
L 332.251757 276.878769 
L 327.817908 270.675692 
L 323.19826 264.472615 
L 318.364249 258.269538 
L 313.279969 252.066462 
L 307.899314 245.863385 
L 302.161413 239.660308 
L 295.982714 233.457231 
L 289.242847 227.254154 
L 281.760533 221.051077 
L 273.254081 214.848 
L 263.262971 208.644923 
L 250.913006 202.441846 
L 234.23758 196.238769 
L 209.586371 190.035692 
L 180.905173 183.832615 
L 162.540712 177.629538 
L 151.839278 171.426462 
L 144.731584 165.223385 
L 139.529786 159.020308 
L 135.472528 152.817231 
L 132.168416 146.614154 
L 129.393914 140.411077 
L 127.010621 134.208 
L 124.927346 128.004923 
L 123.081004 121.801846 
L 121.426223 115.598769 
L 119.929324 109.395692 
L 118.56465 103.192615 
L 117.312223 96.989538 
L 116.156195 90.786462 
L 115.083794 84.583385 
L 114.084579 78.380308 
L 113.149915 72.177231 
L 112.272579 65.974154 
L 111.446472 59.771077 
L 110.6664 53.568 
" clip-path="url(#pf462cf0812)" style="fill: none; stroke: #1f9e89; stroke-width: 1.5; stroke-linecap: square"/>
   </g>
   <g id="line2d_32">
    <path d="M 349.072865 295.488 
L 345.415236 289.284923 
L 341.673704 283.081846 
L 337.840572 276.878769 
L 333.907257 270.675692 
L 329.864129 264.472615 
L 325.700324 258.269538 
L 321.40353 252.066462 
L 316.959754 245.863385 
L 312.353016 239.660308 
L 307.564864 233.457231 
L 302.573504 227.254154 
L 297.352474 221.051077 
L 291.869278 214.848 
L 286.085016 208.644923 
L 279.955759 202.441846 
L 273.434824 196.238769 
L 266.473575 190.035692 
L 259.021787 183.832615 
L 251.038089 177.629538 
L 242.520396 171.426462 
L 233.536326 165.223385 
L 224.233125 159.020308 
L 214.861776 152.817231 
L 205.758629 146.614154 
L 197.234521 140.411077 
L 189.489477 134.208 
L 182.594707 128.004923 
L 176.521887 121.801846 
L 171.189979 115.598769 
L 166.501067 109.395692 
L 162.359692 103.192615 
L 158.680976 96.989538 
L 155.392764 90.786462 
L 152.435057 84.583385 
L 149.758443 78.380308 
L 147.32233 72.177231 
L 145.093319 65.974154 
L 143.043817 59.771077 
L 141.150904 53.568 
" clip-path="url(#pf462cf0812)" style="fill: none; stroke: #35b779; stroke-width: 1.5; stroke-linecap: square"/>
   </g>
   <g id="line2d_33">
    <path d="M 355.026298 295.488 
L 351.748181 289.284923 
L 348.422136 283.081846 
L 345.045206 276.878769 
L 341.614322 270.675692 
L 338.126308 264.472615 
L 334.577892 258.269538 
L 330.965719 252.066462 
L 327.286385 245.863385 
L 323.536479 239.660308 
L 319.712618 233.457231 
L 315.811453 227.254154 
L 311.829582 221.051077 
L 307.763435 214.848 
L 303.609214 208.644923 
L 299.36306 202.441846 
L 295.021509 196.238769 
L 290.582065 190.035692 
L 286.043625 183.832615 
L 281.406582 177.629538 
L 276.672762 171.426462 
L 271.845554 165.223385 
L 266.930587 159.020308 
L 261.936922 152.817231 
L 256.87835 146.614154 
L 251.774225 140.411077 
L 246.649282 134.208 
L 241.532371 128.004923 
L 236.454481 121.801846 
L 231.446752 115.598769 
L 226.538835 109.395692 
L 221.757544 103.192615 
L 217.125783 96.989538 
L 212.661867 90.786462 
L 208.379323 84.583385 
L 204.28706 78.380308 
L 200.389727 72.177231 
L 196.68817 65.974154 
L 193.179979 59.771077 
L 189.860107 53.568 
" clip-path="url(#pf462cf0812)" style="fill: none; stroke: #6ece58; stroke-width: 1.5; stroke-linecap: square"/>
   </g>
   <g id="line2d_34">
    <path d="M 362.746911 295.488 
L 359.860511 289.284923 
L 356.952355 283.081846 
L 354.021623 276.878769 
L 351.06755 270.675692 
L 348.089433 264.472615 
L 345.086648 258.269538 
L 342.058658 252.066462 
L 339.005034 245.863385 
L 335.925472 239.660308 
L 332.819813 233.457231 
L 329.688052 227.254154 
L 326.530342 221.051077 
L 323.346976 214.848 
L 320.13837 208.644923 
L 316.905066 202.441846 
L 313.647762 196.238769 
L 310.367378 190.035692 
L 307.065116 183.832615 
L 303.742502 177.629538 
L 300.40138 171.426462 
L 297.043867 165.223385 
L 293.67231 159.020308 
L 290.289255 152.817231 
L 286.897438 146.614154 
L 283.499815 140.411077 
L 280.099593 134.208 
L 276.700274 128.004923 
L 273.305694 121.801846 
L 269.920052 115.598769 
L 266.547917 109.395692 
L 263.194214 103.192615 
L 259.86417 96.989538 
L 256.563219 90.786462 
L 253.296878 84.583385 
L 250.070586 78.380308 
L 246.889554 72.177231 
L 243.758614 65.974154 
L 240.682112 59.771077 
L 237.663836 53.568 
" clip-path="url(#pf462cf0812)" style="fill: none; stroke: #b5de2b; stroke-width: 1.5; stroke-linecap: square"/>
   </g>
   <g id="line2d_35">
    <path d="M 372.407384 295.488 
L 369.900526 289.284923 
L 367.388687 283.081846 
L 364.871769 276.878769 
L 362.349717 270.675692 
L 359.822524 264.472615 
L 357.290231 258.269538 
L 354.752936 252.066462 
L 352.210794 245.863385 
L 349.66402 239.660308 
L 347.112893 233.457231 
L 344.557761 227.254154 
L 341.999035 221.051077 
L 339.437192 214.848 
L 336.872768 208.644923 
L 334.306363 202.441846 
L 331.738631 196.238769 
L 329.170288 190.035692 
L 326.602117 183.832615 
L 324.03496 177.629538 
L 321.469723 171.426462 
L 318.907365 165.223385 
L 316.348891 159.020308 
L 313.79534 152.817231 
L 311.247778 146.614154 
L 308.707293 140.411077 
L 306.174984 134.208 
L 303.651963 128.004923 
L 301.139347 121.801846 
L 298.638253 115.598769 
L 296.149794 109.395692 
L 293.675075 103.192615 
L 291.215187 96.989538 
L 288.771208 90.786462 
L 286.344195 84.583385 
L 283.935188 78.380308 
L 281.545206 72.177231 
L 279.175247 65.974154 
L 276.826289 59.771077 
L 274.499291 53.568 
" clip-path="url(#pf462cf0812)" style="fill: none; stroke: #fde725; stroke-width: 1.5; stroke-linecap: square"/>
   </g>
   <g id="line2d_36">
    <path d="M 76.453348 295.488 
L 76.331391 289.284923 
L 76.215218 283.081846 
L 76.10437 276.878769 
L 75.998439 270.675692 
L 75.897063 264.472615 
L 75.799917 258.269538 
L 75.706708 252.066462 
L 75.617172 245.863385 
L 75.53107 239.660308 
L 75.448187 233.457231 
L 75.368325 227.254154 
L 75.291302 221.051077 
L 75.216955 214.848 
L 75.14513 208.644923 
L 75.07569 202.441846 
L 75.008505 196.238769 
L 74.943457 190.035692 
L 74.880435 183.832615 
L 74.819337 177.629538 
L 74.760069 171.426462 
L 74.702541 165.223385 
L 74.646673 159.020308 
L 74.592386 152.817231 
L 74.539609 146.614154 
L 74.488275 140.411077 
L 74.438321 134.208 
L 74.389687 128.004923 
L 74.342317 121.801846 
L 74.29616 115.598769 
L 74.251165 109.395692 
L 74.207287 103.192615 
L 74.164481 96.989538 
L 74.122706 90.786462 
L 74.081922 84.583385 
L 74.042092 78.380308 
L 74.003181 72.177231 
L 73.965155 65.974154 
L 73.927983 59.771077 
L 73.891634 53.568 
" clip-path="url(#pf462cf0812)" style="fill: none; stroke-dasharray: 9.6,2.4,1.5,2.4; stroke-dashoffset: 0; stroke: #440154; stroke-width: 1.5"/>
   </g>
   <g id="line2d_37">
    <path d="M 80.625894 295.488 
L 80.372236 289.284923 
L 80.134897 283.081846 
L 79.912055 276.878769 
L 79.702178 270.675692 
L 79.503962 264.472615 
L 79.316294 258.269538 
L 79.13821 252.066462 
L 78.968871 245.863385 
L 78.807545 239.660308 
L 78.653587 233.457231 
L 78.506424 227.254154 
L 78.365548 221.051077 
L 78.230507 214.848 
L 78.100891 208.644923 
L 77.976334 202.441846 
L 77.856506 196.238769 
L 77.741105 190.035692 
L 77.629858 183.832615 
L 77.522515 177.629538 
L 77.418849 171.426462 
L 77.31865 165.223385 
L 77.221725 159.020308 
L 77.127899 152.817231 
L 77.037007 146.614154 
L 76.948898 140.411077 
L 76.863432 134.208 
L 76.780479 128.004923 
L 76.699916 121.801846 
L 76.621632 115.598769 
L 76.545521 109.395692 
L 76.471485 103.192615 
L 76.39943 96.989538 
L 76.329272 90.786462 
L 76.260929 84.583385 
L 76.194325 78.380308 
L 76.129387 72.177231 
L 76.066049 65.974154 
L 76.004246 59.771077 
L 75.94392 53.568 
" clip-path="url(#pf462cf0812)" style="fill: none; stroke-dasharray: 9.6,2.4,1.5,2.4; stroke-dashoffset: 0; stroke: #482878; stroke-width: 1.5"/>
   </g>
   <g id="line2d_38">
    <path d="M 311.774627 295.488 
L 306.343277 289.284923 
L 300.536064 283.081846 
L 87.232951 276.878769 
L 86.705424 270.675692 
L 86.225822 264.472615 
L 85.786423 258.269538 
L 85.381257 252.066462 
L 85.005609 245.863385 
L 84.655686 239.660308 
L 84.328388 233.457231 
L 84.021146 227.254154 
L 83.731809 221.051077 
L 83.458552 214.848 
L 83.199818 208.644923 
L 82.954266 202.441846 
L 82.72073 196.238769 
L 82.498193 190.035692 
L 82.285761 183.832615 
L 82.082643 177.629538 
L 81.888138 171.426462 
L 81.701619 165.223385 
L 81.522525 159.020308 
L 81.350352 152.817231 
L 81.184643 146.614154 
L 81.024986 140.411077 
L 80.871006 134.208 
L 80.722361 128.004923 
L 80.578739 121.801846 
L 80.439852 115.598769 
L 80.305438 109.395692 
L 80.175256 103.192615 
L 80.04908 96.989538 
L 79.926705 90.786462 
L 79.807939 84.583385 
L 79.692605 78.380308 
L 79.580536 72.177231 
L 79.47158 65.974154 
L 79.365592 59.771077 
L 79.262438 53.568 
" clip-path="url(#pf462cf0812)" style="fill: none; stroke-dasharray: 9.6,2.4,1.5,2.4; stroke-dashoffset: 0; stroke: #3e4989; stroke-width: 1.5"/>
   </g>
   <g id="line2d_39">
    <path d="M 314.059374 295.488 
L 308.907961 289.284923 
L 303.441915 283.081846 
L 297.606478 276.878769 
L 291.327411 270.675692 
L 284.499524 264.472615 
L 276.964649 258.269538 
L 268.464083 252.066462 
L 97.926574 245.863385 
L 96.773811 239.660308 
L 95.777341 233.457231 
L 94.899763 227.254154 
L 94.115934 221.051077 
L 93.408073 214.848 
L 92.763097 208.644923 
L 92.171084 202.441846 
L 91.624317 196.238769 
L 91.116666 190.035692 
L 90.643181 183.832615 
L 90.199797 177.629538 
L 89.783141 171.426462 
L 89.390376 165.223385 
L 89.019095 159.020308 
L 88.667237 152.817231 
L 88.333024 146.614154 
L 88.01491 140.411077 
L 87.711542 134.208 
L 87.421732 128.004923 
L 87.144426 121.801846 
L 86.878689 115.598769 
L 86.623685 109.395692 
L 86.378666 103.192615 
L 86.142958 96.989538 
L 85.915951 90.786462 
L 85.697092 84.583385 
L 85.485882 78.380308 
L 85.28186 72.177231 
L 85.08461 65.974154 
L 84.893747 59.771077 
L 84.708918 53.568 
" clip-path="url(#pf462cf0812)" style="fill: none; stroke-dasharray: 9.6,2.4,1.5,2.4; stroke-dashoffset: 0; stroke: #31688e; stroke-width: 1.5"/>
   </g>
   <g id="line2d_40">
    <path d="M 317.361125 295.488 
L 312.575796 289.284923 
L 307.544132 283.081846 
L 302.232877 276.878769 
L 296.599844 270.675692 
L 290.590098 264.472615 
L 284.129759 258.269538 
L 277.115281 252.066462 
L 269.39341 245.863385 
L 260.71943 239.660308 
L 250.655555 233.457231 
L 238.252079 227.254154 
L 220.329684 221.051077 
L 120.236568 214.848 
L 116.334314 208.644923 
L 113.516417 202.441846 
L 111.29783 196.238769 
L 109.465052 190.035692 
L 107.903312 183.832615 
L 106.543202 177.629538 
L 105.339313 171.426462 
L 104.260202 165.223385 
L 103.283146 159.020308 
L 102.391161 152.817231 
L 101.571203 146.614154 
L 100.813028 140.411077 
L 100.10844 134.208 
L 99.450772 128.004923 
L 98.83453 121.801846 
L 98.255129 115.598769 
L 97.708702 109.395692 
L 97.19196 103.192615 
L 96.702077 96.989538 
L 96.236612 90.786462 
L 95.793438 84.583385 
L 95.370692 78.380308 
L 94.966733 72.177231 
L 94.580108 65.974154 
L 94.209524 59.771077 
L 93.853825 53.568 
" clip-path="url(#pf462cf0812)" style="fill: none; stroke-dasharray: 9.6,2.4,1.5,2.4; stroke-dashoffset: 0; stroke: #26828e; stroke-width: 1.5"/>
   </g>
   <g id="line2d_41">
    <path d="M 321.974125 295.488 
L 317.637513 289.284923 
L 313.122367 283.081846 
L 308.411799 276.878769 
L 303.485859 270.675692 
L 298.320705 264.472615 
L 292.88745 258.269538 
L 287.150549 252.066462 
L 281.065472 245.863385 
L 274.575237 239.660308 
L 267.605091 233.457231 
L 260.054001 227.254154 
L 251.780431 221.051077 
L 242.57742 214.848 
L 232.127095 208.644923 
L 219.918704 202.441846 
L 205.151682 196.238769 
L 187.204899 190.035692 
L 169.047606 183.832615 
L 155.971117 177.629538 
L 147.377463 171.426462 
L 141.317414 165.223385 
L 136.728139 159.020308 
L 133.07021 152.817231 
L 130.046878 146.614154 
L 127.48079 140.411077 
L 125.258526 134.208 
L 123.303543 128.004923 
L 121.561919 121.801846 
L 119.994316 115.598769 
L 118.5712 109.395692 
L 117.269857 103.192615 
L 116.072458 96.989538 
L 114.964763 90.786462 
L 113.935223 84.583385 
L 112.974349 78.380308 
L 112.074251 72.177231 
L 111.228301 65.974154 
L 110.430881 59.771077 
L 109.677184 53.568 
" clip-path="url(#pf462cf0812)" style="fill: none; stroke-dasharray: 9.6,2.4,1.5,2.4; stroke-dashoffset: 0; stroke: #1f9e89; stroke-width: 1.5"/>
   </g>
   <g id="line2d_42">
    <path d="M 328.163673 295.488 
L 324.33921 289.284923 
L 320.395476 283.081846 
L 316.325715 276.878769 
L 312.12253 270.675692 
L 307.777813 264.472615 
L 303.282663 258.269538 
L 298.627315 252.066462 
L 293.801066 245.863385 
L 288.792218 239.660308 
L 283.588058 233.457231 
L 278.174908 227.254154 
L 272.538296 221.051077 
L 266.663348 214.848 
L 260.535544 208.644923 
L 254.14209 202.441846 
L 247.474247 196.238769 
L 240.531122 190.035692 
L 233.325446 183.832615 
L 225.891583 177.629538 
L 218.294908 171.426462 
L 210.639259 165.223385 
L 203.066199 159.020308 
L 195.73948 152.817231 
L 188.815239 146.614154 
L 182.410212 140.411077 
L 176.584297 134.208 
L 171.343395 128.004923 
L 166.655229 121.801846 
L 162.46726 115.598769 
L 158.720315 109.395692 
L 155.356721 103.192615 
L 152.324195 96.989538 
L 149.577152 90.786462 
L 147.076663 84.583385 
L 144.789821 78.380308 
L 142.688923 72.177231 
L 140.750647 65.974154 
L 138.955317 59.771077 
L 137.286275 53.568 
" clip-path="url(#pf462cf0812)" style="fill: none; stroke-dasharray: 9.6,2.4,1.5,2.4; stroke-dashoffset: 0; stroke: #35b779; stroke-width: 1.5"/>
   </g>
   <g id="line2d_43">
    <path d="M 336.100189 295.488 
L 332.820104 289.284923 
L 329.466356 283.081846 
L 326.037183 276.878769 
L 322.530846 270.675692 
L 318.945659 264.472615 
L 315.280016 258.269538 
L 311.532436 252.066462 
L 307.701606 245.863385 
L 303.786449 239.660308 
L 299.786192 233.457231 
L 295.700466 227.254154 
L 291.52941 221.051077 
L 287.273807 214.848 
L 282.935244 208.644923 
L 278.516286 202.441846 
L 274.020685 196.238769 
L 269.453603 190.035692 
L 264.821842 183.832615 
L 260.13408 177.629538 
L 255.401063 171.426462 
L 250.635758 165.223385 
L 245.853397 159.020308 
L 241.071392 152.817231 
L 236.309077 146.614154 
L 231.58725 140.411077 
L 226.927525 134.208 
L 222.351525 128.004923 
L 217.879979 121.801846 
L 213.531837 115.598769 
L 209.323484 109.395692 
L 205.268169 103.192615 
L 201.375676 96.989538 
L 197.652274 90.786462 
L 194.100898 84.583385 
L 190.721512 78.380308 
L 187.511574 72.177231 
L 184.466557 65.974154 
L 181.580444 59.771077 
L 178.846192 53.568 
" clip-path="url(#pf462cf0812)" style="fill: none; stroke-dasharray: 9.6,2.4,1.5,2.4; stroke-dashoffset: 0; stroke: #6ece58; stroke-width: 1.5"/>
   </g>
   <g id="line2d_44">
    <path d="M 345.797383 295.488 
L 343.059741 289.284923 
L 340.279677 283.081846 
L 337.457286 276.878769 
L 334.592763 270.675692 
L 331.68641 264.472615 
L 328.738652 258.269538 
L 325.750049 252.066462 
L 322.721312 245.863385 
L 319.653321 239.660308 
L 316.547138 233.457231 
L 313.404027 227.254154 
L 310.225473 221.051077 
L 307.013194 214.848 
L 303.769165 208.644923 
L 300.49563 202.441846 
L 297.195117 196.238769 
L 293.870451 190.035692 
L 290.524764 183.832615 
L 287.161497 177.629538 
L 283.7844 171.426462 
L 280.397527 165.223385 
L 277.00522 159.020308 
L 273.612091 152.817231 
L 270.222987 146.614154 
L 266.842956 140.411077 
L 263.477197 134.208 
L 260.131008 128.004923 
L 256.809723 121.801846 
L 253.518643 115.598769 
L 250.262976 109.395692 
L 247.047754 103.192615 
L 243.877777 96.989538 
L 240.757543 90.786462 
L 237.691193 84.583385 
L 234.682463 78.380308 
L 231.73465 72.177231 
L 228.850584 65.974154 
L 226.032614 59.771077 
L 223.282607 53.568 
" clip-path="url(#pf462cf0812)" style="fill: none; stroke-dasharray: 9.6,2.4,1.5,2.4; stroke-dashoffset: 0; stroke: #b5de2b; stroke-width: 1.5"/>
   </g>
   <g id="line2d_45">
    <path d="M 357.070735 295.488 
L 354.845123 289.284923 
L 352.596465 283.081846 
L 350.325274 276.878769 
L 348.032117 270.675692 
L 345.717616 264.472615 
L 343.38245 258.269538 
L 341.02736 252.066462 
L 338.653146 245.863385 
L 336.260674 239.660308 
L 333.850873 233.457231 
L 331.42474 227.254154 
L 328.983338 221.051077 
L 326.527799 214.848 
L 324.059322 208.644923 
L 321.579173 202.441846 
L 319.088685 196.238769 
L 316.589254 190.035692 
L 314.08234 183.832615 
L 311.569461 177.629538 
L 309.05219 171.426462 
L 306.532152 165.223385 
L 304.011018 159.020308 
L 301.490498 152.817231 
L 298.972334 146.614154 
L 296.458297 140.411077 
L 293.950174 134.208 
L 291.449762 128.004923 
L 288.958859 121.801846 
L 286.479255 115.598769 
L 284.012721 109.395692 
L 281.561004 103.192615 
L 279.125812 96.989538 
L 276.708808 90.786462 
L 274.311603 84.583385 
L 271.935743 78.380308 
L 269.582704 72.177231 
L 267.253888 65.974154 
L 264.950609 59.771077 
L 262.674096 53.568 
" clip-path="url(#pf462cf0812)" style="fill: none; stroke-dasharray: 9.6,2.4,1.5,2.4; stroke-dashoffset: 0; stroke: #fde725; stroke-width: 1.5"/>
   </g>
   <g id="patch_3">
    <path d="M 57.6 307.584 
L 57.6 41.472 
" style="fill: none; stroke: #000000; stroke-width: 0.8; stroke-linejoin: miter; stroke-linecap: square"/>
   </g>
   <g id="patch_4">
    <path d="M 414.72 307.584 
L 414.72 41.472 
" style="fill: none; stroke: #000000; stroke-width: 0.8; stroke-linejoin: miter; stroke-linecap: square"/>
   </g>
   <g id="patch_5">
    <path d="M 57.6 307.584 
L 414.72 307.584 
" style="fill: none; stroke: #000000; stroke-width: 0.8; stroke-linejoin: miter; stroke-linecap: square"/>
   </g>
   <g id="patch_6">
    <path d="M 57.6 41.472 
L 414.72 41.472 
" style="fill: none; stroke: #000000; stroke-width: 0.8; stroke-linejoin: miter; stroke-linecap: square"/>
   </g>
   <g id="text_18">
    <!-- p = 1 atm -->
    <g style="fill: #440154" transform="translate(71.013373 185.419343) rotate(-90) scale(0.1 -0.1)">
     <defs>
      <path id="DejaVuSans-3d" d="M 678 2906 
L 4684 2906 
L 4684 2381 
L 678 2381 
L 678 2906 
z
M 678 1631 
L 4684 1631 
L 4684 1100 
L 678 1100 
L 678 1631 
z
" transform="scale(0.015625)"/>
     </defs>
     <use xlink:href="#DejaVuSans-70"/>
     <use xlink:href="#DejaVuSans-20" transform="translate(63.476562 0)"/>
     <use xlink:href="#DejaVuSans-3d" transform="translate(95.263672 0)"/>
     <use xlink:href="#DejaVuSans-20" transform="translate(179.052734 0)"/>
     <use xlink:href="#DejaVuSans-31" transform="translate(210.839844 0)"/>
     <use xlink:href="#DejaVuSans-20" transform="translate(274.462891 0)"/>
     <use xlink:href="#DejaVuSans-61" transform="translate(306.25 0)"/>
     <use xlink:href="#DejaVuSans-74" transform="translate(367.529297 0)"/>
     <use xlink:href="#DejaVuSans-6d" transform="translate(406.738281 0)"/>
    </g>
   </g>
   <g id="text_19">
    <!-- p = 97 atm -->
    <g style="fill: #1f9e89" transform="translate(180.45138 174.784829) rotate(-348) scale(0.1 -0.1)">
     <defs>
      <path id="DejaVuSans-39" d="M 703 97 
L 703 672 
Q 941 559 1184 500 
Q 1428 441 1663 441 
Q 2288 441 2617 861 
Q 2947 1281 2994 2138 
Q 2813 1869 2534 1725 
Q 2256 1581 1919 1581 
Q 1219 1581 811 2004 
Q 403 2428 403 3163 
Q 403 3881 828 4315 
Q 1253 4750 1959 4750 
Q 2769 4750 3195 4129 
Q 3622 3509 3622 2328 
Q 3622 1225 3098 567 
Q 2575 -91 1691 -91 
Q 1453 -91 1209 -44 
Q 966 3 703 97 
z
M 1959 2075 
Q 2384 2075 2632 2365 
Q 2881 2656 2881 3163 
Q 2881 3666 2632 3958 
Q 2384 4250 1959 4250 
Q 1534 4250 1286 3958 
Q 1038 3666 1038 3163 
Q 1038 2656 1286 2365 
Q 1534 2075 1959 2075 
z
" transform="scale(0.015625)"/>
      <path id="DejaVuSans-37" d="M 525 4666 
L 3525 4666 
L 3525 4397 
L 1831 0 
L 1172 0 
L 2766 4134 
L 525 4134 
L 525 4666 
z
" transform="scale(0.015625)"/>
     </defs>
     <use xlink:href="#DejaVuSans-70"/>
     <use xlink:href="#DejaVuSans-20" transform="translate(63.476562 0)"/>
     <use xlink:href="#DejaVuSans-3d" transform="translate(95.263672 0)"/>
     <use xlink:href="#DejaVuSans-20" transform="translate(179.052734 0)"/>
     <use xlink:href="#DejaVuSans-39" transform="translate(210.839844 0)"/>
     <use xlink:href="#DejaVuSans-37" transform="translate(274.462891 0)"/>
     <use xlink:href="#DejaVuSans-20" transform="translate(338.085938 0)"/>
     <use xlink:href="#DejaVuSans-61" transform="translate(369.873047 0)"/>
     <use xlink:href="#DejaVuSans-74" transform="translate(431.152344 0)"/>
     <use xlink:href="#DejaVuSans-6d" transform="translate(470.361328 0)"/>
    </g>
   </g>
   <g id="text_20">
    <!-- p = 600 atm -->
    <g style="fill: #fde725" transform="translate(317.029531 126.098759) rotate(-292) scale(0.1 -0.1)">
     <use xlink:href="#DejaVuSans-70"/>
     <use xlink:href="#DejaVuSans-20" transform="translate(63.476562 0)"/>
     <use xlink:href="#DejaVuSans-3d" transform="translate(95.263672 0)"/>
     <use xlink:href="#DejaVuSans-20" transform="translate(179.052734 0)"/>
     <use xlink:href="#DejaVuSans-36" transform="translate(210.839844 0)"/>
     <use xlink:href="#DejaVuSans-30" transform="translate(274.462891 0)"/>
     <use xlink:href="#DejaVuSans-30" transform="translate(338.085938 0)"/>
     <use xlink:href="#DejaVuSans-20" transform="translate(401.708984 0)"/>
     <use xlink:href="#DejaVuSans-61" transform="translate(433.496094 0)"/>
     <use xlink:href="#DejaVuSans-74" transform="translate(494.775391 0)"/>
     <use xlink:href="#DejaVuSans-6d" transform="translate(533.984375 0)"/>
    </g>
   </g>
   <g id="legend_1">
    <g id="patch_7">
     <path d="M 300.27625 93.506375 
L 407.72 93.506375 
Q 409.72 93.506375 409.72 91.506375 
L 409.72 48.472 
Q 409.72 46.472 407.72 46.472 
L 300.27625 46.472 
Q 298.27625 46.472 298.27625 48.472 
L 298.27625 91.506375 
Q 298.27625 93.506375 300.27625 93.506375 
z
" style="fill: #ffffff; opacity: 0.8; stroke: #cccccc; stroke-linejoin: miter"/>
    </g>
    <g id="line2d_46">
     <path d="M 302.27625 54.570438 
L 312.27625 54.570438 
L 322.27625 54.570438 
" style="fill: none; stroke-dasharray: 5.55,2.4; stroke-dashoffset: 0; stroke: #440154; stroke-width: 1.5"/>
    </g>
    <g id="text_21">
     <!-- GRI Mech -->
     <g transform="translate(330.27625 58.070438) scale(0.1 -0.1)">
      <defs>
       <path id="DejaVuSans-47" d="M 3809 666 
L 3809 1919 
L 2778 1919 
L 2778 2438 
L 4434 2438 
L 4434 434 
Q 4069 175 3628 42 
Q 3188 -91 2688 -91 
Q 1594 -91 976 548 
Q 359 1188 359 2328 
Q 359 3472 976 4111 
Q 1594 4750 2688 4750 
Q 3144 4750 3555 4637 
Q 3966 4525 4313 4306 
L 4313 3634 
Q 3963 3931 3569 4081 
Q 3175 4231 2741 4231 
Q 1884 4231 1454 3753 
Q 1025 3275 1025 2328 
Q 1025 1384 1454 906 
Q 1884 428 2741 428 
Q 3075 428 3337 486 
Q 3600 544 3809 666 
z
" transform="scale(0.015625)"/>
       <path id="DejaVuSans-52" d="M 2841 2188 
Q 3044 2119 3236 1894 
Q 3428 1669 3622 1275 
L 4263 0 
L 3584 0 
L 2988 1197 
Q 2756 1666 2539 1819 
Q 2322 1972 1947 1972 
L 1259 1972 
L 1259 0 
L 628 0 
L 628 4666 
L 2053 4666 
Q 2853 4666 3247 4331 
Q 3641 3997 3641 3322 
Q 3641 2881 3436 2590 
Q 3231 2300 2841 2188 
z
M 1259 4147 
L 1259 2491 
L 2053 2491 
Q 2509 2491 2742 2702 
Q 2975 2913 2975 3322 
Q 2975 3731 2742 3939 
Q 2509 4147 2053 4147 
L 1259 4147 
z
" transform="scale(0.015625)"/>
       <path id="DejaVuSans-49" d="M 628 4666 
L 1259 4666 
L 1259 0 
L 628 0 
L 628 4666 
z
" transform="scale(0.015625)"/>
       <path id="DejaVuSans-4d" d="M 628 4666 
L 1569 4666 
L 2759 1491 
L 3956 4666 
L 4897 4666 
L 4897 0 
L 4281 0 
L 4281 4097 
L 3078 897 
L 2444 897 
L 1241 4097 
L 1241 0 
L 628 0 
L 628 4666 
z
" transform="scale(0.015625)"/>
       <path id="DejaVuSans-63" d="M 3122 3366 
L 3122 2828 
Q 2878 2963 2633 3030 
Q 2388 3097 2138 3097 
Q 1578 3097 1268 2742 
Q 959 2388 959 1747 
Q 959 1106 1268 751 
Q 1578 397 2138 397 
Q 2388 397 2633 464 
Q 2878 531 3122 666 
L 3122 134 
Q 2881 22 2623 -34 
Q 2366 -91 2075 -91 
Q 1284 -91 818 406 
Q 353 903 353 1747 
Q 353 2603 823 3093 
Q 1294 3584 2113 3584 
Q 2378 3584 2631 3529 
Q 2884 3475 3122 3366 
z
" transform="scale(0.015625)"/>
       <path id="DejaVuSans-68" d="M 3513 2113 
L 3513 0 
L 2938 0 
L 2938 2094 
Q 2938 2591 2744 2837 
Q 2550 3084 2163 3084 
Q 1697 3084 1428 2787 
Q 1159 2491 1159 1978 
L 1159 0 
L 581 0 
L 581 4863 
L 1159 4863 
L 1159 2956 
Q 1366 3272 1645 3428 
Q 1925 3584 2291 3584 
Q 2894 3584 3203 3211 
Q 3513 2838 3513 2113 
z
" transform="scale(0.015625)"/>
      </defs>
      <use xlink:href="#DejaVuSans-47"/>
      <use xlink:href="#DejaVuSans-52" transform="translate(77.490234 0)"/>
      <use xlink:href="#DejaVuSans-49" transform="translate(146.972656 0)"/>
      <use xlink:href="#DejaVuSans-20" transform="translate(176.464844 0)"/>
      <use xlink:href="#DejaVuSans-4d" transform="translate(208.251953 0)"/>
      <use xlink:href="#DejaVuSans-65" transform="translate(294.53125 0)"/>
      <use xlink:href="#DejaVuSans-63" transform="translate(356.054688 0)"/>
      <use xlink:href="#DejaVuSans-68" transform="translate(411.035156 0)"/>
     </g>
    </g>
    <g id="line2d_47">
     <path d="M 302.27625 69.248563 
L 312.27625 69.248563 
L 322.27625 69.248563 
" style="fill: none; stroke: #440154; stroke-width: 1.5; stroke-linecap: square"/>
    </g>
    <g id="text_22">
     <!-- CoolProp HEOS -->
     <g transform="translate(330.27625 72.748563) scale(0.1 -0.1)">
      <defs>
       <path id="DejaVuSans-43" d="M 4122 4306 
L 4122 3641 
Q 3803 3938 3442 4084 
Q 3081 4231 2675 4231 
Q 1875 4231 1450 3742 
Q 1025 3253 1025 2328 
Q 1025 1406 1450 917 
Q 1875 428 2675 428 
Q 3081 428 3442 575 
Q 3803 722 4122 1019 
L 4122 359 
Q 3791 134 3420 21 
Q 3050 -91 2638 -91 
Q 1578 -91 968 557 
Q 359 1206 359 2328 
Q 359 3453 968 4101 
Q 1578 4750 2638 4750 
Q 3056 4750 3426 4639 
Q 3797 4528 4122 4306 
z
" transform="scale(0.015625)"/>
       <path id="DejaVuSans-6f" d="M 1959 3097 
Q 1497 3097 1228 2736 
Q 959 2375 959 1747 
Q 959 1119 1226 758 
Q 1494 397 1959 397 
Q 2419 397 2687 759 
Q 2956 1122 2956 1747 
Q 2956 2369 2687 2733 
Q 2419 3097 1959 3097 
z
M 1959 3584 
Q 2709 3584 3137 3096 
Q 3566 2609 3566 1747 
Q 3566 888 3137 398 
Q 2709 -91 1959 -91 
Q 1206 -91 779 398 
Q 353 888 353 1747 
Q 353 2609 779 3096 
Q 1206 3584 1959 3584 
z
" transform="scale(0.015625)"/>
       <path id="DejaVuSans-6c" d="M 603 4863 
L 1178 4863 
L 1178 0 
L 603 0 
L 603 4863 
z
" transform="scale(0.015625)"/>
       <path id="DejaVuSans-50" d="M 1259 4147 
L 1259 2394 
L 2053 2394 
Q 2494 2394 2734 2622 
Q 2975 2850 2975 3272 
Q 2975 3691 2734 3919 
Q 2494 4147 2053 4147 
L 1259 4147 
z
M 628 4666 
L 2053 4666 
Q 2838 4666 3239 4311 
Q 3641 3956 3641 3272 
Q 3641 2581 3239 2228 
Q 2838 1875 2053 1875 
L 1259 1875 
L 1259 0 
L 628 0 
L 628 4666 
z
" transform="scale(0.015625)"/>
       <path id="DejaVuSans-48" d="M 628 4666 
L 1259 4666 
L 1259 2753 
L 3553 2753 
L 3553 4666 
L 4184 4666 
L 4184 0 
L 3553 0 
L 3553 2222 
L 1259 2222 
L 1259 0 
L 628 0 
L 628 4666 
z
" transform="scale(0.015625)"/>
       <path id="DejaVuSans-45" d="M 628 4666 
L 3578 4666 
L 3578 4134 
L 1259 4134 
L 1259 2753 
L 3481 2753 
L 3481 2222 
L 1259 2222 
L 1259 531 
L 3634 531 
L 3634 0 
L 628 0 
L 628 4666 
z
" transform="scale(0.015625)"/>
       <path id="DejaVuSans-4f" d="M 2522 4238 
Q 1834 4238 1429 3725 
Q 1025 3213 1025 2328 
Q 1025 1447 1429 934 
Q 1834 422 2522 422 
Q 3209 422 3611 934 
Q 4013 1447 4013 2328 
Q 4013 3213 3611 3725 
Q 3209 4238 2522 4238 
z
M 2522 4750 
Q 3503 4750 4090 4092 
Q 4678 3434 4678 2328 
Q 4678 1225 4090 567 
Q 3503 -91 2522 -91 
Q 1538 -91 948 565 
Q 359 1222 359 2328 
Q 359 3434 948 4092 
Q 1538 4750 2522 4750 
z
" transform="scale(0.015625)"/>
       <path id="DejaVuSans-53" d="M 3425 4513 
L 3425 3897 
Q 3066 4069 2747 4153 
Q 2428 4238 2131 4238 
Q 1616 4238 1336 4038 
Q 1056 3838 1056 3469 
Q 1056 3159 1242 3001 
Q 1428 2844 1947 2747 
L 2328 2669 
Q 3034 2534 3370 2195 
Q 3706 1856 3706 1288 
Q 3706 609 3251 259 
Q 2797 -91 1919 -91 
Q 1588 -91 1214 -16 
Q 841 59 441 206 
L 441 856 
Q 825 641 1194 531 
Q 1563 422 1919 422 
Q 2459 422 2753 634 
Q 3047 847 3047 1241 
Q 3047 1584 2836 1778 
Q 2625 1972 2144 2069 
L 1759 2144 
Q 1053 2284 737 2584 
Q 422 2884 422 3419 
Q 422 4038 858 4394 
Q 1294 4750 2059 4750 
Q 2388 4750 2728 4690 
Q 3069 4631 3425 4513 
z
" transform="scale(0.015625)"/>
      </defs>
      <use xlink:href="#DejaVuSans-43"/>
      <use xlink:href="#DejaVuSans-6f" transform="translate(69.824219 0)"/>
      <use xlink:href="#DejaVuSans-6f" transform="translate(131.005859 0)"/>
      <use xlink:href="#DejaVuSans-6c" transform="translate(192.1875 0)"/>
      <use xlink:href="#DejaVuSans-50" transform="translate(219.970703 0)"/>
      <use xlink:href="#DejaVuSans-72" transform="translate(278.523438 0)"/>
      <use xlink:href="#DejaVuSans-6f" transform="translate(317.386719 0)"/>
      <use xlink:href="#DejaVuSans-70" transform="translate(378.568359 0)"/>
      <use xlink:href="#DejaVuSans-20" transform="translate(442.044922 0)"/>
      <use xlink:href="#DejaVuSans-48" transform="translate(473.832031 0)"/>
      <use xlink:href="#DejaVuSans-45" transform="translate(549.027344 0)"/>
      <use xlink:href="#DejaVuSans-4f" transform="translate(612.210938 0)"/>
      <use xlink:href="#DejaVuSans-53" transform="translate(690.921875 0)"/>
     </g>
    </g>
    <g id="line2d_48">
     <path d="M 302.27625 83.926688 
L 312.27625 83.926688 
L 322.27625 83.926688 
" style="fill: none; stroke-dasharray: 9.6,2.4,1.5,2.4; stroke-dashoffset: 0; stroke: #440154; stroke-width: 1.5"/>
    </g>
    <g id="text_23">
     <!-- CoolProp SRK -->
     <g transform="translate(330.27625 87.426688) scale(0.1 -0.1)">
      <use xlink:href="#DejaVuSans-43"/>
      <use xlink:href="#DejaVuSans-6f" transform="translate(69.824219 0)"/>
      <use xlink:href="#DejaVuSans-6f" transform="translate(131.005859 0)"/>
      <use xlink:href="#DejaVuSans-6c" transform="translate(192.1875 0)"/>
      <use xlink:href="#DejaVuSans-50" transform="translate(219.970703 0)"/>
      <use xlink:href="#DejaVuSans-72" transform="translate(278.523438 0)"/>
      <use xlink:href="#DejaVuSans-6f" transform="translate(317.386719 0)"/>
      <use xlink:href="#DejaVuSans-70" transform="translate(378.568359 0)"/>
      <use xlink:href="#DejaVuSans-20" transform="translate(442.044922 0)"/>
      <use xlink:href="#DejaVuSans-53" transform="translate(473.832031 0)"/>
      <use xlink:href="#DejaVuSans-52" transform="translate(537.308594 0)"/>
      <use xlink:href="#DejaVuSans-4b" transform="translate(606.791016 0)"/>
     </g>
    </g>
   </g>
  </g>
 </g>
 <defs>
  <clipPath id="pf462cf0812">
   <rect x="57.6" y="41.472" width="357.12" height="266.112"/>
  </clipPath>
 </defs>
</svg>
